<svg aria-hidden="true" style="position: absolute; width: 0; height: 0; overflow: hidden;" version="1.1" xmlns="http://www.w3.org/2000/svg" xmlns:xlink="http://www.w3.org/1999/xlink">
<defs>
<symbol id="icon-Botle-Home-screen" viewBox="0 0 43 32">
<path fill="#f5f5f5" style="fill: var(--color1, #f5f5f5)" d="M21.547 32c9.229 0 16.711-0.435 16.711-0.972s-7.482-0.972-16.711-0.972-16.711 0.435-16.711 0.972c0 0.537 7.482 0.972 16.711 0.972z"></path>
<path fill="#407bff" style="fill: var(--color2, #407bff)" opacity="0.1" d="M11.834 24.241c0.010-0.077 0.050-0.148 0.111-0.197s0.138-0.073 0.217-0.067c0.738-0.011 1.428 0.508 2.069 1.066 0.142 0.123 0.296 0.25 0.456 0.121 0.049-0.041 0.085-0.095 0.103-0.156 0.028-0.1 0.028-0.206 0-0.306-0.024-0.083-0.063-0.16-0.116-0.228-0.278-0.365-0.617-0.54-0.892-0.917-0.154-0.216-0.282-0.45-0.38-0.696-0.086-0.216-0.259-0.566-0.19-0.859 0.077-0.35 0.34-0.32 0.499-0.272 0.504 0.15 0.975 0.508 1.402 0.954 0.456 0.474 0.869 1.045 1.28 1.613 0.155 0.216 0.319 0.437 0.517 0.515s0.449-0.048 0.533-0.359c0.084-0.311-0.015-0.668-0.035-0.977-0.028-0.369-0.010-0.74 0.053-1.104 0.028-0.193 0.093-0.378 0.192-0.546 0.222-0.325 0.552-0.21 0.767 0.035 0.165 0.206 0.292 0.438 0.376 0.687 0.242 0.688 0.387 1.406 0.431 2.134 0.033 0.451 0.102 0.921 0.288 1.27 0.301 0.565 0.862 0.52 1.297 0.224 0.758-0.515 1.342-1.68 1.498-2.982 0.051-0.424 0.064-0.883 0.219-1.238 0.135-0.307 0.483-0.515 0.652-0.184 0.068 0.166 0.088 0.348 0.055 0.524-0.030 0.175-0.073 0.347-0.128 0.515-0.086 0.292-0.172 0.839 0.060 1.010 0.035 0.021 0.074 0.034 0.114 0.039s0.081 0 0.12-0.013c0.762-0.158 1.47-0.873 1.936-1.87 0.169-0.375 0.297-0.767 0.384-1.169 0.056-0.246 0.079-0.509 0.141-0.753 0.040-0.192 0.12-0.373 0.236-0.532 0.296-0.354 0.981-0.187 1.020 0.571 0.023 0.439-0.094 0.868-0.137 1.298-0.027 0.268 0.14 0.266 0.264 0.258 0.595-0.060 1.12-0.658 1.587-1.28 0.554-0.739 1.168-1.7 1.925-1.728 0.172-0.006 0.459 0.016 0.563 0.282 0.048 0.163 0.048 0.335 0 0.498-0.153 0.634-0.603 0.961-0.948 1.274-0.972 0.908-1.827 1.934-2.545 3.052-0.11 0.172-0.222 0.455-0.118 0.624 0.020 0.032 0.049 0.057 0.084 0.073s0.073 0.020 0.11 0.013c0.356-0.027 0.69-0.309 1.014-0.543s0.694-0.438 1.034-0.262c0.105 0.063 0.196 0.146 0.269 0.244s0.125 0.21 0.154 0.328c0.061 0.208 0.071 0.427 0.028 0.639-0.125 0.583-0.665 0.845-0.963 1.133-0.409 0.394-0.784 0.821-1.12 1.279-0.31 0.423-0.603 0.887-0.914 1.303-1.12 1.488-2.672 1.709-4.051 1.882-1.501 0.187-3.005 0.086-4.497-0.111-1.085-0.144-2.155-0.452-3.214-0.817-0.364-0.131-0.725-0.275-1.082-0.445-0.384-0.182-0.948-0.295-1.095-1.012-0.031-0.155 0.005-0.28 0.108-0.338 0.318-0.18 0.771 0.061 1.070 0.22 0.413 0.22 0.804 0.533 1.228 0.703 0.068 0.033 0.142 0.053 0.218 0.057s0.152-0.007 0.223-0.033c0.070-0.029 0.128-0.082 0.163-0.149 0.045-0.087 0.056-0.188 0.031-0.282-0.017-0.051-0.047-0.097-0.086-0.135-0.763-0.779-1.675-1.399-2.682-1.822-0.323-0.138-0.653-0.252-0.964-0.447-0.252-0.155-0.469-0.36-0.638-0.601-0.145-0.231-0.378-0.639-0.304-1.007z"></path>
<path fill="#407bff" style="fill: var(--color2, #407bff)" opacity="0.1" d="M28.319 17.928c-0.058 0.059-0.133 0.099-0.215 0.112s-0.166-0.001-0.239-0.040-0.132-0.1-0.167-0.175c-0.035-0.075-0.045-0.159-0.027-0.24 0.297-1.438 0.944-2.485 1.713-1.942 0.574 0.405-0.326 1.52-1.064 2.285z"></path>
<path fill="#407bff" style="fill: var(--color2, #407bff)" opacity="0.3" d="M26.234 18.599c0.235-0.129 0.434-0.315 0.58-0.539s0.233-0.482 0.255-0.749l0.583-7.072c0.030-0.364-0.016-0.729-0.136-1.074s-0.311-0.66-0.561-0.927l-1.795-1.916c-0.099-0.106-0.174-0.231-0.222-0.368s-0.066-0.282-0.055-0.426l0.086-1.036-4.646-0.38-0.086 1.036c-0.012 0.144-0.054 0.284-0.123 0.411s-0.164 0.238-0.279 0.327l-2.086 1.6c-0.29 0.223-0.53 0.503-0.705 0.824s-0.281 0.674-0.31 1.037l-0.583 7.072c-0.022 0.266 0.022 0.534 0.129 0.779s0.273 0.46 0.484 0.626c-0.235 0.129-0.434 0.315-0.58 0.539s-0.233 0.482-0.254 0.749l-0.744 9.017c-0.035 0.429 0.102 0.854 0.381 1.182s0.678 0.532 1.108 0.568l7.671 0.628c0.213 0.018 0.427-0.007 0.631-0.072s0.392-0.169 0.555-0.307c0.163-0.138 0.297-0.306 0.395-0.496s0.157-0.396 0.175-0.608l0.744-9.017c0.023-0.266-0.021-0.534-0.127-0.78s-0.272-0.461-0.482-0.627z"></path>
<path fill="#407bff" style="fill: var(--color2, #407bff)" opacity="0.3" d="M20.323 4.114l-0.066 0.799 4.645 0.381 0.066-0.799-4.645-0.381z"></path>
<path fill="#fff" style="fill: var(--color3, #fff)" opacity="0.3" d="M26.911 8.422l-1.795-1.918c0 0-1.157 0.050-0.259 1.464 0.766 1.196 2.101 1.010 2.054 0.453z"></path>
<path fill="#407bff" style="fill: var(--color2, #407bff)" opacity="0.2" d="M15.184 28.126c-0.035 0.429 0.102 0.854 0.381 1.182s0.678 0.532 1.108 0.568l7.671 0.628c0.213 0.018 0.427-0.007 0.631-0.072s0.392-0.169 0.555-0.307c0.163-0.138 0.297-0.306 0.395-0.496s0.157-0.396 0.175-0.608l-10.916-0.894z"></path>
<path fill="#407bff" style="fill: var(--color2, #407bff)" opacity="0.3" d="M26.576 8.588c0.2 0.214 0.354 0.468 0.45 0.744s0.134 0.57 0.11 0.862l-0.583 7.073c-0.015 0.182-0.075 0.357-0.175 0.51s-0.235 0.279-0.396 0.368l-0.678 0.374 0.608 0.48c0.144 0.113 0.257 0.259 0.33 0.427s0.103 0.35 0.089 0.532l-0.744 9.017c-0.024 0.292-0.163 0.563-0.387 0.753s-0.515 0.284-0.808 0.26l-7.671-0.628c-0.146-0.012-0.288-0.052-0.418-0.118s-0.246-0.157-0.341-0.268c-0.095-0.111-0.167-0.239-0.212-0.378s-0.062-0.285-0.051-0.43l0.744-9.017c0.015-0.182 0.075-0.357 0.174-0.511s0.235-0.28 0.396-0.368l0.678-0.374-0.603-0.48c-0.144-0.113-0.257-0.26-0.33-0.427s-0.104-0.35-0.089-0.532l0.583-7.072c0.024-0.292 0.109-0.576 0.25-0.833s0.333-0.483 0.566-0.661c0.69-0.444 2.5 0.661 4.619 0.835s3.445-0.362 3.888-0.14z"></path>
<path fill="#407bff" style="fill: var(--color2, #407bff)" opacity="0.2" d="M22.683 8.729c-2.119-0.172-3.93-1.28-4.62-0.836 1.207 0.661 2.586 1.071 4.586 1.235s3.926-0.54 3.926-0.54c-0.443-0.222-1.774 0.315-3.892 0.141z"></path>
<path fill="#407bff" style="fill: var(--color2, #407bff)" opacity="0.2" d="M16.149 16.419c-0.022 0.266 0.022 0.534 0.129 0.779s0.273 0.46 0.484 0.626l9.471 0.773c0.235-0.129 0.434-0.315 0.58-0.539s0.233-0.482 0.255-0.749l-10.919-0.89z"></path>
<path fill="#407bff" style="fill: var(--color2, #407bff)" d="M25.066 3.228l-4.632-0.381c-0.194-0.016-0.364 0.128-0.38 0.321l-0.092 1.123c-0.016 0.193 0.129 0.363 0.323 0.379l4.632 0.381c0.194 0.016 0.364-0.128 0.38-0.321l0.092-1.123c0.016-0.193-0.128-0.363-0.323-0.379z"></path>
<path fill="#fff" style="fill: var(--color3, #fff)" opacity="0.2" d="M20.518 4.497c-0.006-0-0.011-0.002-0.016-0.005s-0.010-0.006-0.013-0.010c-0.004-0.004-0.006-0.009-0.008-0.015s-0.002-0.011-0.002-0.017l0.109-1.359c0.001-0.011 0.006-0.022 0.015-0.029s0.020-0.011 0.031-0.010c0.011 0.001 0.022 0.006 0.029 0.015s0.011 0.020 0.010 0.031l-0.112 1.358c-0.001 0.011-0.006 0.021-0.014 0.029s-0.019 0.012-0.030 0.012z"></path>
<path fill="#fff" style="fill: var(--color3, #fff)" opacity="0.2" d="M21.359 4.565c-0.006-0-0.011-0.002-0.016-0.005s-0.010-0.006-0.013-0.010-0.006-0.009-0.008-0.015c-0.002-0.005-0.002-0.011-0.002-0.017l0.112-1.358c0.001-0.011 0.007-0.022 0.015-0.029s0.020-0.011 0.031-0.010c0.006 0 0.011 0.002 0.016 0.005s0.009 0.006 0.013 0.010c0.004 0.004 0.006 0.009 0.008 0.015s0.002 0.011 0.002 0.017l-0.115 1.358c-0.001 0.011-0.006 0.021-0.014 0.028s-0.018 0.011-0.029 0.012z"></path>
<path fill="#fff" style="fill: var(--color3, #fff)" opacity="0.2" d="M22.198 4.638c-0.006-0-0.011-0.002-0.016-0.005s-0.010-0.006-0.013-0.010c-0.004-0.004-0.006-0.009-0.008-0.015s-0.002-0.011-0.002-0.017l0.112-1.358c0.001-0.011 0.007-0.022 0.015-0.029s0.020-0.011 0.031-0.011c0.006 0 0.011 0.002 0.016 0.005s0.010 0.006 0.013 0.010c0.004 0.004 0.006 0.009 0.008 0.015s0.002 0.011 0.002 0.017l-0.112 1.358c-0 0.006-0.002 0.011-0.005 0.016s-0.006 0.010-0.010 0.013c-0.004 0.004-0.009 0.006-0.015 0.008s-0.011 0.002-0.017 0.002z"></path>
<path fill="#fff" style="fill: var(--color3, #fff)" opacity="0.2" d="M23.039 4.703c-0.006-0-0.011-0.002-0.016-0.005s-0.010-0.006-0.013-0.010-0.006-0.009-0.008-0.015c-0.002-0.005-0.002-0.011-0.002-0.017l0.112-1.358c0.001-0.011 0.007-0.022 0.015-0.029s0.020-0.011 0.031-0.010c0.006 0 0.011 0.002 0.016 0.005s0.010 0.006 0.013 0.010c0.004 0.004 0.006 0.009 0.008 0.015s0.002 0.011 0.002 0.017l-0.112 1.358c-0 0.006-0.002 0.011-0.004 0.016s-0.006 0.010-0.010 0.013-0.009 0.006-0.015 0.008c-0.005 0.002-0.011 0.002-0.017 0.002z"></path>
<path fill="#fff" style="fill: var(--color3, #fff)" opacity="0.2" d="M23.875 4.772c-0.006-0-0.011-0.002-0.016-0.005s-0.010-0.006-0.013-0.010c-0.004-0.004-0.006-0.009-0.008-0.015s-0.002-0.011-0.002-0.017l0.112-1.358c0.002-0.011 0.007-0.021 0.016-0.029s0.020-0.011 0.031-0.011c0.006 0 0.011 0.002 0.016 0.005s0.010 0.006 0.013 0.010c0.004 0.004 0.006 0.009 0.008 0.015s0.002 0.011 0.002 0.017l-0.112 1.358c-0 0.006-0.002 0.011-0.004 0.016s-0.006 0.010-0.010 0.013c-0.004 0.004-0.009 0.006-0.015 0.008s-0.011 0.002-0.017 0.002z"></path>
<path fill="#fff" style="fill: var(--color3, #fff)" opacity="0.2" d="M24.718 4.84c-0.006-0-0.011-0.002-0.016-0.005s-0.010-0.006-0.013-0.010-0.006-0.009-0.008-0.015c-0.002-0.005-0.002-0.011-0.002-0.017l0.109-1.359c0.001-0.011 0.007-0.022 0.015-0.029s0.020-0.011 0.031-0.010c0.011 0.001 0.022 0.007 0.029 0.015s0.011 0.020 0.010 0.031l-0.111 1.359c-0.001 0.011-0.006 0.021-0.014 0.028s-0.018 0.011-0.029 0.012z"></path>
<path fill="#407bff" style="fill: var(--color2, #407bff)" opacity="0.2" d="M17.583 14.056c-0.131-0.722-1.187-0.671-1.247 0.060l-0.19 2.302c-0.022 0.266 0.022 0.534 0.129 0.779s0.273 0.46 0.484 0.626c-0.235 0.129-0.434 0.315-0.58 0.539s-0.233 0.482-0.254 0.749l-0.744 9.017c-0.035 0.429 0.102 0.854 0.381 1.182s0.678 0.532 1.108 0.568l1.982 0.162c0.218 0.018 0.438-0.015 0.642-0.095s0.386-0.206 0.534-0.368c0.147-0.162 0.255-0.355 0.316-0.565s0.072-0.431 0.033-0.646l-2.593-14.312z"></path>
<path fill="#407bff" style="fill: var(--color2, #407bff)" opacity="0.3" d="M25.21 25.864c-0.014 0.166-0.076 0.323-0.18 0.453s-0.244 0.227-0.402 0.277c-0.159 0.051-0.329 0.053-0.489 0.008s-0.303-0.138-0.411-0.264c-0.108-0.127-0.176-0.282-0.195-0.447s0.011-0.332 0.088-0.48c0.076-0.148 0.195-0.27 0.34-0.35s0.312-0.117 0.478-0.103c0.223 0.018 0.429 0.124 0.574 0.294s0.216 0.39 0.198 0.612z"></path>
<path fill="#407bff" style="fill: var(--color2, #407bff)" opacity="0.3" d="M22.531 22.611c-0.010 0.117-0.054 0.229-0.127 0.321s-0.172 0.16-0.285 0.196c-0.112 0.036-0.233 0.038-0.346 0.006s-0.215-0.097-0.291-0.187-0.124-0.2-0.138-0.317c-0.014-0.117 0.008-0.235 0.062-0.34s0.138-0.191 0.241-0.248c0.103-0.057 0.221-0.082 0.338-0.073 0.157 0.013 0.303 0.088 0.406 0.208s0.153 0.276 0.14 0.433z"></path>
<path fill="#407bff" style="fill: var(--color2, #407bff)" opacity="0.3" d="M20.037 15.373c-0.118 0.005-0.235-0.024-0.336-0.085s-0.182-0.15-0.232-0.256c-0.050-0.106-0.068-0.225-0.050-0.341s0.069-0.225 0.148-0.312c0.079-0.087 0.183-0.149 0.297-0.177s0.235-0.022 0.346 0.017c0.111 0.040 0.208 0.111 0.278 0.206s0.111 0.207 0.116 0.325c0.004 0.078-0.008 0.156-0.034 0.23s-0.067 0.141-0.12 0.199c-0.053 0.058-0.116 0.105-0.187 0.138s-0.148 0.052-0.226 0.056z"></path>
<path fill="#407bff" style="fill: var(--color2, #407bff)" opacity="0.3" d="M21.664 11.82c-0.084 0.004-0.166-0.016-0.238-0.059s-0.129-0.106-0.165-0.181c-0.036-0.075-0.048-0.159-0.036-0.242s0.049-0.159 0.105-0.221c0.056-0.062 0.13-0.105 0.211-0.125s0.166-0.016 0.245 0.012c0.079 0.028 0.147 0.079 0.197 0.146s0.078 0.147 0.082 0.23c0.005 0.111-0.034 0.22-0.109 0.302s-0.18 0.132-0.291 0.137z"></path>
<path fill="#407bff" style="fill: var(--color2, #407bff)" opacity="0.3" d="M24.281 20.043c-0.004 0.048-0.022 0.094-0.053 0.132s-0.071 0.066-0.118 0.081c-0.046 0.015-0.096 0.016-0.143 0.002s-0.089-0.040-0.12-0.077-0.051-0.082-0.057-0.131c-0.006-0.048 0.003-0.097 0.026-0.14s0.057-0.079 0.099-0.102c0.043-0.024 0.091-0.034 0.14-0.030 0.065 0.006 0.126 0.037 0.168 0.086s0.063 0.114 0.058 0.179z"></path>
<path fill="#fff" style="fill: var(--color3, #fff)" opacity="0.7" d="M19.816 26.762h-0.041c-0.066-0.005-0.13-0.022-0.19-0.052s-0.112-0.070-0.155-0.12c-0.043-0.050-0.075-0.107-0.095-0.17s-0.027-0.128-0.022-0.193c0.008-0.096 0.044-0.188 0.104-0.264s0.14-0.133 0.232-0.165c0.092-0.031 0.19-0.035 0.284-0.012s0.179 0.074 0.245 0.145c0.066 0.071 0.109 0.16 0.125 0.255s0.004 0.193-0.035 0.282-0.103 0.164-0.184 0.217c-0.081 0.053-0.176 0.081-0.273 0.081l0.004-0.004zM19.816 25.831c-0.098 0.001-0.193 0.034-0.269 0.096s-0.129 0.147-0.15 0.242c-0.021 0.095-0.008 0.195 0.035 0.282s0.116 0.157 0.205 0.198 0.189 0.051 0.284 0.027c0.095-0.023 0.179-0.079 0.239-0.156s0.091-0.173 0.088-0.271c-0.002-0.098-0.038-0.192-0.101-0.266-0.037-0.043-0.082-0.079-0.133-0.105s-0.106-0.042-0.163-0.046l-0.036-0.002z"></path>
<path fill="#fff" style="fill: var(--color3, #fff)" opacity="0.7" d="M25.147 16.712h-0.030c-0.096-0.008-0.184-0.053-0.247-0.126s-0.093-0.167-0.085-0.263c0.008-0.096 0.054-0.184 0.127-0.246s0.168-0.092 0.264-0.085c0.096 0.008 0.184 0.053 0.247 0.126s0.093 0.167 0.085 0.263c-0.008 0.096-0.054 0.184-0.127 0.246-0.066 0.055-0.149 0.085-0.234 0.084zM24.849 16.327c-0.004 0.058 0.009 0.117 0.038 0.168s0.072 0.092 0.125 0.119c0.052 0.026 0.111 0.037 0.17 0.030s0.113-0.031 0.158-0.069c0.030-0.025 0.055-0.056 0.072-0.091s0.029-0.073 0.032-0.112c0.003-0.039-0.001-0.078-0.013-0.115s-0.031-0.072-0.057-0.101c-0.026-0.029-0.058-0.052-0.094-0.069s-0.074-0.026-0.113-0.027c-0.039-0.003-0.078 0.001-0.116 0.013s-0.072 0.031-0.102 0.056c-0.030 0.025-0.054 0.056-0.072 0.091s-0.029 0.073-0.032 0.111l0.003-0.004z"></path>
<path fill="#fff" style="fill: var(--color3, #fff)" opacity="0.7" d="M19.578 9.098h-0.013c-0.044-0.004-0.086-0.026-0.114-0.060s-0.044-0.078-0.041-0.122c0.002-0.033 0.014-0.065 0.034-0.092s0.048-0.047 0.079-0.058c0.032-0.011 0.066-0.013 0.099-0.005s0.062 0.025 0.085 0.049c0.023 0.024 0.038 0.055 0.044 0.088s0.002 0.067-0.012 0.098-0.035 0.057-0.063 0.075c-0.028 0.018-0.061 0.028-0.095 0.028l-0.004-0.001zM19.474 8.921c-0.002 0.020 0.003 0.041 0.013 0.059s0.025 0.032 0.044 0.042 0.039 0.013 0.059 0.011c0.020-0.002 0.040-0.011 0.056-0.024s0.027-0.031 0.033-0.051c0.006-0.020 0.005-0.041-0.001-0.060s-0.018-0.037-0.034-0.050c-0.016-0.013-0.036-0.021-0.056-0.022-0.014-0.001-0.028 0-0.041 0.004s-0.025 0.011-0.036 0.020c-0.011 0.009-0.019 0.020-0.025 0.032s-0.010 0.026-0.011 0.039z"></path>
<path fill="#fff" style="fill: var(--color3, #fff)" opacity="0.7" d="M23.389 13.546h-0.036c-0.057-0.004-0.112-0.020-0.163-0.046s-0.096-0.061-0.132-0.105-0.065-0.093-0.082-0.147c-0.017-0.054-0.024-0.111-0.019-0.167 0.007-0.083 0.039-0.162 0.090-0.227s0.121-0.115 0.2-0.141c0.079-0.027 0.164-0.030 0.245-0.009s0.154 0.064 0.211 0.125c0.057 0.061 0.094 0.138 0.108 0.22s0.003 0.166-0.030 0.243c-0.033 0.076-0.088 0.141-0.158 0.187s-0.151 0.070-0.235 0.071l0.001-0.002zM23.389 12.747c-0.087-0-0.171 0.030-0.237 0.086-0.074 0.063-0.121 0.152-0.129 0.249-0.005 0.060 0.005 0.12 0.029 0.176s0.061 0.104 0.109 0.141c0.047 0.037 0.103 0.063 0.163 0.073s0.121 0.007 0.178-0.012 0.11-0.051 0.152-0.094c0.042-0.043 0.073-0.096 0.090-0.154s0.019-0.119 0.006-0.178-0.040-0.114-0.079-0.16c-0.031-0.037-0.069-0.067-0.113-0.089s-0.090-0.035-0.138-0.039h-0.031z"></path>
<path fill="#fff" style="fill: var(--color3, #fff)" opacity="0.3" d="M26.925 17.301l0.557-6.744c0.003-0.043-0.002-0.086-0.015-0.128s-0.035-0.079-0.063-0.112-0.062-0.060-0.101-0.080c-0.039-0.020-0.081-0.032-0.124-0.035s-0.087 0.001-0.128 0.014-0.080 0.034-0.113 0.062c-0.033 0.028-0.060 0.062-0.080 0.101s-0.032 0.080-0.035 0.123l-0.557 6.744c-0.018 0.224-0.092 0.44-0.214 0.629s-0.29 0.344-0.488 0.453l-0.339 0.188 0.304 0.24c0.177 0.139 0.317 0.32 0.408 0.526s0.128 0.431 0.11 0.656l-0.744 9.017c-0.045 0.541-0.386 0.805-0.866 1.015-0.030 0.014-0.056 0.037-0.071 0.066s-0.021 0.063-0.016 0.096c0.006 0.033 0.022 0.063 0.046 0.085s0.056 0.036 0.089 0.039c0.362 0.029 0.721-0.085 0.997-0.319s0.449-0.568 0.479-0.928l0.744-9.017c0.018-0.224-0.019-0.449-0.109-0.656s-0.23-0.387-0.408-0.526l-0.304-0.24 0.339-0.187c0.198-0.109 0.365-0.264 0.488-0.453s0.196-0.405 0.215-0.629z"></path>
<path fill="#407bff" style="fill: var(--color2, #407bff)" opacity="0.3" d="M35.871 27.782c-0.093-0.421-1.255-0.172-1.495-0.133-0.467 0.084-0.925 0.216-1.365 0.392-0.485 0.19-1.049 0.469-1.551 0.18-0.29-0.167 0.718-0.496 0.809-0.529 0.429-0.15 0.842-0.339 1.236-0.565 0.159-0.094 0.468-0.32 0.335-0.55-0.11-0.19-0.506-0.172-0.746-0.143-0.729 0.089-1.443 0.267-2.128 0.532-0.666 0.264-1.318 0.561-1.953 0.891-0.246 0.138-0.514 0.234-0.792 0.284-0.303 0.043-0.675-0.021-0.795-0.189s0.035-0.363 0.070-0.532c0.050-0.201 0.029-0.413-0.059-0.601-0.059-0.126-0.157-0.229-0.28-0.294-0.328-0.172-0.825-0.108-1.155 0.027-0.214 0.090-0.409 0.219-0.577 0.38-0.337 0.312-0.573 0.717-0.679 1.164-0.027 0.14-0.081 0.273-0.159 0.392s-0.18 0.221-0.298 0.301c-0.462 0.31-1.308 0.292-1.956 0.137-1.13-0.267-1.992-0.891-2.2-1.596-0.101-0.336-0.15-0.687-0.603-0.818-0.293-0.086-0.907-0.026-0.776 0.344 0.048 0.101 0.11 0.195 0.184 0.278 0.12 0.157 0.247 0.453-0.109 0.549-0.115 0.024-0.234 0.030-0.351 0.017-1.145-0.076-2.198-0.457-2.88-0.993-0.223-0.174-0.411-0.388-0.557-0.63-0.081-0.133-0.11-0.276-0.199-0.408-0.085-0.126-0.205-0.226-0.345-0.286-0.44-0.188-1.472-0.090-1.545 0.322-0.039 0.223 0.101 0.465 0.172 0.678 0.013 0.027 0.016 0.057 0.009 0.086-0.021 0.054-0.103 0.070-0.172 0.074-0.923 0.061-1.819-0.296-2.593-0.669-0.821-0.395-1.724-0.91-2.864-0.916-0.236-0.011-0.472 0.016-0.699 0.080-0.058 0.015-0.111 0.043-0.157 0.081-0.028 0.029-0.046 0.065-0.053 0.105s-0.001 0.080 0.015 0.117c0.037 0.076 0.092 0.141 0.16 0.191 0.345 0.28 0.827 0.393 1.268 0.538 1.307 0.422 2.57 0.967 3.773 1.627 0.122 0.068 0.337 0.225 0.166 0.344s-0.517 0.042-0.721 0.009c-0.371-0.060-0.727-0.156-1.088-0.246-0.477-0.12-1.034-0.229-1.551-0.13-0.273 0.052-0.517 0.164-0.646 0.315-0.044 0.044-0.073 0.101-0.083 0.163s0 0.125 0.028 0.181c0.178 0.315 0.987 0.451 1.429 0.601 0.566 0.193 1.12 0.42 1.657 0.681 0.459 0.227 0.886 0.475 1.351 0.697 1.663 0.794 3.985 0.897 6.061 0.974 2.254 0.086 4.518 0.013 6.766-0.112 1.638-0.091 3.245-0.27 4.85-0.482 0.461-0.060 0.92-0.134 1.379-0.197 0.466-0.053 0.928-0.144 1.379-0.272 0.162-0.041 0.314-0.117 0.444-0.222 0.123-0.114 0.162-0.264-0.059-0.307-0.462-0.092-0.938 0.013-1.389 0.094-0.507 0.093-1.009 0.199-1.507 0.32-0.227 0.060-0.457 0.107-0.69 0.14-0.234 0.033-0.471 0.017-0.699-0.045-0.074-0.023-0.155-0.064-0.159-0.13s0.058-0.107 0.122-0.131c0.93-0.368 1.918-0.601 2.912-0.816 0.675-0.146 1.362-0.235 2.042-0.35 0.62-0.104 1.273-0.128 1.81-0.52 0.107-0.069 0.19-0.169 0.238-0.286 0.023-0.060 0.029-0.126 0.016-0.19z"></path>
<path fill="#407bff" style="fill: var(--color2, #407bff)" opacity="0.3" d="M9.201 24.304c-0.252-0.715-1.152-1.982-1.342-1.234-0.102 0.42 1.342 1.234 1.342 1.234z"></path>
<path fill="#407bff" style="fill: var(--color2, #407bff)" opacity="0.3" d="M31.798 25.713c0.481-0.437 1.081-0.697 1.158-0.313 0.072 0.364-1.158 0.313-1.158 0.313z"></path>
<path fill="#407bff" style="fill: var(--color2, #407bff)" opacity="0.3" d="M12.067 22.236c-0.329-0.172-0.586-0.447-0.393-0.563s0.393 0.563 0.393 0.563z"></path>
</symbol>
<symbol id="icon-Bottle-for-Sign-in" viewBox="0 0 43 32">
<path fill="#f5f5f5" style="fill: var(--color1, #f5f5f5)" d="M21.553 32c9.232 0 16.716-0.435 16.716-0.972s-7.484-0.972-16.716-0.972c-9.232 0-16.716 0.435-16.716 0.972s7.484 0.972 16.716 0.972z"></path>
<path fill="#407bff" style="fill: var(--color2, #407bff)" opacity="0.1" d="M11.837 24.241c0.010-0.077 0.050-0.148 0.111-0.197s0.138-0.073 0.217-0.067c0.738-0.011 1.429 0.508 2.069 1.066 0.142 0.123 0.297 0.25 0.456 0.121 0.049-0.041 0.085-0.095 0.103-0.156 0.028-0.1 0.028-0.206 0-0.306-0.024-0.083-0.063-0.16-0.116-0.228-0.278-0.365-0.617-0.54-0.892-0.917-0.154-0.216-0.282-0.45-0.38-0.696-0.086-0.216-0.259-0.566-0.19-0.859 0.077-0.35 0.34-0.32 0.499-0.272 0.504 0.15 0.975 0.508 1.403 0.954 0.456 0.474 0.869 1.045 1.28 1.613 0.155 0.216 0.319 0.437 0.517 0.515s0.449-0.048 0.533-0.359c0.084-0.311-0.015-0.668-0.035-0.977-0.028-0.369-0.010-0.74 0.053-1.104 0.028-0.193 0.093-0.378 0.192-0.546 0.222-0.325 0.552-0.21 0.767 0.035 0.165 0.205 0.292 0.438 0.376 0.687 0.242 0.688 0.387 1.406 0.431 2.134 0.033 0.451 0.102 0.921 0.288 1.27 0.301 0.565 0.862 0.52 1.297 0.224 0.758-0.515 1.342-1.68 1.498-2.982 0.051-0.424 0.064-0.883 0.219-1.238 0.135-0.307 0.483-0.515 0.653-0.184 0.068 0.166 0.088 0.348 0.055 0.524-0.030 0.175-0.073 0.347-0.128 0.515-0.086 0.292-0.172 0.839 0.060 1.010 0.035 0.021 0.074 0.034 0.114 0.039s0.081 0 0.12-0.013c0.762-0.158 1.471-0.873 1.936-1.87 0.169-0.375 0.297-0.767 0.384-1.169 0.056-0.246 0.079-0.509 0.141-0.753 0.040-0.192 0.12-0.373 0.236-0.532 0.297-0.354 0.981-0.187 1.020 0.571 0.023 0.439-0.094 0.868-0.137 1.298-0.027 0.268 0.14 0.266 0.264 0.258 0.595-0.060 1.121-0.658 1.587-1.28 0.554-0.739 1.168-1.7 1.925-1.728 0.172-0.006 0.459 0.016 0.563 0.282 0.048 0.163 0.048 0.336 0 0.498-0.153 0.634-0.603 0.961-0.948 1.274-0.972 0.908-1.827 1.934-2.546 3.052-0.11 0.172-0.222 0.455-0.118 0.623 0.020 0.032 0.049 0.057 0.084 0.073s0.073 0.020 0.11 0.013c0.356-0.027 0.69-0.309 1.015-0.543s0.694-0.438 1.035-0.262c0.105 0.063 0.196 0.146 0.269 0.244s0.125 0.21 0.154 0.328c0.061 0.208 0.071 0.427 0.028 0.639-0.125 0.583-0.666 0.845-0.963 1.133-0.41 0.394-0.785 0.821-1.121 1.279-0.31 0.423-0.603 0.887-0.914 1.303-1.121 1.488-2.673 1.709-4.052 1.882-1.501 0.187-3.005 0.086-4.498-0.111-1.085-0.144-2.155-0.452-3.215-0.817-0.364-0.131-0.725-0.275-1.082-0.445-0.384-0.182-0.948-0.295-1.096-1.012-0.031-0.155 0.005-0.28 0.108-0.337 0.318-0.18 0.772 0.061 1.071 0.22 0.413 0.22 0.804 0.533 1.229 0.703 0.068 0.033 0.142 0.053 0.218 0.057s0.152-0.007 0.223-0.033c0.070-0.029 0.128-0.082 0.163-0.149 0.045-0.087 0.056-0.188 0.031-0.283-0.017-0.051-0.047-0.097-0.086-0.135-0.763-0.779-1.676-1.399-2.683-1.822-0.323-0.138-0.653-0.252-0.965-0.447-0.252-0.155-0.469-0.36-0.638-0.601-0.145-0.231-0.378-0.639-0.304-1.007z"></path>
<path fill="#407bff" style="fill: var(--color2, #407bff)" opacity="0.1" d="M28.327 17.928c-0.058 0.059-0.133 0.099-0.215 0.112s-0.166-0.001-0.239-0.040-0.132-0.1-0.167-0.175c-0.035-0.075-0.045-0.159-0.027-0.24 0.297-1.439 0.944-2.485 1.713-1.942 0.574 0.404-0.326 1.52-1.065 2.285z"></path>
<path fill="#407bff" style="fill: var(--color2, #407bff)" opacity="0.3" d="M26.24 18.599c0.235-0.129 0.435-0.315 0.58-0.539s0.233-0.482 0.255-0.749l0.583-7.072c0.030-0.364-0.016-0.729-0.136-1.074s-0.311-0.66-0.561-0.927l-1.796-1.916c-0.099-0.106-0.174-0.231-0.222-0.368s-0.066-0.282-0.055-0.426l0.086-1.036-4.648-0.38-0.086 1.036c-0.012 0.144-0.054 0.284-0.123 0.411s-0.164 0.238-0.279 0.327l-2.086 1.6c-0.29 0.223-0.53 0.503-0.705 0.824s-0.281 0.674-0.311 1.037l-0.584 7.072c-0.022 0.266 0.022 0.534 0.129 0.779s0.273 0.46 0.484 0.626c-0.235 0.129-0.435 0.315-0.58 0.539s-0.233 0.482-0.254 0.749l-0.744 9.017c-0.035 0.429 0.102 0.854 0.381 1.182s0.678 0.532 1.108 0.568l7.673 0.628c0.213 0.017 0.428-0.007 0.631-0.072s0.392-0.169 0.555-0.307c0.163-0.138 0.297-0.306 0.395-0.496s0.157-0.396 0.175-0.608l0.744-9.017c0.023-0.266-0.021-0.534-0.127-0.78s-0.272-0.461-0.482-0.627z"></path>
<path fill="#407bff" style="fill: var(--color2, #407bff)" opacity="0.3" d="M20.328 4.114l-0.066 0.799 4.647 0.381 0.066-0.799-4.647-0.381z"></path>
<path fill="#fff" style="fill: var(--color3, #fff)" opacity="0.3" d="M26.918 8.422l-1.796-1.918c0 0-1.158 0.050-0.259 1.464 0.766 1.196 2.102 1.010 2.054 0.453z"></path>
<path fill="#407bff" style="fill: var(--color2, #407bff)" opacity="0.2" d="M15.188 28.126c-0.035 0.429 0.102 0.854 0.382 1.182s0.678 0.532 1.108 0.568l7.673 0.628c0.213 0.017 0.428-0.007 0.631-0.072s0.392-0.169 0.555-0.307c0.163-0.138 0.297-0.306 0.395-0.496s0.157-0.396 0.175-0.608l-10.919-0.894z"></path>
<path fill="#407bff" style="fill: var(--color2, #407bff)" opacity="0.3" d="M26.583 8.588c0.201 0.214 0.354 0.468 0.45 0.744s0.134 0.57 0.11 0.862l-0.583 7.073c-0.015 0.182-0.075 0.357-0.175 0.51s-0.236 0.279-0.396 0.367l-0.678 0.374 0.608 0.48c0.144 0.113 0.257 0.26 0.33 0.427s0.104 0.35 0.089 0.532l-0.744 9.017c-0.024 0.292-0.163 0.563-0.387 0.753s-0.515 0.284-0.808 0.26l-7.673-0.628c-0.146-0.011-0.288-0.051-0.418-0.118s-0.246-0.157-0.341-0.268-0.167-0.239-0.212-0.378c-0.045-0.139-0.062-0.284-0.051-0.43l0.744-9.017c0.015-0.182 0.075-0.357 0.174-0.511s0.235-0.28 0.396-0.368l0.678-0.374-0.603-0.48c-0.144-0.113-0.257-0.259-0.33-0.427s-0.104-0.35-0.089-0.532l0.584-7.072c0.024-0.292 0.109-0.576 0.25-0.833s0.334-0.483 0.567-0.661c0.69-0.444 2.5 0.661 4.62 0.835s3.446-0.362 3.889-0.14z"></path>
<path fill="#407bff" style="fill: var(--color2, #407bff)" opacity="0.2" d="M22.689 8.729c-2.119-0.172-3.931-1.28-4.621-0.836 1.207 0.661 2.586 1.071 4.587 1.235s3.927-0.54 3.927-0.54c-0.443-0.222-1.774 0.315-3.893 0.141z"></path>
<path fill="#407bff" style="fill: var(--color2, #407bff)" opacity="0.2" d="M16.154 16.419c-0.022 0.266 0.022 0.534 0.129 0.779s0.273 0.46 0.484 0.626l9.474 0.773c0.235-0.129 0.435-0.315 0.58-0.539s0.233-0.482 0.255-0.749l-10.922-0.89z"></path>
<path fill="#407bff" style="fill: var(--color2, #407bff)" d="M25.072 3.228l-4.634-0.381c-0.194-0.016-0.364 0.128-0.38 0.321l-0.092 1.123c-0.016 0.193 0.129 0.363 0.323 0.379l4.634 0.381c0.194 0.016 0.364-0.128 0.38-0.321l0.092-1.123c0.016-0.193-0.129-0.363-0.323-0.379z"></path>
<path fill="#fff" style="fill: var(--color3, #fff)" opacity="0.2" d="M20.524 4.497c-0.006-0-0.011-0.002-0.016-0.005s-0.010-0.006-0.013-0.010-0.006-0.009-0.008-0.015c-0.002-0.005-0.002-0.011-0.002-0.017l0.109-1.359c0.001-0.011 0.006-0.022 0.015-0.029s0.020-0.011 0.031-0.010 0.022 0.006 0.029 0.015c0.007 0.009 0.011 0.020 0.010 0.031l-0.112 1.358c-0.001 0.011-0.006 0.021-0.014 0.029s-0.019 0.012-0.030 0.012z"></path>
<path fill="#fff" style="fill: var(--color3, #fff)" opacity="0.2" d="M21.364 4.565c-0.006-0-0.011-0.002-0.016-0.005s-0.010-0.006-0.013-0.010c-0.004-0.004-0.006-0.009-0.008-0.015s-0.002-0.011-0.002-0.017l0.112-1.358c0.001-0.011 0.007-0.022 0.015-0.029s0.020-0.011 0.031-0.010c0.006 0 0.011 0.002 0.016 0.005s0.009 0.006 0.013 0.010 0.006 0.009 0.008 0.015c0.002 0.005 0.002 0.011 0.002 0.017l-0.115 1.358c-0.001 0.011-0.006 0.021-0.014 0.028s-0.018 0.011-0.029 0.012z"></path>
<path fill="#fff" style="fill: var(--color3, #fff)" opacity="0.2" d="M22.204 4.638c-0.006-0-0.011-0.002-0.016-0.005s-0.010-0.006-0.013-0.010-0.006-0.009-0.008-0.015c-0.002-0.005-0.002-0.011-0.002-0.017l0.112-1.358c0.001-0.011 0.007-0.022 0.015-0.029s0.020-0.011 0.031-0.011c0.006 0 0.011 0.002 0.016 0.005s0.010 0.006 0.013 0.010c0.004 0.004 0.006 0.009 0.008 0.015s0.002 0.011 0.002 0.017l-0.112 1.358c-0 0.006-0.002 0.011-0.005 0.016s-0.006 0.010-0.011 0.013-0.009 0.006-0.015 0.008c-0.005 0.002-0.011 0.002-0.017 0.002z"></path>
<path fill="#fff" style="fill: var(--color3, #fff)" opacity="0.2" d="M23.044 4.703c-0.006-0-0.011-0.002-0.016-0.005s-0.010-0.006-0.013-0.010c-0.004-0.004-0.006-0.009-0.008-0.015s-0.002-0.011-0.002-0.017l0.112-1.358c0.001-0.011 0.007-0.022 0.015-0.029s0.020-0.011 0.031-0.010c0.006 0 0.011 0.002 0.016 0.005s0.009 0.006 0.013 0.010c0.004 0.004 0.006 0.009 0.008 0.015s0.002 0.011 0.002 0.017l-0.112 1.358c-0 0.006-0.002 0.011-0.004 0.016s-0.006 0.010-0.010 0.013c-0.004 0.004-0.009 0.006-0.015 0.008s-0.011 0.002-0.017 0.002z"></path>
<path fill="#fff" style="fill: var(--color3, #fff)" opacity="0.2" d="M23.881 4.772c-0.006-0-0.011-0.002-0.016-0.005s-0.010-0.006-0.013-0.010-0.006-0.009-0.008-0.015c-0.002-0.005-0.002-0.011-0.002-0.017l0.112-1.358c0.002-0.011 0.007-0.021 0.016-0.029s0.020-0.011 0.031-0.011c0.006 0 0.011 0.002 0.016 0.005s0.010 0.006 0.013 0.010c0.004 0.004 0.006 0.009 0.008 0.015s0.002 0.011 0.002 0.017l-0.112 1.358c-0 0.006-0.002 0.011-0.004 0.016s-0.006 0.010-0.010 0.013c-0.004 0.004-0.009 0.006-0.015 0.008s-0.011 0.002-0.017 0.002z"></path>
<path fill="#fff" style="fill: var(--color3, #fff)" opacity="0.2" d="M24.725 4.84c-0.006-0-0.011-0.002-0.016-0.005s-0.010-0.006-0.013-0.010c-0.004-0.004-0.006-0.009-0.008-0.015s-0.002-0.011-0.002-0.017l0.109-1.359c0.001-0.011 0.007-0.022 0.015-0.029s0.020-0.011 0.031-0.010c0.011 0.001 0.022 0.007 0.029 0.015s0.011 0.020 0.010 0.031l-0.111 1.359c-0.001 0.011-0.006 0.021-0.014 0.028s-0.018 0.011-0.029 0.012z"></path>
<path fill="#407bff" style="fill: var(--color2, #407bff)" opacity="0.2" d="M17.587 14.056c-0.131-0.722-1.187-0.671-1.247 0.060l-0.19 2.303c-0.022 0.266 0.022 0.534 0.129 0.779s0.273 0.46 0.484 0.626c-0.235 0.129-0.435 0.315-0.58 0.539s-0.233 0.482-0.254 0.749l-0.744 9.017c-0.035 0.429 0.102 0.854 0.381 1.182s0.678 0.532 1.108 0.568l1.983 0.162c0.218 0.018 0.438-0.015 0.642-0.095s0.387-0.206 0.534-0.368c0.147-0.162 0.255-0.355 0.316-0.565s0.072-0.431 0.033-0.646l-2.594-14.312z"></path>
<path fill="#407bff" style="fill: var(--color2, #407bff)" opacity="0.3" d="M25.217 25.864c-0.014 0.166-0.076 0.323-0.18 0.453s-0.244 0.227-0.403 0.277c-0.159 0.051-0.329 0.054-0.489 0.008s-0.303-0.138-0.411-0.264c-0.108-0.127-0.176-0.282-0.195-0.447s0.011-0.332 0.088-0.48c0.076-0.148 0.195-0.27 0.34-0.35s0.312-0.117 0.478-0.103c0.223 0.018 0.429 0.124 0.574 0.294s0.216 0.39 0.198 0.612z"></path>
<path fill="#407bff" style="fill: var(--color2, #407bff)" opacity="0.3" d="M22.537 22.612c-0.010 0.117-0.054 0.229-0.127 0.321s-0.172 0.16-0.285 0.196c-0.112 0.036-0.233 0.038-0.346 0.006s-0.215-0.097-0.291-0.187c-0.076-0.090-0.124-0.2-0.138-0.317s0.008-0.235 0.062-0.339 0.138-0.191 0.241-0.248c0.103-0.057 0.221-0.082 0.339-0.073 0.158 0.013 0.303 0.088 0.406 0.208s0.153 0.276 0.14 0.433z"></path>
<path fill="#407bff" style="fill: var(--color2, #407bff)" opacity="0.3" d="M20.043 15.373c-0.118 0.005-0.235-0.024-0.336-0.085s-0.182-0.15-0.232-0.256-0.068-0.225-0.050-0.341c0.017-0.116 0.069-0.225 0.149-0.312s0.183-0.148 0.297-0.177 0.235-0.022 0.346 0.017c0.111 0.040 0.208 0.111 0.278 0.206s0.111 0.207 0.117 0.325c0.004 0.078-0.008 0.156-0.034 0.23s-0.067 0.141-0.12 0.199c-0.053 0.058-0.116 0.105-0.187 0.138s-0.148 0.052-0.226 0.056z"></path>
<path fill="#407bff" style="fill: var(--color2, #407bff)" opacity="0.3" d="M21.669 11.82c-0.084 0.004-0.166-0.016-0.238-0.059s-0.129-0.106-0.165-0.181c-0.036-0.075-0.048-0.159-0.036-0.242s0.049-0.159 0.105-0.221c0.056-0.062 0.13-0.105 0.211-0.125s0.166-0.016 0.245 0.012c0.079 0.028 0.147 0.079 0.197 0.146s0.078 0.147 0.082 0.23c0.005 0.111-0.034 0.22-0.109 0.302s-0.18 0.132-0.292 0.137z"></path>
<path fill="#407bff" style="fill: var(--color2, #407bff)" opacity="0.3" d="M24.287 20.043c-0.004 0.048-0.022 0.094-0.053 0.132s-0.071 0.066-0.118 0.081c-0.046 0.015-0.096 0.016-0.143 0.002s-0.089-0.040-0.12-0.077c-0.032-0.037-0.051-0.082-0.057-0.131s0.003-0.097 0.026-0.14c0.022-0.043 0.057-0.079 0.099-0.102s0.091-0.034 0.14-0.030c0.065 0.005 0.126 0.036 0.168 0.086s0.063 0.114 0.058 0.179z"></path>
<path fill="#fff" style="fill: var(--color3, #fff)" opacity="0.7" d="M19.821 26.762h-0.041c-0.066-0.005-0.131-0.022-0.19-0.051s-0.112-0.070-0.155-0.12c-0.043-0.050-0.075-0.107-0.095-0.17s-0.027-0.128-0.022-0.193c0.008-0.096 0.044-0.188 0.104-0.264s0.14-0.134 0.232-0.165c0.092-0.031 0.191-0.035 0.284-0.012s0.179 0.074 0.245 0.145c0.066 0.071 0.109 0.16 0.125 0.255s0.004 0.193-0.035 0.282-0.103 0.164-0.184 0.217c-0.081 0.053-0.176 0.081-0.273 0.081l0.004-0.004zM19.821 25.831c-0.098 0-0.193 0.034-0.269 0.096s-0.129 0.147-0.15 0.242c-0.021 0.095-0.008 0.195 0.035 0.283s0.116 0.157 0.205 0.198 0.189 0.051 0.285 0.027c0.095-0.023 0.179-0.079 0.239-0.156s0.091-0.173 0.088-0.271c-0.002-0.098-0.038-0.192-0.101-0.266-0.037-0.043-0.082-0.079-0.133-0.105s-0.106-0.042-0.163-0.046l-0.036-0.002z"></path>
<path fill="#fff" style="fill: var(--color3, #fff)" opacity="0.7" d="M25.153 16.712h-0.030c-0.096-0.008-0.184-0.053-0.247-0.126s-0.093-0.167-0.085-0.263c0.008-0.096 0.054-0.184 0.127-0.246s0.169-0.092 0.264-0.085c0.096 0.008 0.184 0.053 0.247 0.126s0.093 0.167 0.085 0.263c-0.008 0.096-0.054 0.184-0.127 0.247-0.066 0.055-0.149 0.085-0.235 0.084zM24.856 16.327c-0.004 0.058 0.009 0.117 0.038 0.168s0.072 0.092 0.125 0.119c0.052 0.027 0.112 0.037 0.17 0.030s0.113-0.031 0.158-0.069c0.030-0.025 0.055-0.056 0.072-0.091s0.029-0.073 0.032-0.112c0.003-0.039-0.001-0.078-0.013-0.115s-0.031-0.072-0.057-0.101c-0.026-0.029-0.058-0.052-0.094-0.069s-0.074-0.026-0.113-0.027c-0.039-0.003-0.078 0.001-0.116 0.013s-0.072 0.031-0.102 0.056-0.055 0.056-0.072 0.091c-0.018 0.035-0.029 0.073-0.032 0.111l0.003-0.004z"></path>
<path fill="#fff" style="fill: var(--color3, #fff)" opacity="0.7" d="M19.583 9.098h-0.013c-0.045-0.004-0.086-0.026-0.115-0.060s-0.044-0.078-0.041-0.122c0.002-0.033 0.014-0.065 0.034-0.092s0.048-0.047 0.079-0.058c0.032-0.011 0.066-0.013 0.099-0.005s0.062 0.025 0.085 0.049c0.023 0.024 0.038 0.055 0.044 0.088s0.002 0.067-0.012 0.098-0.035 0.057-0.063 0.075c-0.028 0.018-0.061 0.028-0.095 0.028l-0.004-0.001zM19.479 8.921c-0.002 0.020 0.003 0.041 0.013 0.059s0.025 0.032 0.044 0.042c0.018 0.009 0.039 0.013 0.060 0.011s0.040-0.011 0.055-0.024 0.027-0.031 0.033-0.051c0.006-0.020 0.005-0.041-0.001-0.060s-0.018-0.037-0.034-0.050-0.036-0.021-0.056-0.022c-0.014-0.001-0.028 0-0.041 0.004s-0.025 0.011-0.036 0.020c-0.011 0.009-0.019 0.020-0.025 0.032s-0.010 0.026-0.011 0.039z"></path>
<path fill="#fff" style="fill: var(--color3, #fff)" opacity="0.7" d="M23.395 13.546h-0.036c-0.057-0.004-0.112-0.020-0.163-0.046s-0.096-0.061-0.133-0.105c-0.037-0.043-0.065-0.093-0.082-0.147s-0.024-0.111-0.019-0.167c0.007-0.083 0.039-0.162 0.090-0.227s0.121-0.115 0.2-0.141c0.079-0.027 0.164-0.030 0.245-0.009s0.154 0.064 0.211 0.126c0.057 0.061 0.094 0.138 0.108 0.22s0.003 0.166-0.030 0.243c-0.033 0.076-0.088 0.141-0.158 0.187s-0.152 0.070-0.235 0.071l0.001-0.002zM23.395 12.747c-0.087-0-0.171 0.030-0.237 0.086-0.074 0.063-0.121 0.152-0.129 0.249-0.005 0.060 0.005 0.12 0.029 0.176s0.061 0.104 0.109 0.141c0.047 0.037 0.103 0.063 0.163 0.073s0.121 0.007 0.178-0.012c0.058-0.018 0.11-0.051 0.152-0.094s0.073-0.096 0.090-0.154c0.017-0.058 0.019-0.119 0.006-0.178s-0.040-0.114-0.079-0.16c-0.031-0.037-0.069-0.067-0.113-0.089s-0.090-0.035-0.138-0.039h-0.031z"></path>
<path fill="#fff" style="fill: var(--color3, #fff)" opacity="0.3" d="M26.932 17.301l0.557-6.744c0.004-0.043-0.002-0.086-0.015-0.128s-0.035-0.079-0.063-0.112c-0.028-0.033-0.062-0.060-0.101-0.080s-0.081-0.032-0.124-0.035c-0.043-0.004-0.087 0.001-0.128 0.014s-0.080 0.034-0.113 0.062c-0.033 0.028-0.060 0.062-0.080 0.101s-0.032 0.080-0.035 0.123l-0.557 6.744c-0.018 0.224-0.092 0.44-0.214 0.629s-0.29 0.344-0.488 0.453l-0.339 0.188 0.304 0.24c0.177 0.139 0.317 0.32 0.408 0.526s0.128 0.431 0.11 0.656l-0.744 9.017c-0.045 0.541-0.386 0.805-0.866 1.015-0.030 0.014-0.056 0.037-0.071 0.066s-0.021 0.063-0.016 0.096c0.006 0.033 0.022 0.063 0.046 0.085s0.056 0.036 0.089 0.039c0.362 0.029 0.721-0.085 0.998-0.319s0.449-0.568 0.479-0.928l0.744-9.018c0.018-0.224-0.019-0.449-0.109-0.656s-0.23-0.387-0.408-0.526l-0.304-0.24 0.339-0.187c0.198-0.109 0.365-0.264 0.488-0.453s0.196-0.405 0.215-0.629z"></path>
<path fill="#407bff" style="fill: var(--color2, #407bff)" opacity="0.3" d="M35.88 27.782c-0.093-0.421-1.255-0.172-1.496-0.133-0.467 0.084-0.925 0.216-1.366 0.392-0.485 0.19-1.049 0.469-1.552 0.18-0.291-0.167 0.718-0.496 0.81-0.529 0.429-0.15 0.843-0.339 1.236-0.565 0.159-0.095 0.468-0.32 0.335-0.55-0.11-0.19-0.506-0.172-0.747-0.143-0.729 0.089-1.444 0.267-2.129 0.532-0.666 0.264-1.318 0.561-1.954 0.891-0.246 0.138-0.514 0.234-0.792 0.284-0.303 0.043-0.675-0.021-0.795-0.189s0.035-0.363 0.070-0.532c0.050-0.201 0.029-0.413-0.059-0.601-0.059-0.126-0.157-0.229-0.28-0.294-0.328-0.172-0.825-0.108-1.155 0.027-0.214 0.090-0.409 0.219-0.577 0.38-0.337 0.312-0.573 0.717-0.679 1.164-0.027 0.14-0.081 0.273-0.159 0.392s-0.18 0.221-0.298 0.301c-0.462 0.31-1.309 0.292-1.956 0.137-1.13-0.267-1.992-0.891-2.2-1.597-0.101-0.336-0.15-0.687-0.603-0.818-0.293-0.086-0.907-0.026-0.776 0.343 0.048 0.101 0.11 0.195 0.185 0.278 0.12 0.157 0.247 0.453-0.109 0.549-0.115 0.024-0.234 0.030-0.351 0.017-1.145-0.076-2.198-0.457-2.881-0.993-0.223-0.174-0.411-0.388-0.557-0.63-0.081-0.133-0.11-0.277-0.199-0.408-0.085-0.127-0.205-0.226-0.345-0.286-0.44-0.188-1.472-0.090-1.545 0.322-0.039 0.223 0.101 0.465 0.172 0.678 0.013 0.027 0.016 0.057 0.009 0.086-0.021 0.054-0.103 0.070-0.172 0.074-0.923 0.061-1.819-0.296-2.594-0.669-0.821-0.395-1.724-0.909-2.865-0.915-0.236-0.011-0.472 0.016-0.699 0.080-0.058 0.015-0.111 0.043-0.157 0.081-0.028 0.029-0.046 0.065-0.053 0.105s-0.001 0.080 0.015 0.117c0.037 0.076 0.092 0.141 0.16 0.191 0.345 0.28 0.828 0.393 1.268 0.538 1.307 0.422 2.571 0.967 3.774 1.627 0.122 0.068 0.337 0.225 0.166 0.344s-0.517 0.042-0.722 0.009c-0.371-0.060-0.727-0.156-1.088-0.246-0.478-0.12-1.035-0.229-1.552-0.13-0.273 0.052-0.517 0.164-0.646 0.315-0.044 0.044-0.073 0.101-0.083 0.163s-0 0.125 0.028 0.181c0.178 0.315 0.987 0.451 1.429 0.601 0.566 0.193 1.12 0.42 1.658 0.681 0.46 0.227 0.886 0.475 1.352 0.697 1.663 0.794 3.986 0.897 6.062 0.974 2.254 0.086 4.519 0.013 6.768-0.112 1.638-0.091 3.246-0.27 4.851-0.482 0.461-0.060 0.92-0.134 1.379-0.197 0.466-0.053 0.928-0.144 1.379-0.272 0.162-0.041 0.314-0.117 0.444-0.222 0.123-0.114 0.162-0.264-0.059-0.307-0.462-0.092-0.938 0.013-1.39 0.095-0.507 0.093-1.009 0.2-1.507 0.32-0.227 0.060-0.457 0.107-0.69 0.14-0.234 0.033-0.472 0.017-0.699-0.045-0.074-0.023-0.155-0.064-0.159-0.13s0.058-0.107 0.122-0.131c0.93-0.368 1.918-0.601 2.913-0.816 0.675-0.146 1.362-0.235 2.042-0.35 0.62-0.104 1.273-0.128 1.81-0.52 0.107-0.069 0.19-0.169 0.238-0.286 0.023-0.060 0.029-0.126 0.016-0.19z"></path>
<path fill="#407bff" style="fill: var(--color2, #407bff)" opacity="0.3" d="M9.203 24.304c-0.253-0.715-1.153-1.982-1.342-1.234-0.102 0.42 1.342 1.234 1.342 1.234z"></path>
<path fill="#407bff" style="fill: var(--color2, #407bff)" opacity="0.3" d="M31.806 25.713c0.481-0.437 1.081-0.697 1.159-0.313 0.072 0.364-1.159 0.313-1.159 0.313z"></path>
<path fill="#407bff" style="fill: var(--color2, #407bff)" opacity="0.3" d="M12.070 22.236c-0.329-0.172-0.586-0.447-0.393-0.563s0.393 0.563 0.393 0.563z"></path>
</symbol>
<symbol id="icon-Background-element-Main-Page" viewBox="0 0 77 32">
<path fill="#ecf2ff" style="fill: var(--color4, #ecf2ff)" d="M73.729 0.833c-0.012 0.152-0.069 0.296-0.164 0.416s-0.222 0.208-0.367 0.254-0.3 0.049-0.447 0.007c-0.146-0.042-0.277-0.126-0.376-0.242s-0.16-0.259-0.178-0.41c-0.017-0.151 0.010-0.304 0.080-0.44s0.178-0.247 0.311-0.321 0.285-0.107 0.437-0.094c0.203 0.017 0.392 0.114 0.524 0.269s0.197 0.357 0.18 0.561z"></path>
<path fill="#ecf2ff" style="fill: var(--color4, #ecf2ff)" d="M33.097 1.878c-0.012 0.152-0.070 0.296-0.164 0.416s-0.223 0.208-0.367 0.254-0.3 0.049-0.447 0.007c-0.146-0.042-0.277-0.126-0.376-0.242s-0.16-0.259-0.178-0.41c-0.017-0.151 0.010-0.304 0.080-0.44s0.178-0.247 0.311-0.321c0.133-0.074 0.285-0.107 0.437-0.094 0.203 0.017 0.392 0.114 0.524 0.269s0.197 0.357 0.18 0.561z"></path>
<path fill="#ecf2ff" style="fill: var(--color4, #ecf2ff)" d="M3.627 7.078c-0.008 0.098-0.045 0.19-0.106 0.267s-0.143 0.133-0.236 0.163c-0.093 0.030-0.193 0.032-0.287 0.005s-0.178-0.081-0.241-0.156c-0.063-0.075-0.103-0.166-0.114-0.264s0.007-0.196 0.051-0.283c0.045-0.087 0.114-0.159 0.2-0.206s0.183-0.069 0.281-0.061c0.131 0.011 0.252 0.073 0.337 0.173s0.127 0.23 0.116 0.361z"></path>
<path fill="#c6d7ff" style="fill: var(--color5, #c6d7ff)" d="M5.661 18.372c-0.012 0.152-0.070 0.296-0.164 0.416s-0.223 0.208-0.367 0.254c-0.145 0.047-0.3 0.049-0.447 0.007s-0.277-0.126-0.376-0.242-0.16-0.259-0.178-0.41c-0.017-0.151 0.010-0.304 0.080-0.44s0.178-0.247 0.311-0.321 0.285-0.107 0.437-0.094c0.203 0.017 0.392 0.114 0.524 0.269s0.197 0.357 0.18 0.561z"></path>
<path fill="#c6d7ff" style="fill: var(--color5, #c6d7ff)" d="M40.685 28.709c-0.012 0.152-0.070 0.296-0.164 0.416s-0.223 0.208-0.367 0.254c-0.145 0.047-0.3 0.049-0.447 0.007s-0.277-0.126-0.376-0.242-0.16-0.259-0.178-0.41c-0.017-0.151 0.010-0.304 0.080-0.44s0.178-0.247 0.311-0.321 0.285-0.107 0.437-0.094c0.203 0.017 0.392 0.114 0.524 0.269s0.197 0.357 0.18 0.561z"></path>
<path fill="#c6d7ff" style="fill: var(--color5, #c6d7ff)" d="M75.269 27.994c-0.012 0.152-0.069 0.296-0.164 0.416s-0.222 0.208-0.367 0.254c-0.145 0.047-0.3 0.049-0.447 0.007s-0.277-0.126-0.376-0.242c-0.098-0.116-0.16-0.259-0.178-0.41s0.010-0.304 0.080-0.44c0.069-0.135 0.178-0.247 0.311-0.321s0.285-0.107 0.437-0.094c0.203 0.017 0.392 0.114 0.524 0.269s0.197 0.357 0.18 0.561z"></path>
<path fill="#9ebbff" style="fill: var(--color6, #9ebbff)" opacity="0.7" d="M39.269 6.644h-0.087c-0.138-0.010-0.273-0.046-0.397-0.108s-0.234-0.148-0.325-0.253c-0.089-0.104-0.156-0.226-0.198-0.356s-0.057-0.268-0.045-0.405c0.017-0.202 0.092-0.395 0.217-0.555s0.293-0.28 0.485-0.346c0.192-0.066 0.399-0.075 0.595-0.025s0.375 0.156 0.512 0.305c0.138 0.149 0.229 0.335 0.262 0.535s0.008 0.406-0.073 0.591c-0.081 0.186-0.215 0.344-0.385 0.455s-0.368 0.171-0.571 0.171l0.009-0.009zM39.269 4.688c-0.205 0.001-0.404 0.072-0.563 0.201s-0.27 0.309-0.314 0.509c-0.044 0.2-0.018 0.41 0.074 0.594s0.243 0.331 0.429 0.417c0.186 0.086 0.396 0.106 0.595 0.057s0.376-0.165 0.5-0.328c0.125-0.163 0.19-0.364 0.185-0.569s-0.080-0.402-0.212-0.559c-0.077-0.091-0.171-0.166-0.278-0.221s-0.222-0.087-0.341-0.097l-0.076-0.004z"></path>
<path fill="#9ebbff" style="fill: var(--color6, #9ebbff)" opacity="0.7" d="M11.555 9.175h-0.068c-0.109-0.007-0.216-0.037-0.313-0.085s-0.185-0.117-0.256-0.199c-0.070-0.082-0.123-0.178-0.156-0.281s-0.045-0.212-0.036-0.32c0.013-0.16 0.073-0.312 0.171-0.438s0.231-0.221 0.383-0.273c0.151-0.052 0.315-0.059 0.47-0.020s0.296 0.123 0.404 0.241c0.109 0.118 0.18 0.265 0.207 0.423s0.007 0.32-0.058 0.467c-0.064 0.147-0.17 0.272-0.304 0.359s-0.29 0.135-0.451 0.135l0.007-0.007zM11.555 7.631c-0.162 0.001-0.319 0.057-0.445 0.159s-0.213 0.244-0.248 0.402c-0.034 0.158-0.014 0.324 0.058 0.469s0.192 0.261 0.339 0.329c0.147 0.068 0.313 0.084 0.47 0.045s0.296-0.13 0.395-0.259 0.15-0.287 0.146-0.449c-0.004-0.162-0.063-0.318-0.167-0.442-0.061-0.072-0.135-0.131-0.219-0.174s-0.175-0.069-0.269-0.076l-0.060-0.003z"></path>
<path fill="#c6d7ff" style="fill: var(--color5, #c6d7ff)" opacity="0.7" d="M1.056 31.991h-0.087c-0.138-0.009-0.273-0.046-0.397-0.108s-0.234-0.148-0.325-0.253c-0.089-0.104-0.156-0.226-0.198-0.356s-0.057-0.268-0.045-0.405c0.017-0.202 0.092-0.395 0.217-0.555s0.293-0.28 0.485-0.346c0.192-0.066 0.399-0.075 0.595-0.025s0.375 0.156 0.512 0.305c0.137 0.149 0.229 0.335 0.262 0.535s0.008 0.406-0.073 0.591c-0.081 0.186-0.215 0.344-0.384 0.455s-0.368 0.171-0.571 0.171l0.009-0.009zM1.056 30.035c-0.205 0.001-0.404 0.072-0.563 0.201s-0.27 0.309-0.314 0.509-0.018 0.41 0.074 0.594c0.091 0.184 0.243 0.331 0.429 0.417s0.396 0.106 0.595 0.057c0.199-0.049 0.376-0.165 0.5-0.328s0.19-0.364 0.185-0.569-0.080-0.402-0.212-0.559c-0.077-0.091-0.171-0.166-0.278-0.221s-0.222-0.087-0.341-0.097l-0.076-0.004z"></path>
<path fill="#c6d7ff" style="fill: var(--color5, #c6d7ff)" opacity="0.7" d="M36.853 19.397h-0.114c-0.182-0.012-0.359-0.061-0.522-0.142s-0.308-0.195-0.427-0.332c-0.117-0.137-0.206-0.297-0.261-0.469s-0.075-0.353-0.060-0.533c0.022-0.266 0.121-0.52 0.285-0.73s0.386-0.369 0.638-0.456c0.252-0.087 0.525-0.098 0.783-0.033s0.493 0.205 0.674 0.401 0.301 0.441 0.345 0.704c0.044 0.263 0.011 0.534-0.096 0.778s-0.283 0.453-0.506 0.599c-0.223 0.146-0.484 0.224-0.751 0.225l0.012-0.012zM36.853 16.824c-0.27 0.001-0.531 0.095-0.741 0.265s-0.355 0.406-0.413 0.67-0.023 0.539 0.097 0.781c0.12 0.242 0.319 0.435 0.564 0.549s0.521 0.14 0.783 0.075c0.262-0.065 0.494-0.217 0.658-0.432s0.25-0.479 0.243-0.749-0.105-0.53-0.279-0.736c-0.101-0.12-0.225-0.219-0.365-0.291s-0.292-0.115-0.449-0.127l-0.1-0.005z"></path>
<path fill="#9ebbff" style="fill: var(--color6, #9ebbff)" opacity="0.7" d="M75.999 19.179h-0.1c-0.16-0.011-0.316-0.054-0.46-0.125s-0.271-0.171-0.376-0.293c-0.103-0.121-0.181-0.261-0.229-0.413s-0.067-0.311-0.053-0.469c0.020-0.234 0.107-0.457 0.251-0.643s0.339-0.325 0.561-0.401c0.222-0.076 0.461-0.086 0.689-0.029s0.434 0.18 0.593 0.353c0.159 0.173 0.264 0.388 0.303 0.62s0.009 0.47-0.085 0.685-0.249 0.398-0.445 0.527c-0.196 0.129-0.426 0.198-0.661 0.198l0.010-0.010zM75.999 16.914c-0.238 0.001-0.467 0.083-0.652 0.233s-0.313 0.358-0.363 0.59c-0.050 0.232-0.020 0.475 0.086 0.687s0.281 0.383 0.496 0.483c0.216 0.1 0.459 0.123 0.689 0.066s0.435-0.191 0.579-0.38c0.145-0.189 0.22-0.421 0.214-0.659s-0.092-0.466-0.245-0.648c-0.089-0.106-0.198-0.193-0.322-0.256s-0.257-0.101-0.395-0.112l-0.088-0.004z"></path>
</symbol>
<symbol id="icon-Background-Main-Page" viewBox="0 0 107 32">
<path fill="#9ebbff" style="fill: var(--color6, #9ebbff)" d="M0 10.667l3.704 0.444c3.704 0.444 11.111 1.333 18.519 4.444s14.815 8.444 22.222 11.111c7.407 2.667 14.815 2.667 22.222 3.111s14.815 1.333 18.519 1.778l3.704 0.444h-3.704c-3.704 0-11.111 0-18.519 0s-14.815 0-22.222 0c-7.407 0-14.815 0-22.222 0s-14.815 0-18.519 0h-3.704v-21.333z"></path>
<path fill="#ecf2ff" style="fill: var(--color4, #ecf2ff)" opacity="0.8" d="M106.667 0h-2.963c-2.963 0-8.889 0-14.815 1.63-5.926 1.556-11.852 4.741-17.778 4.741s-11.852-3.185-17.778-0.519c-5.926 2.667-11.852 11.185-17.778 15.481s-11.852 4.296-17.778 3.185c-5.926-1.037-11.852-3.185-14.815-4.222l-2.963-1.111v12.815h2.963c2.963 0 8.889 0 14.815 0s11.852 0 17.778 0c5.926 0 11.852 0 17.778 0s11.852 0 17.778 0c5.926 0 11.852 0 17.778 0s11.852 0 14.815 0h2.963v-32z"></path>
<path fill="#f5f5f5" style="fill: var(--color1, #f5f5f5)" d="M89.111 29.778c5.933 0 10.743-0.28 10.743-0.626s-4.81-0.626-10.743-0.626-10.743 0.28-10.743 0.626c0 0.346 4.81 0.626 10.743 0.626z"></path>
<path fill="#407bff" style="fill: var(--color2, #407bff)" opacity="0.1" d="M82.867 24.785c0.007-0.050 0.032-0.095 0.071-0.127s0.089-0.047 0.139-0.043c0.475-0.007 0.919 0.327 1.33 0.686 0.092 0.079 0.191 0.161 0.293 0.078 0.032-0.026 0.055-0.061 0.067-0.101 0.018-0.064 0.018-0.132 0-0.197-0.016-0.053-0.041-0.103-0.075-0.146-0.179-0.235-0.397-0.348-0.573-0.59-0.099-0.139-0.181-0.289-0.244-0.448-0.056-0.139-0.167-0.364-0.122-0.553 0.050-0.225 0.219-0.206 0.321-0.175 0.324 0.097 0.627 0.327 0.901 0.614 0.293 0.305 0.559 0.673 0.823 1.038 0.1 0.139 0.205 0.281 0.333 0.332s0.289-0.031 0.342-0.231c0.054-0.2-0.009-0.43-0.022-0.629-0.018-0.237-0.007-0.476 0.034-0.711 0.018-0.124 0.060-0.243 0.124-0.351 0.143-0.209 0.354-0.135 0.493 0.023 0.106 0.132 0.188 0.282 0.242 0.442 0.155 0.443 0.248 0.905 0.277 1.373 0.021 0.29 0.065 0.592 0.184 0.817 0.193 0.364 0.554 0.335 0.834 0.144 0.487-0.332 0.863-1.081 0.963-1.919 0.033-0.273 0.041-0.568 0.141-0.797 0.087-0.198 0.31-0.332 0.419-0.118 0.044 0.107 0.056 0.224 0.036 0.337-0.019 0.112-0.047 0.223-0.082 0.332-0.056 0.188-0.111 0.54 0.039 0.65 0.022 0.014 0.047 0.022 0.073 0.025s0.053 0 0.077-0.008c0.49-0.102 0.945-0.561 1.244-1.203 0.108-0.241 0.191-0.494 0.247-0.752 0.036-0.158 0.050-0.328 0.090-0.485 0.026-0.124 0.078-0.24 0.152-0.342 0.19-0.228 0.63-0.121 0.656 0.367 0.015 0.282-0.061 0.559-0.088 0.835-0.017 0.172 0.090 0.171 0.17 0.166 0.382-0.039 0.72-0.423 1.020-0.823 0.356-0.476 0.751-1.094 1.237-1.112 0.111-0.004 0.296 0.011 0.362 0.181 0.030 0.105 0.030 0.216 0 0.321-0.099 0.408-0.388 0.618-0.61 0.82-0.625 0.585-1.175 1.244-1.636 1.964-0.070 0.111-0.143 0.293-0.076 0.401 0.013 0.021 0.031 0.037 0.053 0.047s0.047 0.013 0.071 0.009c0.229-0.018 0.443-0.199 0.652-0.349s0.446-0.282 0.665-0.169c0.067 0.040 0.126 0.094 0.173 0.157s0.081 0.135 0.099 0.211c0.039 0.134 0.045 0.275 0.019 0.411-0.081 0.375-0.428 0.544-0.619 0.729-0.263 0.253-0.504 0.529-0.72 0.823-0.199 0.272-0.388 0.571-0.587 0.838-0.72 0.958-1.718 1.1-2.604 1.211-0.965 0.121-1.932 0.055-2.891-0.071-0.698-0.093-1.385-0.291-2.066-0.526-0.234-0.085-0.466-0.177-0.696-0.286-0.247-0.117-0.61-0.19-0.704-0.651-0.019-0.099 0.004-0.18 0.070-0.217 0.204-0.116 0.496 0.039 0.688 0.141 0.265 0.141 0.517 0.343 0.79 0.452 0.044 0.021 0.091 0.034 0.14 0.036s0.098-0.005 0.144-0.022c0.045-0.019 0.081-0.053 0.104-0.096 0.029-0.056 0.036-0.121 0.020-0.182-0.011-0.033-0.030-0.063-0.056-0.087-0.49-0.502-1.076-0.9-1.724-1.173-0.208-0.089-0.42-0.162-0.62-0.288-0.162-0.1-0.301-0.231-0.41-0.387-0.093-0.149-0.243-0.411-0.196-0.648z"></path>
<path fill="#407bff" style="fill: var(--color2, #407bff)" opacity="0.1" d="M93.464 20.722c-0.037 0.038-0.085 0.063-0.139 0.072s-0.106-0.001-0.153-0.026c-0.047-0.025-0.084-0.065-0.107-0.113s-0.028-0.102-0.017-0.154c0.191-0.926 0.607-1.599 1.101-1.25 0.369 0.26-0.21 0.978-0.684 1.471z"></path>
<path fill="#407bff" style="fill: var(--color2, #407bff)" opacity="0.3" d="M92.124 21.154c0.151-0.083 0.279-0.202 0.373-0.347s0.15-0.31 0.164-0.482l0.374-4.551c0.020-0.234-0.010-0.469-0.087-0.691s-0.2-0.425-0.361-0.597l-1.154-1.233c-0.064-0.068-0.112-0.149-0.143-0.237s-0.042-0.181-0.035-0.274l0.056-0.667-2.987-0.245-0.055 0.666c-0.008 0.093-0.035 0.183-0.079 0.265s-0.106 0.153-0.18 0.21l-1.341 1.030c-0.187 0.143-0.341 0.324-0.453 0.53s-0.18 0.434-0.199 0.668l-0.376 4.551c-0.014 0.171 0.015 0.344 0.084 0.501s0.176 0.296 0.31 0.403c-0.151 0.083-0.279 0.202-0.373 0.347s-0.15 0.31-0.164 0.482l-0.478 5.803c-0.023 0.276 0.065 0.549 0.245 0.76s0.436 0.343 0.712 0.365l4.931 0.404c0.137 0.011 0.275-0.004 0.406-0.046s0.252-0.109 0.357-0.198c0.104-0.089 0.191-0.197 0.254-0.319s0.101-0.255 0.112-0.391l0.479-5.803c0.014-0.171-0.014-0.344-0.082-0.502s-0.175-0.297-0.31-0.404z"></path>
<path fill="#407bff" style="fill: var(--color2, #407bff)" opacity="0.3" d="M88.324 11.832l-0.042 0.514 2.987 0.245 0.042-0.514-2.987-0.245z"></path>
<path fill="#fff" style="fill: var(--color3, #fff)" opacity="0.3" d="M92.559 14.605l-1.154-1.234c0 0-0.744 0.032-0.167 0.942 0.493 0.77 1.351 0.65 1.321 0.292z"></path>
<path fill="#407bff" style="fill: var(--color2, #407bff)" opacity="0.2" d="M85.021 27.285c-0.023 0.276 0.065 0.549 0.245 0.761s0.436 0.342 0.712 0.365l4.931 0.404c0.137 0.011 0.275-0.005 0.406-0.046s0.252-0.109 0.357-0.198c0.104-0.089 0.191-0.197 0.253-0.319s0.101-0.255 0.113-0.392l-7.017-0.575z"></path>
<path fill="#407bff" style="fill: var(--color2, #407bff)" opacity="0.3" d="M92.344 14.712c0.129 0.138 0.227 0.301 0.29 0.479s0.086 0.367 0.070 0.555l-0.375 4.552c-0.010 0.117-0.048 0.23-0.112 0.328s-0.152 0.18-0.255 0.237l-0.436 0.241 0.39 0.309c0.093 0.073 0.165 0.167 0.213 0.275s0.066 0.225 0.056 0.342l-0.478 5.803c-0.016 0.188-0.105 0.362-0.249 0.485s-0.331 0.183-0.52 0.168l-4.931-0.404c-0.093-0.007-0.184-0.033-0.268-0.076s-0.159-0.101-0.219-0.172c-0.061-0.071-0.107-0.154-0.136-0.243s-0.040-0.183-0.033-0.276l0.478-5.803c0.010-0.117 0.048-0.23 0.112-0.329s0.152-0.18 0.255-0.237l0.436-0.241-0.387-0.309c-0.093-0.073-0.165-0.167-0.213-0.275s-0.067-0.225-0.057-0.342l0.376-4.551c0.016-0.188 0.070-0.37 0.161-0.536s0.214-0.311 0.364-0.426c0.443-0.286 1.607 0.426 2.97 0.537s2.214-0.233 2.499-0.090z"></path>
<path fill="#407bff" style="fill: var(--color2, #407bff)" opacity="0.2" d="M89.841 14.802c-1.362-0.111-2.527-0.823-2.97-0.538 0.776 0.426 1.662 0.689 2.948 0.795s2.524-0.348 2.524-0.348c-0.285-0.143-1.141 0.203-2.502 0.091z"></path>
<path fill="#407bff" style="fill: var(--color2, #407bff)" opacity="0.2" d="M85.641 19.751c-0.014 0.171 0.015 0.344 0.083 0.501s0.176 0.296 0.311 0.403l6.089 0.497c0.151-0.083 0.279-0.203 0.373-0.347s0.15-0.31 0.164-0.482l-7.020-0.573z"></path>
<path fill="#407bff" style="fill: var(--color2, #407bff)" d="M91.373 11.262l-2.978-0.245c-0.124-0.010-0.234 0.082-0.244 0.207l-0.059 0.723c-0.010 0.124 0.082 0.234 0.207 0.244l2.978 0.245c0.125 0.010 0.234-0.082 0.244-0.207l0.059-0.723c0.010-0.124-0.082-0.234-0.207-0.244z"></path>
<path fill="#fff" style="fill: var(--color3, #fff)" opacity="0.2" d="M88.45 12.079c-0.004-0-0.007-0.001-0.010-0.003s-0.007-0.004-0.009-0.007c-0.002-0.003-0.004-0.006-0.005-0.009s-0.001-0.007-0.001-0.011l0.070-0.874c0.001-0.007 0.004-0.014 0.010-0.019s0.013-0.007 0.020-0.007 0.014 0.004 0.019 0.010c0.004 0.006 0.007 0.013 0.007 0.020l-0.073 0.874c0 0.007-0.003 0.014-0.008 0.018s-0.013 0.007-0.019 0.007z"></path>
<path fill="#fff" style="fill: var(--color3, #fff)" opacity="0.2" d="M88.99 12.123c-0.004-0-0.007-0.001-0.010-0.003s-0.006-0.004-0.008-0.007c-0.003-0.003-0.004-0.006-0.006-0.009s-0.001-0.007-0.001-0.011l0.072-0.874c0.001-0.007 0.004-0.014 0.010-0.019s0.013-0.007 0.020-0.007c0.004 0 0.007 0.001 0.010 0.003s0.007 0.004 0.009 0.007c0.002 0.003 0.004 0.006 0.005 0.009s0.001 0.007 0.001 0.011l-0.073 0.874c-0.001 0.007-0.004 0.013-0.010 0.018s-0.011 0.007-0.019 0.007z"></path>
<path fill="#fff" style="fill: var(--color3, #fff)" opacity="0.2" d="M89.53 12.17c-0.004-0-0.007-0.001-0.010-0.003s-0.007-0.004-0.009-0.007c-0.002-0.003-0.004-0.006-0.005-0.009s-0.001-0.007-0.001-0.011l0.073-0.874c0.001-0.007 0.004-0.014 0.010-0.019s0.013-0.007 0.020-0.007c0.004 0 0.007 0.001 0.010 0.003s0.006 0.004 0.009 0.007c0.002 0.003 0.004 0.006 0.005 0.009s0.001 0.007 0.001 0.011l-0.072 0.874c0 0.004-0.001 0.007-0.003 0.010s-0.004 0.006-0.007 0.009c-0.003 0.002-0.006 0.004-0.010 0.005s-0.007 0.002-0.010 0.001z"></path>
<path fill="#fff" style="fill: var(--color3, #fff)" opacity="0.2" d="M90.070 12.212c-0.004-0-0.007-0.001-0.010-0.003s-0.006-0.004-0.009-0.007c-0.002-0.003-0.004-0.006-0.005-0.009s-0.001-0.007-0.001-0.011l0.072-0.874c0.001-0.007 0.004-0.014 0.010-0.019s0.013-0.007 0.020-0.007c0.004 0 0.007 0.001 0.010 0.003s0.006 0.004 0.009 0.007c0.002 0.003 0.004 0.006 0.005 0.009s0.001 0.007 0.001 0.011l-0.072 0.874c-0.001 0.004-0.001 0.007-0.003 0.010s-0.004 0.006-0.007 0.009c-0.003 0.002-0.006 0.004-0.010 0.005s-0.007 0.002-0.010 0.001z"></path>
<path fill="#fff" style="fill: var(--color3, #fff)" opacity="0.2" d="M90.607 12.256c-0.004-0-0.007-0.001-0.011-0.003s-0.006-0.004-0.008-0.007c-0.002-0.003-0.004-0.006-0.005-0.009s-0.001-0.007-0.001-0.011l0.072-0.874c0.001-0.007 0.005-0.014 0.010-0.018s0.013-0.007 0.020-0.007c0.004 0 0.007 0.001 0.010 0.003s0.006 0.004 0.008 0.007c0.003 0.003 0.004 0.006 0.006 0.009s0.001 0.007 0.001 0.011l-0.072 0.874c0 0.004-0.001 0.007-0.003 0.011s-0.004 0.006-0.007 0.009-0.006 0.004-0.010 0.005c-0.003 0.001-0.007 0.001-0.010 0.001z"></path>
<path fill="#fff" style="fill: var(--color3, #fff)" opacity="0.2" d="M91.15 12.3c-0.004-0-0.007-0.001-0.010-0.003s-0.007-0.004-0.009-0.007c-0.002-0.003-0.004-0.006-0.005-0.009s-0.001-0.007-0.001-0.011l0.070-0.874c0.001-0.007 0.004-0.014 0.010-0.019s0.013-0.007 0.020-0.007c0.007 0.001 0.014 0.004 0.019 0.010s0.007 0.013 0.007 0.020l-0.072 0.874c-0.001 0.007-0.004 0.013-0.009 0.018s-0.012 0.007-0.019 0.007z"></path>
<path fill="#407bff" style="fill: var(--color2, #407bff)" opacity="0.2" d="M86.562 18.231c-0.084-0.465-0.763-0.432-0.801 0.039l-0.122 1.482c-0.014 0.171 0.015 0.344 0.083 0.501s0.176 0.296 0.311 0.403c-0.151 0.083-0.279 0.202-0.373 0.347s-0.15 0.31-0.164 0.482l-0.479 5.803c-0.022 0.276 0.066 0.549 0.245 0.76s0.436 0.343 0.713 0.365l1.274 0.104c0.141 0.011 0.282-0.009 0.413-0.061s0.249-0.133 0.344-0.237c0.094-0.104 0.164-0.228 0.203-0.363s0.046-0.277 0.021-0.415l-1.667-9.21z"></path>
<path fill="#407bff" style="fill: var(--color2, #407bff)" opacity="0.3" d="M91.466 25.829c-0.009 0.107-0.049 0.208-0.116 0.292s-0.157 0.146-0.259 0.179c-0.102 0.033-0.212 0.034-0.315 0.005s-0.195-0.089-0.264-0.17c-0.070-0.082-0.113-0.182-0.125-0.288s0.007-0.214 0.056-0.309c0.049-0.095 0.125-0.174 0.219-0.225s0.201-0.075 0.308-0.066c0.143 0.012 0.276 0.080 0.369 0.189s0.139 0.251 0.127 0.394z"></path>
<path fill="#407bff" style="fill: var(--color2, #407bff)" opacity="0.3" d="M89.743 23.736c-0.006 0.075-0.034 0.147-0.081 0.207s-0.111 0.103-0.183 0.126c-0.073 0.023-0.15 0.024-0.223 0.004s-0.138-0.063-0.187-0.12c-0.049-0.058-0.080-0.129-0.089-0.204s0.005-0.151 0.040-0.218 0.089-0.123 0.155-0.16c0.067-0.037 0.142-0.053 0.218-0.047 0.101 0.008 0.195 0.057 0.261 0.134s0.098 0.177 0.090 0.278z"></path>
<path fill="#407bff" style="fill: var(--color2, #407bff)" opacity="0.3" d="M88.14 19.078c-0.076 0.003-0.15-0.015-0.216-0.054s-0.116-0.096-0.149-0.165c-0.033-0.068-0.044-0.145-0.033-0.22s0.045-0.145 0.096-0.2c0.051-0.056 0.118-0.096 0.191-0.114s0.151-0.014 0.222 0.011c0.071 0.025 0.133 0.072 0.179 0.132s0.071 0.133 0.075 0.209c0.003 0.050-0.004 0.1-0.021 0.148s-0.044 0.091-0.078 0.128c-0.033 0.037-0.075 0.067-0.12 0.089s-0.096 0.034-0.146 0.036z"></path>
<path fill="#407bff" style="fill: var(--color2, #407bff)" opacity="0.3" d="M89.186 16.791c-0.054 0.003-0.107-0.011-0.153-0.038s-0.083-0.068-0.106-0.117c-0.023-0.049-0.031-0.103-0.023-0.156s0.032-0.102 0.067-0.142c0.036-0.040 0.084-0.068 0.136-0.081s0.107-0.010 0.158 0.008 0.094 0.051 0.127 0.094c0.032 0.043 0.050 0.095 0.053 0.148 0.003 0.072-0.022 0.142-0.070 0.195s-0.116 0.085-0.187 0.088z"></path>
<path fill="#407bff" style="fill: var(--color2, #407bff)" opacity="0.3" d="M90.868 22.083c-0.003 0.031-0.015 0.061-0.034 0.085s-0.046 0.043-0.076 0.052c-0.030 0.010-0.062 0.010-0.092 0.001s-0.057-0.026-0.078-0.050c-0.020-0.024-0.033-0.053-0.036-0.084s0.002-0.062 0.016-0.090c0.015-0.028 0.037-0.051 0.064-0.066s0.059-0.022 0.090-0.019c0.041 0.003 0.081 0.023 0.108 0.055s0.040 0.073 0.037 0.115z"></path>
<path fill="#fff" style="fill: var(--color3, #fff)" opacity="0.7" d="M87.998 26.407h-0.027c-0.042-0.003-0.084-0.014-0.121-0.033s-0.072-0.045-0.1-0.077c-0.027-0.032-0.048-0.069-0.061-0.109s-0.018-0.082-0.014-0.124c0.005-0.062 0.028-0.121 0.067-0.17s0.090-0.086 0.149-0.106c0.059-0.020 0.122-0.023 0.183-0.008s0.115 0.048 0.157 0.093c0.042 0.046 0.070 0.103 0.081 0.164s0.002 0.124-0.022 0.181c-0.025 0.057-0.066 0.105-0.119 0.139s-0.113 0.052-0.175 0.052l0.002-0.003zM87.998 25.808c-0.063 0-0.124 0.022-0.173 0.062s-0.083 0.095-0.096 0.156c-0.013 0.061-0.006 0.126 0.022 0.182s0.075 0.101 0.132 0.128c0.057 0.026 0.121 0.033 0.183 0.017s0.116-0.051 0.153-0.101c0.039-0.050 0.059-0.111 0.057-0.174s-0.024-0.123-0.065-0.171c-0.024-0.028-0.053-0.051-0.085-0.068s-0.068-0.027-0.104-0.030l-0.024-0.001z"></path>
<path fill="#fff" style="fill: var(--color3, #fff)" opacity="0.7" d="M91.425 19.94h-0.020c-0.061-0.005-0.119-0.034-0.159-0.081s-0.059-0.108-0.055-0.169c0.005-0.061 0.035-0.118 0.082-0.158s0.108-0.059 0.17-0.054c0.061 0.005 0.119 0.034 0.159 0.081s0.060 0.108 0.055 0.169c-0.005 0.061-0.035 0.118-0.081 0.159-0.042 0.035-0.096 0.055-0.15 0.054zM91.234 19.692c-0.003 0.038 0.005 0.075 0.024 0.108s0.047 0.059 0.081 0.077c0.033 0.017 0.071 0.024 0.109 0.019s0.073-0.020 0.101-0.044c0.019-0.016 0.036-0.036 0.047-0.058s0.019-0.047 0.021-0.072c0.002-0.025-0.001-0.050-0.009-0.074s-0.020-0.046-0.036-0.065c-0.017-0.019-0.037-0.034-0.060-0.044s-0.047-0.017-0.073-0.018c-0.025-0.002-0.050 0.001-0.075 0.008s-0.046 0.020-0.065 0.036-0.035 0.036-0.047 0.058c-0.011 0.022-0.019 0.047-0.020 0.072l0.002-0.003z"></path>
<path fill="#fff" style="fill: var(--color3, #fff)" opacity="0.7" d="M87.845 15.040h-0.008c-0.029-0.003-0.056-0.017-0.074-0.038s-0.028-0.050-0.026-0.079c0.001-0.021 0.009-0.042 0.022-0.059s0.030-0.030 0.051-0.038c0.020-0.007 0.042-0.008 0.063-0.003s0.040 0.016 0.055 0.032 0.025 0.035 0.029 0.057c0.004 0.021 0.001 0.043-0.007 0.063s-0.023 0.037-0.041 0.049c-0.019 0.012-0.039 0.018-0.061 0.018l-0.003-0.001zM87.778 14.926c-0.001 0.013 0.002 0.026 0.008 0.038s0.016 0.021 0.028 0.027 0.025 0.008 0.039 0.007c0.013-0.002 0.025-0.007 0.036-0.015s0.018-0.020 0.021-0.033c0.003-0.013 0.003-0.026-0.001-0.039s-0.012-0.024-0.022-0.032c-0.010-0.008-0.023-0.013-0.036-0.014-0.009-0.001-0.018 0-0.026 0.003s-0.016 0.007-0.023 0.013-0.013 0.013-0.016 0.021c-0.004 0.008-0.007 0.016-0.007 0.025z"></path>
<path fill="#fff" style="fill: var(--color3, #fff)" opacity="0.7" d="M90.295 17.902h-0.023c-0.036-0.003-0.072-0.013-0.104-0.029s-0.061-0.040-0.085-0.067-0.041-0.060-0.053-0.095c-0.011-0.035-0.016-0.071-0.012-0.108 0.004-0.053 0.024-0.104 0.058-0.146s0.078-0.074 0.129-0.091c0.051-0.017 0.106-0.019 0.158-0.006s0.099 0.041 0.136 0.081c0.036 0.039 0.060 0.089 0.069 0.141s0.002 0.107-0.019 0.156-0.057 0.091-0.101 0.12c-0.045 0.029-0.098 0.045-0.151 0.045v-0.001zM90.295 17.388c-0.056-0-0.11 0.019-0.152 0.055-0.048 0.040-0.078 0.098-0.083 0.16-0.004 0.039 0.003 0.077 0.019 0.113s0.039 0.067 0.070 0.091c0.031 0.024 0.067 0.040 0.105 0.047s0.077 0.004 0.114-0.007c0.037-0.012 0.071-0.033 0.098-0.060s0.047-0.062 0.058-0.099c0.010-0.037 0.012-0.077 0.004-0.115s-0.025-0.073-0.050-0.103c-0.020-0.024-0.044-0.043-0.073-0.057s-0.058-0.023-0.089-0.025h-0.020z"></path>
<path fill="#fff" style="fill: var(--color3, #fff)" opacity="0.3" d="M92.568 20.319l0.358-4.34c0.002-0.028-0.001-0.056-0.010-0.082s-0.022-0.051-0.040-0.072c-0.019-0.021-0.040-0.039-0.065-0.051s-0.052-0.020-0.080-0.023c-0.027-0.002-0.056 0.001-0.082 0.009s-0.051 0.022-0.072 0.040c-0.021 0.018-0.039 0.040-0.052 0.065s-0.021 0.052-0.023 0.079l-0.358 4.34c-0.011 0.144-0.059 0.283-0.138 0.405s-0.187 0.222-0.313 0.291l-0.218 0.121 0.196 0.154c0.114 0.090 0.204 0.206 0.261 0.339s0.082 0.278 0.071 0.422l-0.479 5.803c-0.029 0.348-0.248 0.518-0.557 0.653-0.019 0.009-0.036 0.024-0.046 0.043s-0.013 0.041-0.010 0.062c0.003 0.021 0.014 0.040 0.030 0.055s0.036 0.023 0.057 0.025c0.233 0.019 0.463-0.055 0.641-0.206s0.289-0.365 0.307-0.597l0.479-5.803c0.012-0.144-0.013-0.289-0.070-0.422s-0.148-0.249-0.262-0.339l-0.196-0.155 0.218-0.121c0.127-0.070 0.235-0.17 0.313-0.291s0.127-0.261 0.139-0.405z"></path>
<path fill="#407bff" style="fill: var(--color2, #407bff)" opacity="0.3" d="M98.319 27.063c-0.060-0.271-0.807-0.111-0.961-0.086-0.3 0.054-0.594 0.139-0.878 0.253-0.312 0.122-0.674 0.302-0.997 0.116-0.187-0.107 0.461-0.319 0.52-0.34 0.276-0.097 0.541-0.218 0.795-0.364 0.102-0.061 0.301-0.206 0.216-0.354-0.071-0.122-0.325-0.111-0.48-0.092-0.468 0.057-0.927 0.172-1.368 0.342-0.427 0.17-0.847 0.361-1.256 0.573-0.158 0.089-0.33 0.151-0.509 0.183-0.195 0.028-0.434-0.014-0.511-0.122s0.022-0.234 0.045-0.342c0.032-0.13 0.019-0.266-0.039-0.387-0.038-0.081-0.101-0.147-0.18-0.189-0.211-0.111-0.53-0.070-0.742 0.018-0.138 0.058-0.263 0.141-0.37 0.244-0.217 0.201-0.369 0.462-0.437 0.749-0.017 0.090-0.052 0.176-0.102 0.252s-0.116 0.142-0.191 0.194c-0.297 0.2-0.841 0.188-1.258 0.088-0.726-0.172-1.28-0.574-1.413-1.027-0.065-0.216-0.097-0.442-0.388-0.527-0.188-0.055-0.583-0.017-0.499 0.221 0.030 0.065 0.070 0.125 0.119 0.179 0.077 0.101 0.159 0.292-0.070 0.353-0.074 0.016-0.15 0.019-0.226 0.011-0.736-0.049-1.413-0.294-1.852-0.639-0.143-0.112-0.264-0.249-0.358-0.405-0.052-0.086-0.071-0.178-0.128-0.263-0.054-0.081-0.131-0.145-0.221-0.184-0.282-0.121-0.946-0.058-0.993 0.207-0.025 0.144 0.064 0.299 0.11 0.436 0.008 0.017 0.010 0.037 0.006 0.055-0.013 0.035-0.066 0.045-0.111 0.048-0.593 0.039-1.169-0.191-1.667-0.431-0.527-0.254-1.108-0.585-1.841-0.589-0.152-0.007-0.304 0.010-0.45 0.051-0.037 0.010-0.071 0.028-0.101 0.052-0.018 0.019-0.030 0.042-0.034 0.068s-0.001 0.052 0.010 0.075c0.024 0.049 0.059 0.091 0.103 0.123 0.221 0.18 0.532 0.253 0.816 0.346 0.84 0.272 1.652 0.622 2.425 1.047 0.079 0.044 0.217 0.145 0.107 0.221s-0.333 0.027-0.464 0.006c-0.239-0.039-0.467-0.101-0.699-0.159-0.307-0.077-0.665-0.148-0.998-0.083-0.176 0.034-0.333 0.106-0.415 0.203-0.028 0.028-0.047 0.065-0.053 0.105s0 0.080 0.018 0.116c0.114 0.203 0.635 0.29 0.919 0.387 0.364 0.124 0.72 0.27 1.066 0.438 0.295 0.146 0.57 0.306 0.869 0.449 1.068 0.511 2.561 0.577 3.896 0.627 1.449 0.055 2.904 0.008 4.349-0.072 1.053-0.059 2.087-0.174 3.118-0.31 0.296-0.039 0.591-0.086 0.887-0.127 0.3-0.034 0.596-0.093 0.887-0.175 0.104-0.027 0.201-0.075 0.285-0.143 0.079-0.074 0.104-0.17-0.038-0.197-0.297-0.059-0.603 0.008-0.893 0.061-0.325 0.060-0.648 0.128-0.968 0.206-0.146 0.039-0.294 0.069-0.443 0.090-0.15 0.021-0.304 0.011-0.45-0.029-0.047-0.015-0.1-0.041-0.102-0.083s0.037-0.069 0.078-0.085c0.598-0.237 1.233-0.387 1.873-0.525 0.433-0.094 0.875-0.151 1.313-0.225 0.398-0.067 0.818-0.082 1.163-0.334 0.069-0.044 0.122-0.108 0.153-0.184 0.015-0.039 0.019-0.081 0.010-0.122z"></path>
<path fill="#407bff" style="fill: var(--color2, #407bff)" opacity="0.3" d="M81.174 24.825c-0.162-0.46-0.741-1.276-0.863-0.794-0.065 0.27 0.863 0.794 0.863 0.794z"></path>
<path fill="#407bff" style="fill: var(--color2, #407bff)" opacity="0.3" d="M95.701 25.732c0.309-0.281 0.695-0.449 0.744-0.201 0.047 0.234-0.744 0.201-0.744 0.201z"></path>
<path fill="#407bff" style="fill: var(--color2, #407bff)" opacity="0.3" d="M83.016 23.495c-0.212-0.111-0.377-0.288-0.253-0.362s0.253 0.362 0.253 0.362z"></path>
</symbol>
</defs>
</svg>
