<svg width="1440" height="432" fill="none" xmlns="http://www.w3.org/2000/svg">
    <g clip-path="url(#a)">
        <path fill-rule="evenodd" clip-rule="evenodd" d="m0 144 50 6c50 6 150 18 250 60s200 114 300 150 200 36 300 42 200 18 250 24l50 6H0V144Z" fill="#9EBBFF"/>
        <path opacity=".8" fill-rule="evenodd" clip-rule="evenodd" d="M1440 0h-40c-40 0-120 0-200 22-80 21-160 64-240 64s-160-43-240-7-160 151-240 209-160 58-240 43c-80-14-160-43-200-57L0 259v173h1440V0Z" fill="#ECF2FF"/>
        <g clip-path="url(#b)">
            <path d="M1203 402c80.1 0 145-3.8 145-8.4 0-4.7-64.9-8.5-145-8.5s-145 3.8-145 8.5c0 4.6 64.9 8.4 145 8.4Z" fill="#F5F5F5"/>
            <path opacity=".1" d="M1118.7 334.6a2 2 0 0 1 1-1.7c.5-.4 1.2-.7 1.8-.6 6.5-.1 12.4 4.4 18 9.3 1.2 1 2.6 2.1 4 1 .4-.3.7-.8.8-1.3a5 5 0 0 0 0-2.7c-.2-.7-.5-1.4-1-2-2.4-3.2-5.3-4.7-7.7-8a28.5 28.5 0 0 1-3.3-6c-.8-1.9-2.2-5-1.6-7.5.6-3 2.9-2.7 4.3-2.3 4.4 1.3 8.4 4.4 12.2 8.3 4 4 7.5 9 11 14 1.4 1.9 2.8 3.8 4.5 4.5 1.8.6 4-.5 4.7-3.2.7-2.7-.2-5.8-.3-8.4a39 39 0 0 1 .4-9.6 13 13 0 0 1 1.7-4.8c2-2.8 4.8-1.8 6.7.3 1.4 1.8 2.5 3.8 3.2 6a69 69 0 0 1 3.8 18.5c.2 4 .8 8 2.4 11 2.7 5 7.5 4.6 11.3 2 6.6-4.5 11.7-14.6 13-25.9.5-3.7.6-7.7 2-10.8 1-2.6 4.1-4.4 5.6-1.6a8 8 0 0 1 .5 4.6l-1.2 4.5c-.7 2.5-1.5 7.3.6 8.8a2.4 2.4 0 0 0 2 .2c6.6-1.4 12.8-7.6 16.8-16.3 1.4-3.2 2.6-6.6 3.3-10.1.5-2.2.7-4.4 1.3-6.6a12 12 0 0 1 2-4.6c2.6-3 8.5-1.6 8.8 5 .3 3.8-.8 7.5-1.1 11.3-.3 2.3 1.2 2.3 2.3 2.2 5.1-.5 9.7-5.7 13.7-11.1 4.8-6.5 10.2-14.8 16.7-15 1.5 0 4 .1 5 2.4.3 1.4.3 3 0 4.3-1.4 5.5-5.3 8.4-8.3 11.1a139.4 139.4 0 0 0-22.1 26.5c-1 1.5-2 4-1 5.4a1.6 1.6 0 0 0 1.7.8c3-.3 6-2.7 8.8-4.7 2.8-2 6-3.8 9-2.3a8 8 0 0 1 3.6 5c.5 1.8.6 3.7.3 5.5-1.1 5-5.8 7.4-8.4 9.9a86.7 86.7 0 0 0-9.7 11c-2.7 3.7-5.3 7.8-8 11.4-9.7 13-23.1 14.8-35.1 16.3a153 153 0 0 1-76.3-11.9c-3.4-1.6-8.3-2.6-9.5-8.8-.3-1.3 0-2.4 1-3 2.7-1.5 6.6.6 9.2 2 3.6 2 7 4.6 10.7 6.1a4.9 4.9 0 0 0 3.8.2 3 3 0 0 0 1.4-1.3c.4-.7.5-1.6.3-2.4a3 3 0 0 0-.8-1.2 71.1 71.1 0 0 0-23.3-15.8c-2.8-1.2-5.6-2.2-8.3-4-2.2-1.3-4-3-5.6-5.2-1.2-2-3.2-5.5-2.6-8.7Zm143.1-54.9a3.3 3.3 0 0 1-4 .7 3.3 3.3 0 0 1-1.6-3.6c2.5-12.5 8.1-21.6 14.8-17 5 3.6-2.8 13.3-9.2 20Z" fill="#407BFF"/>
            <path opacity=".3" d="M1243.7 285.6a14 14 0 0 0 7.2-11.2l5-61.5a22.6 22.6 0 0 0-6-17.3l-15.6-16.7a9.1 9.1 0 0 1-2.4-6.9l.8-9-40.3-3.3-.8 9a9.2 9.2 0 0 1-3.5 6.4l-18 14a22.8 22.8 0 0 0-8.9 16.1l-5 61.4a14 14 0 0 0 5.3 12.2 14 14 0 0 0-7.3 11.2l-6.4 78.4a14 14 0 0 0 12.9 15.2l66.6 5.4a14.2 14.2 0 0 0 15.2-12.9l6.5-78.3a14 14 0 0 0-5.3-12.2Z" fill="#407BFF"/>
            <path opacity=".3" d="m1192.4 159.7-.6 7 40.3 3.3.6-7-40.3-3.3Z" fill="#407BFF"/>
            <path opacity=".3" d="m1249.5 197.2-15.5-16.7s-10 .4-2.3 12.7c6.7 10.4 18.3 8.8 17.8 4Z" fill="#fff"/>
            <path opacity=".2" d="M1147.8 368.3a14 14 0 0 0 12.9 15.2l66.6 5.5a14.2 14.2 0 0 0 15.2-12.9l-94.7-7.8Z" fill="#407BFF"/>
            <path opacity=".3" d="M1246.6 198.6a18.3 18.3 0 0 1 4.9 14l-5 61.4a9.6 9.6 0 0 1-5 7.6l-5.9 3.3 5.3 4.2a9.6 9.6 0 0 1 3.6 8.3l-6.4 78.3a9.6 9.6 0 0 1-10.4 8.8l-66.6-5.4a9.7 9.7 0 0 1-8.8-10.4l6.4-78.3a9.6 9.6 0 0 1 5-7.7l5.8-3.2-5.2-4.2a9.6 9.6 0 0 1-3.6-8.3l5-61.4a18.3 18.3 0 0 1 7.1-13c6-3.9 21.7 5.7 40.1 7.2 18.4 1.5 29.9-3.1 33.7-1.2Z" fill="#407BFF"/>
            <path opacity=".2" d="M1212.9 199.8c-18.4-1.5-34.2-11-40.1-7.2a95.1 95.1 0 0 0 39.8 10.7c17.3 1.4 34-4.7 34-4.7-3.8-2-15.4 2.7-33.7 1.2Zm-56.7 66.8a14.2 14.2 0 0 0 5.3 12.2l82.2 6.8a14 14 0 0 0 7.2-11.2l-94.8-7.8Z" fill="#407BFF"/>
            <path d="m1233.5 152-40.2-3.3a3 3 0 0 0-3.3 2.8l-.8 9.8a3 3 0 0 0 2.8 3.3l40.2 3.3a3 3 0 0 0 3.3-2.8l.8-9.8a3 3 0 0 0-2.8-3.3Z" fill="#407BFF"/>
            <path opacity=".2" d="M1194 163h-.2v-.4l.9-11.8.1-.3h.5l.1.3-1 11.8v.3h-.3Zm7.4.7a.4.4 0 0 1-.3-.2v-.2l.9-11.8.1-.3h.6v.4l-1 11.8v.3h-.3Zm7.3.6h-.2l-.1-.1v-.2l-.1-.1 1-11.8.1-.3h.5l.1.2v.2l-1 11.7v.3a.4.4 0 0 1-.3 0Zm7.3.6h-.2l-.1-.2v-.1l-.1-.1 1-11.8.1-.3h.5l.1.2v.1l-1 11.8v.2a.4.4 0 0 1-.4.2Zm7.2.6h-.1l-.2-.2v-.2l1-11.8v-.3h.3a.4.4 0 0 1 .3 0v.3l-.9 11.8v.2h-.1a.4.4 0 0 1-.3.2Zm7.3.5h-.2l-.1-.2v-.2l1-11.8v-.2l.3-.1.3.1v.3l-1 11.8a.4.4 0 0 1-.3.4Z" fill="#fff"/>
            <path opacity=".2" d="M1168.6 246.1c-1.1-6.3-10.3-5.8-10.8.5l-1.7 20a14.2 14.2 0 0 0 5.3 12.2 14 14 0 0 0-7.2 11.2l-6.5 78.4a14 14 0 0 0 13 15.2l17.2 1.4a12.4 12.4 0 0 0 13.2-14.6l-22.5-124.3Z" fill="#407BFF"/>
            <path opacity=".3" d="M1234.8 348.7a7.3 7.3 0 0 1-12.9 4.1 7.4 7.4 0 0 1-1-8 7.3 7.3 0 0 1 13.9 3.9Zm-23.3-28.3a5.1 5.1 0 0 1-3.5 4.5 5.2 5.2 0 0 1-4.1-9.4 5.2 5.2 0 0 1 6.4 1.2c1 1 1.3 2.4 1.2 3.7Zm-21.6-62.8a5.2 5.2 0 0 1-5-3c-.4-1-.5-2-.4-3a5.2 5.2 0 0 1 3.9-4.2 5.2 5.2 0 0 1 5 8.5 5.1 5.1 0 0 1-3.5 1.7Zm14.1-30.9a3.7 3.7 0 0 1-3.5-2.1 3.6 3.6 0 0 1 .6-4 3.7 3.7 0 0 1 4-1 3.7 3.7 0 0 1 2.4 3.3 3.7 3.7 0 0 1-3.5 3.8Zm22.7 71.4c0 .4-.2.8-.4 1.2a2.1 2.1 0 1 1 .4-1.2Z" fill="#407BFF"/>
            <path opacity=".7" d="M1188 356.5h-.4a4.3 4.3 0 0 1-4-4.6 4.3 4.3 0 0 1 3-3.8 4.4 4.4 0 0 1 5.6 3.4 4.4 4.4 0 0 1-1.9 4.3 4 4 0 0 1-2.4.7Zm0-8a3.7 3.7 0 1 0 .3 0h-.3Zm46.2-79.3h-.2a3.2 3.2 0 0 1-3-3.4 3.1 3.1 0 0 1 3.5-2.9 3.1 3.1 0 0 1 1.8 5.6c-.6.4-1.3.7-2 .7Zm-2.5-3.4a2.6 2.6 0 0 0 1.4 2.5 2.6 2.6 0 0 0 3.4-1 2.5 2.5 0 0 0-1.1-3.5c-.3-.2-.6-.3-1-.3a2.6 2.6 0 0 0-1.9.6l-.6.8c-.2.3-.3.6-.3 1ZM1186 203h-.2c-.4 0-.8-.2-1-.5a1.5 1.5 0 0 1 0-1.8c.1-.3.4-.4.6-.5a1.5 1.5 0 0 1 1.6.3c.2.2.4.5.4.8v.8l-.6.7c-.3.2-.6.2-.8.2Zm-1-1.5.1.5.4.4h.5a1 1 0 0 0 .8-.6v-.5a1 1 0 0 0-1.5-.4l-.2.3-.1.3Zm34 40.2h-.3a3.8 3.8 0 0 1-3.5-4 3.7 3.7 0 0 1 2.6-3.3 3.8 3.8 0 0 1 4.9 3 3.7 3.7 0 0 1-3.7 4.3Zm0-7c-.8 0-1.5.3-2 .8a3.2 3.2 0 0 0 0 4.9 3.3 3.3 0 0 0 3 .5 3.2 3.2 0 0 0 2.1-3.7 3.2 3.2 0 0 0-2.8-2.5h-.3Z" fill="#fff"/>
            <path opacity=".3" d="m1249.7 274.3 4.8-58.6-.1-1.1a2.8 2.8 0 0 0-2.5-2 2.9 2.9 0 0 0-2.8 1.6 2 2 0 0 0-.3 1l-4.8 58.6a11.6 11.6 0 0 1-6.1 9.4l-3 1.7 2.7 2a11.8 11.8 0 0 1 4.5 10.3l-6.5 78.4c-.4 4.7-3.4 7-7.5 8.8-.3 0-.5.3-.6.5a1.3 1.3 0 0 0 .2 1.6l.8.4a12 12 0 0 0 12.8-10.9l6.5-78.3a11.8 11.8 0 0 0-4.5-10.3l-2.7-2 3-1.7a11.8 11.8 0 0 0 6-9.4Z" fill="#fff"/>
            <path opacity=".3" d="M1327.3 365.4c-.8-3.7-10.9-1.5-13-1.2-4 .7-8 1.9-11.8 3.4-4.2 1.7-9.1 4-13.5 1.6-2.5-1.5 6.3-4.3 7-4.6 3.8-1.3 7.3-3 10.8-5 1.4-.8 4-2.7 2.9-4.7-1-1.7-4.4-1.5-6.5-1.2-6.3.7-12.5 2.3-18.5 4.6-5.7 2.3-11.4 4.8-17 7.7-2 1.2-4.4 2-6.8 2.5-2.6.4-5.9-.2-6.9-1.7-1-1.4.3-3.1.6-4.6.5-1.7.3-3.6-.5-5.2a6 6 0 0 0-2.4-2.6c-2.9-1.4-7.2-.9-10 .3a20.1 20.1 0 0 0-10.9 13.4 9.4 9.4 0 0 1-4 6c-4 2.7-11.4 2.5-17 1.2-9.8-2.3-17.3-7.7-19-13.9-1-2.9-1.4-6-5.3-7-2.5-.8-7.9-.3-6.7 2.9.4.9 1 1.7 1.6 2.4 1 1.4 2.1 4-1 4.8a46.6 46.6 0 0 1-28-8.5 20 20 0 0 1-4.9-5.5c-.7-1.1-1-2.4-1.7-3.5s-1.8-2-3-2.5c-3.8-1.6-12.8-.8-13.4 2.8-.3 2 .9 4 1.5 5.9v.7c0 .5-.8.6-1.4.7-8 .5-15.8-2.6-22.5-5.8-7.1-3.5-15-8-24.9-8-2 0-4 .2-6 .7-.5.1-1 .4-1.4.7a1.8 1.8 0 0 0-.3 2c.3.6.8 1.2 1.4 1.6 3 2.4 7.1 3.4 11 4.7a188 188 0 0 1 32.7 14.1c1 .6 3 2 1.5 3s-4.5.4-6.3 0c-3.2-.5-6.3-1.3-9.4-2-4.2-1.1-9-2-13.5-1.2a10 10 0 0 0-5.6 2.7 2.6 2.6 0 0 0-.5 3c1.5 2.8 8.6 4 12.4 5.2 5 1.7 9.7 3.7 14.4 6l11.7 6c14.5 7 34.6 7.8 52.6 8.5a628.8 628.8 0 0 0 100.8-5.2l12-1.7c4-.4 8-1.2 12-2.4a9 9 0 0 0 3.8-1.9c1-1 1.4-2.3-.5-2.6-4-.8-8.1 0-12 .8-4.4.8-8.8 1.7-13.1 2.8l-6 1.2c-2 .3-4.1.1-6-.4-.7-.2-1.4-.6-1.5-1.1 0-.6.5-1 1.1-1.2 8-3.2 16.6-5.2 25.3-7 5.8-1.3 11.8-2.1 17.7-3.1 5.4-.9 11-1.1 15.7-4.5 1-.6 1.7-1.5 2-2.5a3 3 0 0 0 .2-1.6Zm-231.5-30.3c-2.1-6.2-10-17.2-11.6-10.7-.9 3.7 11.6 10.7 11.6 10.7Zm196.2 12.3c4.1-3.8 9.3-6 10-2.7.6 3.1-10 2.7-10 2.7Zm-171.3-30.2c-2.8-1.5-5-4-3.4-5 1.7-1 3.4 5 3.4 5Z" fill="#407BFF"/>
        </g>
    </g>
    <defs>
        <clipPath id="a">
            <path fill="#fff" d="M0 0h1440v432H0z"/>
        </clipPath>
        <clipPath id="b">
            <path fill="#fff" transform="translate(1016 124)" d="M0 0h374v278H0z"/>
        </clipPath>
    </defs>
</svg>
