<svg width="1404" height="582" fill="none" xmlns="http://www.w3.org/2000/svg">
    <g clip-path="url(#a)">
        <path d="M1341 15.1a13.9 13.9 0 0 1-9.7 12.2 14 14 0 1 1 9.7-12.2Zm-739 19a14 14 0 1 1-28-2.3 14 14 0 0 1 28 2.3ZM66 128.7a9 9 0 1 1-18-1.4 9 9 0 0 1 18 1.4Z" fill="#ECF2FF"/>
        <path d="M103 334.1a14 14 0 1 1-28-2.3 14 14 0 0 1 28 2.3Zm637 188a14 14 0 1 1-28-2.3 14 14 0 0 1 28 2.3Zm629-13a13.9 13.9 0 0 1-9.7 12.2 14 14 0 1 1 9.7-12.2Z" fill="#C6D7FF"/>
        <path opacity=".7" d="M714.2 120.8h-1.6a19 19 0 0 1-16.7-13 18.8 18.8 0 0 1 3.1-17.5 19 19 0 1 1 15 30.7l.2-.2Zm0-35.5a16.4 16.4 0 1 0 1.4 0h-1.4Zm-504 81.6h-1.3a15 15 0 0 1-13.2-10.3 14.9 14.9 0 0 1 2.5-13.8A15 15 0 1 1 210 167l.2-.1Zm0-28.1a13 13 0 1 0 1 0h-1Z" fill="#9EBBFF"/>
        <path opacity=".7" d="M19.2 581.8h-1.6a19 19 0 0 1-16.7-13A18.8 18.8 0 0 1 4 551.3 19 19 0 1 1 19 582l.2-.2Zm0-35.5a16.4 16.4 0 1 0 1.4 0h-1.4Zm651.1-193.5h-2.1a25 25 0 0 1-22-17.2 24.8 24.8 0 0 1 4-23A25 25 0 1 1 670 353l.3-.2Zm0-46.8a21.6 21.6 0 1 0 1.8 0h-1.8Z" fill="#C6D7FF"/>
        <path opacity=".7" d="M1382.2 348.8h-1.8a22 22 0 0 1-19.4-15 21.8 21.8 0 0 1 3.7-20.3A22 22 0 1 1 1382 349l.2-.2Zm0-41.2a19 19 0 1 0 1.6.1h-1.6Z" fill="#9EBBFF"/>
    </g>
    <defs>
        <clipPath id="a">
            <path fill="#fff" d="M0 0h1404v582H0z"/>
        </clipPath>
    </defs>
</svg>
