<svg aria-hidden="true" style="position: absolute; width: 0; height: 0; overflow: hidden;" version="1.1" xmlns="http://www.w3.org/2000/svg" xmlns:xlink="http://www.w3.org/1999/xlink">
<defs>
<symbol id="icon-Background-element-Home-screen" viewBox="0 0 8 32">
<path fill="#c6d7ff" style="fill: var(--color1, #c6d7ff)" opacity="0.7" d="M7.289 1.192h-0.050c-0.080-0.005-0.157-0.027-0.229-0.062s-0.135-0.085-0.187-0.145c-0.051-0.060-0.090-0.129-0.114-0.204s-0.033-0.154-0.026-0.232c0.010-0.116 0.053-0.226 0.125-0.318s0.169-0.161 0.28-0.199c0.111-0.038 0.23-0.043 0.343-0.014s0.216 0.089 0.295 0.175c0.079 0.086 0.132 0.192 0.151 0.307s0.005 0.232-0.042 0.339c-0.047 0.107-0.124 0.197-0.222 0.261s-0.212 0.098-0.329 0.098l0.005-0.005zM7.289 0.071c-0.118 0.001-0.233 0.041-0.325 0.115s-0.156 0.177-0.181 0.292c-0.025 0.115-0.010 0.235 0.043 0.34s0.14 0.19 0.247 0.239c0.107 0.049 0.229 0.061 0.343 0.033s0.217-0.095 0.288-0.188c0.072-0.094 0.109-0.209 0.107-0.326s-0.046-0.231-0.122-0.321c-0.044-0.052-0.099-0.095-0.16-0.127s-0.128-0.050-0.197-0.055l-0.044-0.002z"></path>
<path fill="#c6d7ff" style="fill: var(--color1, #c6d7ff)" d="M6.969 9.854c-0.005 0.057-0.026 0.111-0.062 0.155s-0.084 0.078-0.138 0.095c-0.054 0.017-0.113 0.018-0.168 0.003s-0.104-0.047-0.141-0.090c-0.037-0.043-0.060-0.097-0.067-0.153s0.004-0.114 0.030-0.164c0.026-0.051 0.067-0.092 0.117-0.12s0.107-0.040 0.164-0.035c0.076 0.006 0.147 0.042 0.197 0.101s0.074 0.133 0.068 0.209z"></path>
<path fill="#ecf2ff" style="fill: var(--color2, #ecf2ff)" d="M0.887 1.806c-0.005 0.057-0.026 0.111-0.062 0.155s-0.084 0.078-0.138 0.095c-0.054 0.017-0.113 0.018-0.168 0.003s-0.104-0.047-0.141-0.090c-0.037-0.043-0.060-0.097-0.067-0.153s0.004-0.114 0.030-0.164c0.026-0.051 0.067-0.092 0.117-0.12s0.107-0.040 0.164-0.035c0.076 0.006 0.147 0.042 0.197 0.101s0.074 0.133 0.068 0.209z"></path>
<path fill="#ecf2ff" style="fill: var(--color2, #ecf2ff)" d="M5.498 4.806c-0.003 0.038-0.017 0.074-0.041 0.103s-0.056 0.052-0.092 0.063c-0.036 0.012-0.075 0.012-0.112 0.002s-0.069-0.031-0.094-0.060c-0.025-0.029-0.040-0.064-0.045-0.102s0.003-0.076 0.020-0.109c0.017-0.034 0.045-0.062 0.078-0.080s0.071-0.027 0.109-0.024c0.051 0.004 0.098 0.028 0.131 0.067s0.049 0.089 0.045 0.14z"></path>
<path fill="#c6d7ff" style="fill: var(--color1, #c6d7ff)" opacity="0.7" d="M1.276 15.479h-0.032c-0.051-0.004-0.101-0.017-0.146-0.040s-0.086-0.054-0.12-0.093c-0.033-0.038-0.058-0.083-0.073-0.131s-0.021-0.098-0.017-0.149c0.006-0.074 0.034-0.145 0.080-0.204s0.108-0.103 0.179-0.127c0.071-0.024 0.147-0.027 0.22-0.009s0.138 0.057 0.189 0.112c0.051 0.055 0.084 0.123 0.097 0.196s0.003 0.149-0.027 0.217c-0.030 0.068-0.079 0.126-0.142 0.167s-0.136 0.063-0.211 0.063l0.003-0.003zM1.276 14.762c-0.076 0-0.149 0.026-0.208 0.074s-0.1 0.113-0.116 0.187c-0.016 0.074-0.006 0.15 0.027 0.218s0.090 0.121 0.158 0.153c0.069 0.032 0.146 0.039 0.22 0.021s0.139-0.061 0.185-0.12c0.046-0.060 0.070-0.133 0.068-0.209s-0.029-0.148-0.078-0.205c-0.028-0.034-0.063-0.061-0.102-0.081s-0.082-0.032-0.126-0.036l-0.028-0.001z"></path>
<path fill="#c6d7ff" style="fill: var(--color1, #c6d7ff)" d="M7.484 22.002c-0.005 0.057-0.026 0.111-0.062 0.155s-0.084 0.078-0.138 0.095c-0.054 0.017-0.113 0.018-0.168 0.003s-0.104-0.047-0.141-0.090c-0.037-0.043-0.060-0.097-0.067-0.153s0.004-0.114 0.030-0.164c0.026-0.051 0.067-0.092 0.117-0.12s0.107-0.040 0.164-0.035c0.076 0.006 0.147 0.042 0.197 0.101s0.074 0.133 0.068 0.209z"></path>
<path fill="#9ebbff" style="fill: var(--color3, #9ebbff)" opacity="0.7" d="M0.463 26.391h-0.038c-0.061-0.004-0.12-0.020-0.174-0.047s-0.103-0.064-0.142-0.11c-0.039-0.045-0.069-0.098-0.087-0.155s-0.025-0.117-0.020-0.176c0.007-0.088 0.040-0.172 0.095-0.242s0.128-0.122 0.212-0.151 0.175-0.032 0.261-0.011c0.086 0.022 0.164 0.068 0.224 0.133s0.1 0.146 0.115 0.233 0.004 0.177-0.032 0.258c-0.036 0.081-0.094 0.15-0.168 0.198s-0.161 0.074-0.25 0.074l0.004-0.004zM0.463 25.539c-0.090 0-0.177 0.031-0.247 0.088s-0.118 0.134-0.137 0.222c-0.019 0.087-0.008 0.179 0.032 0.259s0.106 0.144 0.188 0.181c0.082 0.038 0.174 0.046 0.261 0.025s0.165-0.072 0.219-0.143c0.055-0.071 0.083-0.159 0.081-0.248s-0.035-0.175-0.093-0.244c-0.034-0.040-0.075-0.073-0.122-0.096s-0.097-0.038-0.15-0.042l-0.033-0.001z"></path>
<path fill="#c6d7ff" style="fill: var(--color1, #c6d7ff)" d="M3.945 31.264c-0.005 0.061-0.028 0.12-0.067 0.168s-0.091 0.084-0.15 0.103c-0.059 0.019-0.122 0.020-0.182 0.003s-0.113-0.051-0.153-0.098-0.065-0.105-0.072-0.166c-0.007-0.061 0.004-0.123 0.033-0.178s0.072-0.1 0.126-0.13c0.054-0.030 0.116-0.043 0.178-0.038 0.083 0.007 0.159 0.046 0.213 0.109s0.080 0.145 0.073 0.227z"></path>
<path fill="#9ebbff" style="fill: var(--color3, #9ebbff)" opacity="0.7" d="M6.678 30.426h-0.032c-0.051-0.004-0.101-0.017-0.146-0.040s-0.086-0.054-0.12-0.093c-0.033-0.038-0.058-0.083-0.073-0.131s-0.021-0.099-0.017-0.149c0.006-0.074 0.034-0.145 0.080-0.204s0.108-0.103 0.179-0.127c0.071-0.024 0.147-0.027 0.22-0.009s0.138 0.057 0.189 0.112c0.051 0.055 0.084 0.123 0.097 0.196s0.003 0.149-0.027 0.217-0.079 0.126-0.142 0.167c-0.063 0.041-0.136 0.063-0.211 0.063l0.003-0.003zM6.678 29.708c-0.076 0-0.149 0.026-0.208 0.074s-0.1 0.113-0.116 0.187c-0.016 0.073-0.006 0.15 0.027 0.218s0.090 0.121 0.158 0.153 0.146 0.039 0.22 0.021c0.074-0.018 0.139-0.061 0.185-0.12s0.070-0.134 0.068-0.209c-0.002-0.075-0.029-0.148-0.078-0.205-0.028-0.034-0.063-0.061-0.102-0.081s-0.082-0.032-0.126-0.036l-0.028-0.001z"></path>
</symbol>
<symbol id="icon-Bottle-home-screen" viewBox="0 0 43 32">
<path fill="#f5f5f5" style="fill: var(--color4, #f5f5f5)" d="M21.538 32c9.226 0 16.704-0.435 16.704-0.972s-7.479-0.972-16.704-0.972c-9.226 0-16.704 0.435-16.704 0.972s7.479 0.972 16.704 0.972z"></path>
<path fill="#407bff" style="fill: var(--color5, #407bff)" opacity="0.1" d="M11.829 24.241c0.010-0.077 0.050-0.148 0.111-0.197s0.138-0.073 0.216-0.067c0.737-0.011 1.428 0.508 2.068 1.066 0.142 0.123 0.296 0.25 0.456 0.121 0.049-0.041 0.085-0.095 0.103-0.156 0.028-0.1 0.028-0.206 0-0.306-0.024-0.083-0.063-0.16-0.116-0.228-0.278-0.365-0.617-0.54-0.892-0.917-0.154-0.216-0.281-0.45-0.38-0.696-0.086-0.216-0.258-0.566-0.19-0.859 0.077-0.35 0.339-0.32 0.499-0.272 0.504 0.15 0.974 0.508 1.402 0.954 0.456 0.474 0.868 1.045 1.279 1.613 0.155 0.216 0.319 0.437 0.517 0.515s0.449-0.048 0.532-0.359c0.084-0.311-0.015-0.668-0.035-0.977-0.028-0.369-0.010-0.74 0.054-1.104 0.028-0.193 0.093-0.378 0.192-0.546 0.222-0.325 0.551-0.21 0.767 0.035 0.164 0.206 0.292 0.438 0.376 0.687 0.242 0.688 0.387 1.406 0.431 2.134 0.033 0.451 0.102 0.921 0.288 1.27 0.301 0.565 0.862 0.52 1.297 0.224 0.757-0.515 1.342-1.68 1.497-2.982 0.051-0.424 0.064-0.883 0.219-1.238 0.135-0.308 0.482-0.515 0.652-0.184 0.068 0.166 0.088 0.348 0.055 0.524-0.030 0.175-0.073 0.347-0.128 0.515-0.086 0.292-0.172 0.839 0.060 1.010 0.035 0.021 0.074 0.034 0.114 0.039s0.081 0 0.12-0.013c0.762-0.158 1.47-0.873 1.935-1.87 0.169-0.375 0.297-0.767 0.384-1.169 0.056-0.246 0.079-0.509 0.141-0.753 0.040-0.192 0.12-0.373 0.236-0.532 0.296-0.354 0.98-0.187 1.019 0.571 0.023 0.439-0.094 0.868-0.137 1.298-0.027 0.268 0.14 0.266 0.264 0.258 0.594-0.060 1.12-0.658 1.586-1.28 0.554-0.739 1.167-1.7 1.924-1.728 0.172-0.006 0.459 0.016 0.563 0.282 0.048 0.163 0.048 0.336 0 0.498-0.153 0.634-0.603 0.961-0.948 1.274-0.972 0.908-1.826 1.934-2.544 3.052-0.109 0.172-0.222 0.455-0.118 0.624 0.020 0.032 0.049 0.057 0.084 0.073s0.073 0.020 0.11 0.013c0.356-0.027 0.689-0.309 1.014-0.543s0.694-0.438 1.034-0.262c0.105 0.063 0.196 0.146 0.269 0.244s0.125 0.21 0.154 0.328c0.061 0.208 0.071 0.427 0.028 0.639-0.125 0.583-0.665 0.845-0.962 1.133-0.409 0.394-0.784 0.821-1.12 1.279-0.31 0.423-0.603 0.887-0.913 1.303-1.12 1.488-2.671 1.709-4.049 1.882-1.5 0.187-3.003 0.086-4.495-0.111-1.085-0.144-2.154-0.452-3.213-0.817-0.364-0.131-0.725-0.275-1.081-0.445-0.383-0.182-0.948-0.294-1.095-1.012-0.031-0.154 0.005-0.28 0.108-0.337 0.318-0.18 0.771 0.061 1.070 0.22 0.413 0.22 0.804 0.533 1.228 0.702 0.068 0.033 0.142 0.053 0.218 0.057s0.152-0.007 0.223-0.033c0.070-0.029 0.128-0.082 0.163-0.149 0.045-0.087 0.056-0.188 0.031-0.283-0.017-0.051-0.047-0.097-0.086-0.135-0.763-0.78-1.675-1.399-2.681-1.822-0.323-0.138-0.653-0.252-0.964-0.447-0.251-0.155-0.468-0.36-0.638-0.601-0.145-0.231-0.377-0.639-0.304-1.007z"></path>
<path fill="#407bff" style="fill: var(--color5, #407bff)" opacity="0.1" d="M28.308 17.928c-0.058 0.060-0.133 0.099-0.215 0.112s-0.166-0.001-0.239-0.040-0.132-0.1-0.167-0.175c-0.035-0.075-0.044-0.159-0.027-0.24 0.297-1.438 0.943-2.484 1.712-1.942 0.574 0.404-0.326 1.52-1.064 2.285z"></path>
<path fill="#407bff" style="fill: var(--color5, #407bff)" opacity="0.3" d="M26.223 18.599c0.235-0.129 0.434-0.315 0.58-0.54s0.233-0.482 0.255-0.749l0.582-7.072c0.030-0.364-0.016-0.729-0.136-1.074s-0.311-0.66-0.561-0.927l-1.795-1.916c-0.099-0.106-0.174-0.231-0.222-0.368s-0.066-0.282-0.055-0.426l0.086-1.036-4.645-0.38-0.086 1.036c-0.012 0.144-0.054 0.284-0.123 0.411s-0.164 0.238-0.279 0.327l-2.085 1.6c-0.29 0.223-0.53 0.503-0.705 0.824s-0.28 0.674-0.31 1.037l-0.583 7.072c-0.022 0.266 0.022 0.534 0.129 0.779s0.273 0.46 0.483 0.626c-0.235 0.129-0.434 0.315-0.58 0.539s-0.233 0.482-0.254 0.749l-0.743 9.018c-0.035 0.429 0.102 0.854 0.381 1.182s0.677 0.532 1.108 0.568l7.668 0.628c0.213 0.018 0.427-0.007 0.631-0.072s0.392-0.169 0.555-0.307c0.163-0.138 0.297-0.306 0.395-0.496s0.157-0.396 0.174-0.608l0.744-9.018c0.023-0.266-0.021-0.534-0.127-0.78s-0.272-0.461-0.482-0.627z"></path>
<path fill="#407bff" style="fill: var(--color5, #407bff)" opacity="0.3" d="M20.315 4.114l-0.066 0.799 4.644 0.381 0.066-0.799-4.644-0.381z"></path>
<path fill="#fff" style="fill: var(--color6, #fff)" opacity="0.3" d="M26.9 8.422l-1.795-1.918c0 0-1.157 0.050-0.258 1.464 0.766 1.196 2.1 1.010 2.053 0.453z"></path>
<path fill="#407bff" style="fill: var(--color5, #407bff)" opacity="0.2" d="M15.178 28.126c-0.035 0.429 0.102 0.854 0.381 1.182s0.678 0.532 1.108 0.568l7.668 0.628c0.213 0.018 0.427-0.007 0.631-0.072s0.392-0.169 0.555-0.307c0.163-0.138 0.297-0.306 0.395-0.496s0.157-0.396 0.174-0.608l-10.911-0.894z"></path>
<path fill="#407bff" style="fill: var(--color5, #407bff)" opacity="0.3" d="M26.565 8.588c0.2 0.214 0.354 0.468 0.45 0.745s0.134 0.57 0.11 0.862l-0.582 7.073c-0.015 0.182-0.075 0.357-0.175 0.51s-0.236 0.279-0.396 0.367l-0.678 0.374 0.607 0.48c0.144 0.113 0.257 0.26 0.33 0.427s0.103 0.35 0.088 0.532l-0.744 9.018c-0.024 0.292-0.163 0.563-0.387 0.753s-0.514 0.284-0.808 0.26l-7.668-0.628c-0.146-0.011-0.288-0.051-0.418-0.118s-0.246-0.157-0.341-0.268-0.167-0.239-0.212-0.378c-0.045-0.138-0.062-0.284-0.051-0.43l0.744-9.018c0.015-0.182 0.075-0.357 0.174-0.511s0.235-0.28 0.395-0.368l0.678-0.374-0.603-0.48c-0.144-0.113-0.257-0.26-0.33-0.427s-0.103-0.35-0.088-0.532l0.583-7.072c0.024-0.292 0.109-0.576 0.25-0.833s0.333-0.483 0.566-0.661c0.689-0.444 2.498 0.661 4.617 0.835s3.444-0.362 3.886-0.14z"></path>
<path fill="#407bff" style="fill: var(--color5, #407bff)" opacity="0.2" d="M22.674 8.729c-2.118-0.172-3.929-1.28-4.618-0.836 1.206 0.661 2.585 1.071 4.584 1.235s3.924-0.54 3.924-0.54c-0.443-0.222-1.773 0.315-3.891 0.141z"></path>
<path fill="#407bff" style="fill: var(--color5, #407bff)" opacity="0.2" d="M16.143 16.419c-0.022 0.266 0.022 0.534 0.129 0.779s0.273 0.46 0.483 0.626l9.467 0.773c0.235-0.129 0.434-0.315 0.58-0.539s0.233-0.482 0.255-0.749l-10.915-0.89z"></path>
<path fill="#407bff" style="fill: var(--color5, #407bff)" d="M25.055 3.228l-4.63-0.381c-0.194-0.016-0.364 0.128-0.38 0.321l-0.092 1.123c-0.016 0.193 0.128 0.363 0.322 0.379l4.631 0.381c0.194 0.016 0.364-0.128 0.38-0.321l0.092-1.123c0.016-0.193-0.128-0.363-0.322-0.379z"></path>
<path fill="#fff" style="fill: var(--color6, #fff)" opacity="0.2" d="M20.51 4.497c-0.006-0-0.011-0.002-0.016-0.005s-0.010-0.006-0.013-0.010c-0.004-0.004-0.007-0.009-0.008-0.015s-0.002-0.011-0.002-0.017l0.108-1.359c0.001-0.011 0.006-0.022 0.015-0.029s0.020-0.011 0.032-0.010c0.011 0.001 0.022 0.006 0.029 0.015s0.011 0.020 0.010 0.031l-0.112 1.358c-0.001 0.011-0.005 0.021-0.013 0.029s-0.019 0.012-0.030 0.012z"></path>
<path fill="#fff" style="fill: var(--color6, #fff)" opacity="0.2" d="M21.35 4.565c-0.006-0-0.011-0.002-0.016-0.005s-0.010-0.006-0.013-0.010c-0.004-0.004-0.006-0.009-0.008-0.015s-0.002-0.011-0.002-0.017l0.112-1.358c0.001-0.011 0.006-0.022 0.015-0.029s0.020-0.011 0.031-0.010c0.006 0 0.011 0.002 0.016 0.005s0.009 0.006 0.013 0.010c0.004 0.004 0.006 0.009 0.008 0.015s0.002 0.011 0.002 0.017l-0.115 1.358c-0.001 0.011-0.006 0.021-0.014 0.028s-0.018 0.011-0.029 0.012z"></path>
<path fill="#fff" style="fill: var(--color6, #fff)" opacity="0.2" d="M22.189 4.638c-0.006-0-0.011-0.002-0.016-0.005s-0.010-0.006-0.013-0.010c-0.004-0.004-0.006-0.009-0.008-0.015s-0.002-0.011-0.002-0.017l0.112-1.358c0.001-0.011 0.007-0.022 0.016-0.029s0.020-0.011 0.031-0.011c0.006 0 0.011 0.002 0.016 0.005s0.010 0.006 0.013 0.010c0.004 0.004 0.006 0.009 0.008 0.015s0.002 0.011 0.002 0.017l-0.112 1.358c-0 0.006-0.002 0.011-0.004 0.016s-0.006 0.010-0.010 0.013c-0.004 0.004-0.009 0.006-0.015 0.008s-0.011 0.002-0.017 0.002z"></path>
<path fill="#fff" style="fill: var(--color6, #fff)" opacity="0.2" d="M23.029 4.703c-0.006-0-0.011-0.002-0.016-0.005s-0.010-0.006-0.013-0.010c-0.004-0.004-0.006-0.009-0.008-0.015s-0.002-0.011-0.002-0.017l0.112-1.358c0.001-0.011 0.007-0.022 0.015-0.029s0.020-0.011 0.031-0.010c0.006 0 0.011 0.002 0.016 0.005s0.010 0.006 0.013 0.010c0.004 0.004 0.006 0.009 0.008 0.015s0.002 0.011 0.002 0.017l-0.112 1.358c-0 0.006-0.002 0.011-0.004 0.016s-0.006 0.010-0.010 0.013c-0.004 0.004-0.009 0.006-0.014 0.008s-0.011 0.002-0.017 0.002z"></path>
<path fill="#fff" style="fill: var(--color6, #fff)" opacity="0.2" d="M23.865 4.772c-0.006-0-0.011-0.002-0.016-0.005s-0.010-0.006-0.013-0.010c-0.004-0.004-0.006-0.009-0.008-0.015s-0.002-0.011-0.002-0.017l0.112-1.358c0.002-0.011 0.007-0.021 0.016-0.029s0.020-0.011 0.031-0.011c0.006 0 0.011 0.002 0.016 0.005s0.010 0.006 0.013 0.010c0.004 0.004 0.006 0.009 0.008 0.015s0.002 0.011 0.002 0.017l-0.112 1.358c-0 0.006-0.002 0.011-0.004 0.016s-0.006 0.010-0.010 0.013c-0.004 0.004-0.009 0.006-0.015 0.008s-0.011 0.002-0.017 0.002z"></path>
<path fill="#fff" style="fill: var(--color6, #fff)" opacity="0.2" d="M24.708 4.84c-0.006-0-0.011-0.002-0.016-0.005s-0.010-0.006-0.013-0.010c-0.004-0.004-0.006-0.009-0.008-0.015s-0.002-0.011-0.002-0.017l0.108-1.359c0.001-0.011 0.007-0.022 0.015-0.029s0.020-0.011 0.031-0.010c0.011 0.001 0.022 0.007 0.029 0.015s0.011 0.020 0.010 0.031l-0.111 1.359c-0.001 0.011-0.006 0.021-0.014 0.028s-0.018 0.011-0.029 0.012z"></path>
<path fill="#407bff" style="fill: var(--color5, #407bff)" opacity="0.2" d="M17.575 14.056c-0.131-0.722-1.186-0.671-1.247 0.060l-0.19 2.302c-0.022 0.266 0.022 0.534 0.129 0.779s0.273 0.46 0.483 0.626c-0.235 0.129-0.434 0.315-0.58 0.539s-0.233 0.482-0.254 0.749l-0.743 9.018c-0.035 0.429 0.102 0.854 0.381 1.182s0.677 0.532 1.107 0.568l1.982 0.162c0.218 0.018 0.438-0.015 0.642-0.095s0.386-0.206 0.534-0.368 0.255-0.355 0.316-0.565c0.060-0.21 0.072-0.431 0.033-0.646l-2.592-14.312z"></path>
<path fill="#407bff" style="fill: var(--color5, #407bff)" opacity="0.3" d="M25.2 25.864c-0.014 0.166-0.076 0.323-0.18 0.453s-0.244 0.227-0.402 0.277-0.329 0.054-0.489 0.008c-0.16-0.046-0.303-0.138-0.411-0.264s-0.176-0.282-0.194-0.447c-0.019-0.165 0.011-0.332 0.088-0.48s0.194-0.27 0.34-0.35c0.146-0.081 0.312-0.116 0.478-0.103 0.223 0.018 0.429 0.124 0.574 0.294s0.216 0.39 0.198 0.612z"></path>
<path fill="#407bff" style="fill: var(--color5, #407bff)" opacity="0.3" d="M22.521 22.612c-0.010 0.117-0.054 0.229-0.127 0.321s-0.172 0.16-0.285 0.196-0.233 0.038-0.346 0.006c-0.113-0.032-0.215-0.097-0.291-0.187s-0.124-0.2-0.138-0.317c-0.013-0.117 0.008-0.235 0.062-0.34s0.138-0.191 0.241-0.248 0.221-0.082 0.338-0.073c0.157 0.013 0.303 0.088 0.405 0.208s0.153 0.276 0.14 0.433z"></path>
<path fill="#407bff" style="fill: var(--color5, #407bff)" opacity="0.3" d="M20.029 15.373c-0.118 0.005-0.234-0.024-0.335-0.085s-0.182-0.15-0.232-0.256-0.068-0.225-0.050-0.341c0.018-0.116 0.069-0.225 0.148-0.312s0.183-0.149 0.297-0.177c0.114-0.028 0.235-0.022 0.346 0.017s0.208 0.111 0.278 0.206c0.070 0.094 0.111 0.207 0.116 0.325 0.004 0.078-0.008 0.156-0.034 0.23s-0.067 0.141-0.12 0.199c-0.053 0.058-0.116 0.105-0.187 0.138s-0.148 0.052-0.226 0.056z"></path>
<path fill="#407bff" style="fill: var(--color5, #407bff)" opacity="0.3" d="M21.655 11.82c-0.084 0.004-0.166-0.016-0.238-0.059s-0.129-0.106-0.165-0.181c-0.036-0.075-0.048-0.159-0.036-0.242s0.049-0.159 0.105-0.221c0.056-0.062 0.13-0.105 0.211-0.125s0.166-0.016 0.245 0.012c0.079 0.028 0.147 0.079 0.197 0.146s0.078 0.147 0.082 0.23c0.005 0.111-0.034 0.22-0.109 0.302s-0.18 0.132-0.291 0.137z"></path>
<path fill="#407bff" style="fill: var(--color5, #407bff)" opacity="0.3" d="M24.27 20.043c-0.004 0.048-0.022 0.094-0.053 0.132s-0.071 0.066-0.118 0.081c-0.046 0.015-0.096 0.016-0.143 0.002s-0.089-0.040-0.12-0.077-0.051-0.082-0.057-0.131c-0.006-0.048 0.003-0.097 0.026-0.14s0.057-0.079 0.099-0.102c0.043-0.024 0.091-0.034 0.14-0.030 0.065 0.005 0.126 0.036 0.168 0.086s0.063 0.114 0.058 0.179z"></path>
<path fill="#fff" style="fill: var(--color6, #fff)" opacity="0.7" d="M19.808 26.762h-0.041c-0.066-0.004-0.13-0.022-0.19-0.052s-0.112-0.070-0.155-0.12c-0.043-0.050-0.075-0.107-0.095-0.17s-0.027-0.128-0.022-0.193c0.008-0.096 0.044-0.188 0.103-0.264s0.14-0.133 0.232-0.165c0.092-0.031 0.19-0.036 0.284-0.012s0.179 0.074 0.244 0.145 0.109 0.16 0.125 0.255c0.016 0.095 0.004 0.193-0.035 0.281s-0.103 0.164-0.184 0.217c-0.081 0.053-0.176 0.081-0.272 0.081l0.004-0.004zM19.808 25.831c-0.098 0-0.193 0.034-0.269 0.096s-0.129 0.147-0.15 0.242c-0.021 0.095-0.008 0.195 0.035 0.283s0.116 0.157 0.205 0.198c0.089 0.041 0.189 0.051 0.284 0.027s0.179-0.079 0.239-0.156c0.059-0.078 0.091-0.173 0.088-0.271s-0.038-0.192-0.101-0.266c-0.037-0.043-0.082-0.079-0.133-0.105s-0.106-0.042-0.163-0.046l-0.036-0.002z"></path>
<path fill="#fff" style="fill: var(--color6, #fff)" opacity="0.7" d="M25.136 16.712h-0.030c-0.096-0.008-0.184-0.053-0.246-0.126s-0.093-0.167-0.085-0.263c0.008-0.096 0.054-0.184 0.127-0.246s0.168-0.092 0.264-0.085c0.096 0.008 0.184 0.053 0.246 0.126s0.093 0.167 0.085 0.263c-0.008 0.096-0.054 0.184-0.127 0.247-0.066 0.055-0.149 0.085-0.234 0.084zM24.839 16.327c-0.004 0.058 0.009 0.117 0.038 0.168s0.072 0.092 0.125 0.119c0.052 0.026 0.112 0.037 0.17 0.030s0.113-0.031 0.158-0.069c0.030-0.025 0.054-0.056 0.072-0.091s0.029-0.073 0.032-0.112-0.001-0.078-0.013-0.115c-0.012-0.037-0.031-0.072-0.057-0.101s-0.058-0.052-0.094-0.069c-0.036-0.017-0.074-0.026-0.113-0.027-0.039-0.003-0.078 0.001-0.116 0.013s-0.072 0.031-0.102 0.056-0.054 0.056-0.072 0.091c-0.018 0.035-0.029 0.072-0.032 0.111l0.003-0.004z"></path>
<path fill="#fff" style="fill: var(--color6, #fff)" opacity="0.7" d="M19.57 9.098h-0.013c-0.044-0.004-0.086-0.026-0.114-0.060s-0.044-0.078-0.041-0.122c0.002-0.033 0.014-0.065 0.034-0.092s0.048-0.047 0.079-0.058c0.032-0.011 0.066-0.013 0.098-0.005s0.062 0.025 0.085 0.049c0.023 0.024 0.038 0.055 0.044 0.088s0.002 0.067-0.012 0.098c-0.013 0.031-0.035 0.057-0.063 0.075s-0.061 0.028-0.094 0.028l-0.004-0.001zM19.466 8.921c-0.002 0.020 0.003 0.041 0.013 0.059s0.025 0.032 0.044 0.042c0.018 0.009 0.039 0.013 0.059 0.011s0.040-0.011 0.056-0.024c0.016-0.013 0.027-0.031 0.033-0.051s0.005-0.041-0.001-0.060c-0.006-0.020-0.018-0.037-0.034-0.050s-0.036-0.021-0.056-0.022c-0.014-0.001-0.028 0-0.041 0.004s-0.025 0.011-0.036 0.020-0.019 0.020-0.025 0.032c-0.006 0.012-0.010 0.026-0.011 0.039z"></path>
<path fill="#fff" style="fill: var(--color6, #fff)" opacity="0.7" d="M23.38 13.546h-0.036c-0.057-0.004-0.112-0.020-0.163-0.046s-0.096-0.061-0.132-0.105c-0.037-0.043-0.065-0.093-0.082-0.147s-0.024-0.111-0.018-0.167c0.007-0.083 0.039-0.162 0.090-0.227s0.121-0.115 0.2-0.141 0.164-0.030 0.245-0.009c0.081 0.021 0.154 0.064 0.211 0.125s0.094 0.138 0.108 0.22c0.014 0.082 0.003 0.166-0.030 0.243s-0.088 0.141-0.158 0.187c-0.070 0.046-0.151 0.070-0.235 0.071l0.001-0.002zM23.38 12.747c-0.087-0-0.171 0.030-0.237 0.086-0.074 0.063-0.121 0.152-0.129 0.249-0.005 0.060 0.005 0.12 0.029 0.176s0.062 0.104 0.109 0.141c0.047 0.037 0.103 0.063 0.163 0.073s0.121 0.007 0.178-0.012c0.058-0.018 0.11-0.051 0.152-0.094s0.073-0.096 0.090-0.154c0.017-0.058 0.019-0.119 0.006-0.178s-0.040-0.114-0.079-0.16c-0.031-0.037-0.069-0.067-0.112-0.089s-0.090-0.035-0.138-0.039h-0.031z"></path>
<path fill="#fff" style="fill: var(--color6, #fff)" opacity="0.3" d="M26.914 17.301l0.557-6.744c0.004-0.043-0.002-0.086-0.015-0.128s-0.035-0.079-0.063-0.112c-0.028-0.033-0.062-0.060-0.101-0.080s-0.081-0.032-0.124-0.035c-0.043-0.004-0.087 0.001-0.128 0.014s-0.080 0.034-0.113 0.062-0.060 0.062-0.080 0.101c-0.020 0.038-0.032 0.080-0.035 0.123l-0.556 6.744c-0.018 0.224-0.092 0.44-0.214 0.629s-0.29 0.344-0.488 0.453l-0.339 0.188 0.304 0.24c0.177 0.139 0.317 0.32 0.407 0.526s0.128 0.431 0.11 0.656l-0.744 9.018c-0.045 0.541-0.386 0.805-0.866 1.015-0.030 0.014-0.056 0.037-0.071 0.066s-0.021 0.063-0.016 0.096c0.006 0.033 0.022 0.063 0.046 0.086s0.056 0.036 0.089 0.039c0.362 0.029 0.72-0.086 0.997-0.32s0.449-0.568 0.479-0.928l0.744-9.018c0.018-0.224-0.019-0.449-0.109-0.656s-0.23-0.387-0.408-0.526l-0.304-0.24 0.339-0.187c0.198-0.109 0.365-0.264 0.488-0.453s0.196-0.405 0.214-0.629z"></path>
<path fill="#407bff" style="fill: var(--color5, #407bff)" opacity="0.3" d="M35.856 27.782c-0.093-0.421-1.254-0.172-1.495-0.133-0.467 0.084-0.924 0.216-1.365 0.392-0.485 0.19-1.048 0.469-1.551 0.18-0.29-0.167 0.718-0.496 0.809-0.529 0.428-0.15 0.842-0.339 1.236-0.565 0.159-0.094 0.468-0.32 0.335-0.55-0.11-0.19-0.506-0.172-0.746-0.143-0.728 0.089-1.443 0.268-2.127 0.532-0.666 0.264-1.317 0.561-1.952 0.891-0.246 0.138-0.514 0.234-0.792 0.284-0.303 0.043-0.675-0.022-0.794-0.189s0.034-0.363 0.070-0.532c0.050-0.201 0.029-0.413-0.059-0.601-0.059-0.126-0.157-0.229-0.28-0.294-0.328-0.172-0.824-0.108-1.154 0.027-0.214 0.090-0.409 0.219-0.576 0.38-0.337 0.312-0.573 0.717-0.679 1.164-0.027 0.14-0.081 0.273-0.159 0.392s-0.18 0.221-0.298 0.301c-0.462 0.31-1.308 0.292-1.955 0.136-1.129-0.267-1.991-0.891-2.199-1.596-0.101-0.336-0.15-0.687-0.603-0.818-0.293-0.086-0.906-0.026-0.775 0.344 0.048 0.101 0.11 0.195 0.184 0.278 0.12 0.157 0.247 0.454-0.109 0.549-0.115 0.024-0.234 0.030-0.351 0.017-1.144-0.076-2.197-0.457-2.879-0.993-0.223-0.174-0.411-0.388-0.557-0.63-0.081-0.133-0.11-0.276-0.199-0.408-0.085-0.126-0.204-0.226-0.345-0.286-0.439-0.188-1.472-0.090-1.544 0.322-0.039 0.223 0.101 0.466 0.172 0.678 0.013 0.027 0.016 0.057 0.009 0.086-0.021 0.054-0.103 0.070-0.172 0.074-0.923 0.061-1.818-0.296-2.592-0.669-0.82-0.395-1.723-0.909-2.863-0.915-0.236-0.011-0.472 0.016-0.699 0.080-0.058 0.015-0.111 0.043-0.157 0.081-0.028 0.029-0.046 0.066-0.053 0.105s-0.001 0.080 0.015 0.117c0.037 0.076 0.092 0.141 0.16 0.191 0.345 0.28 0.827 0.393 1.267 0.538 1.306 0.422 2.569 0.967 3.772 1.628 0.121 0.068 0.337 0.225 0.166 0.344s-0.517 0.042-0.721 0.009c-0.37-0.060-0.726-0.156-1.087-0.247-0.477-0.12-1.034-0.229-1.551-0.13-0.273 0.052-0.517 0.164-0.645 0.315-0.044 0.044-0.073 0.101-0.083 0.163s-0 0.125 0.028 0.181c0.177 0.315 0.986 0.451 1.428 0.601 0.566 0.192 1.119 0.42 1.657 0.681 0.459 0.227 0.886 0.475 1.351 0.697 1.662 0.794 3.983 0.897 6.058 0.974 2.253 0.086 4.516 0.013 6.763-0.112 1.637-0.091 3.244-0.271 4.848-0.482 0.461-0.060 0.919-0.134 1.378-0.197 0.466-0.053 0.927-0.144 1.378-0.272 0.162-0.041 0.314-0.117 0.444-0.222 0.123-0.114 0.162-0.264-0.059-0.307-0.462-0.092-0.937 0.013-1.389 0.094-0.507 0.093-1.008 0.2-1.506 0.32-0.227 0.060-0.457 0.107-0.689 0.14s-0.471 0.018-0.699-0.045c-0.074-0.023-0.155-0.064-0.159-0.13s0.058-0.106 0.121-0.131c0.93-0.368 1.917-0.601 2.911-0.816 0.675-0.146 1.361-0.235 2.041-0.35 0.62-0.104 1.272-0.128 1.809-0.52 0.107-0.069 0.19-0.169 0.238-0.286 0.023-0.060 0.029-0.126 0.016-0.19z"></path>
<path fill="#407bff" style="fill: var(--color5, #407bff)" opacity="0.3" d="M9.197 24.304c-0.252-0.715-1.152-1.982-1.341-1.234-0.102 0.42 1.341 1.234 1.341 1.234z"></path>
<path fill="#407bff" style="fill: var(--color5, #407bff)" opacity="0.3" d="M31.785 25.713c0.481-0.437 1.080-0.697 1.158-0.313 0.072 0.364-1.158 0.313-1.158 0.313z"></path>
<path fill="#407bff" style="fill: var(--color5, #407bff)" opacity="0.3" d="M12.062 22.236c-0.329-0.172-0.586-0.447-0.393-0.562s0.393 0.562 0.393 0.562z"></path>
</symbol>
<symbol id="icon-Bottle-Sign-In" viewBox="0 0 43 32">
<path fill="#f5f5f5" style="fill: var(--color4, #f5f5f5)" d="M21.333 32c9.138 0 16.545-0.435 16.545-0.972s-7.408-0.972-16.545-0.972-16.545 0.435-16.545 0.972c0 0.537 7.408 0.972 16.545 0.972z"></path>
<path fill="#407bff" style="fill: var(--color5, #407bff)" opacity="0.1" d="M11.716 24.241c0.010-0.077 0.050-0.148 0.11-0.197s0.137-0.073 0.214-0.067c0.73-0.011 1.414 0.509 2.048 1.066 0.141 0.123 0.294 0.25 0.451 0.121 0.049-0.041 0.085-0.095 0.102-0.156 0.027-0.1 0.027-0.206 0-0.306-0.023-0.083-0.063-0.16-0.115-0.228-0.276-0.365-0.611-0.54-0.883-0.917-0.152-0.216-0.279-0.45-0.376-0.696-0.085-0.216-0.256-0.566-0.188-0.859 0.076-0.35 0.336-0.32 0.494-0.272 0.499 0.15 0.965 0.508 1.388 0.954 0.451 0.474 0.86 1.045 1.267 1.613 0.154 0.216 0.316 0.437 0.512 0.515s0.445-0.048 0.527-0.359c0.083-0.311-0.015-0.668-0.035-0.977-0.027-0.369-0.010-0.74 0.053-1.104 0.028-0.193 0.092-0.378 0.19-0.546 0.22-0.325 0.546-0.21 0.759 0.035 0.163 0.206 0.289 0.438 0.372 0.687 0.239 0.688 0.383 1.406 0.427 2.134 0.032 0.451 0.101 0.921 0.285 1.27 0.298 0.565 0.853 0.52 1.284 0.224 0.75-0.515 1.329-1.68 1.483-2.982 0.050-0.424 0.063-0.883 0.217-1.238 0.134-0.308 0.478-0.515 0.646-0.184 0.068 0.166 0.087 0.348 0.055 0.524-0.030 0.174-0.073 0.347-0.127 0.515-0.085 0.292-0.171 0.839 0.060 1.010 0.034 0.021 0.073 0.034 0.113 0.039s0.080 0 0.118-0.013c0.754-0.158 1.456-0.873 1.917-1.87 0.167-0.375 0.294-0.767 0.381-1.169 0.055-0.246 0.078-0.509 0.14-0.753 0.039-0.192 0.119-0.373 0.234-0.532 0.294-0.354 0.971-0.187 1.010 0.571 0.023 0.439-0.093 0.868-0.136 1.298-0.026 0.268 0.138 0.266 0.261 0.258 0.589-0.060 1.109-0.658 1.571-1.28 0.549-0.739 1.156-1.7 1.905-1.728 0.171-0.006 0.455 0.016 0.557 0.282 0.048 0.163 0.048 0.336 0 0.498-0.152 0.634-0.597 0.961-0.939 1.274-0.962 0.908-1.809 1.934-2.52 3.052-0.108 0.172-0.22 0.455-0.117 0.623 0.020 0.032 0.049 0.057 0.083 0.073s0.072 0.020 0.109 0.013c0.352-0.027 0.683-0.309 1.004-0.543s0.687-0.438 1.024-0.262c0.104 0.063 0.194 0.146 0.266 0.244s0.124 0.21 0.153 0.328c0.060 0.208 0.070 0.427 0.028 0.639-0.124 0.583-0.659 0.845-0.953 1.133-0.405 0.393-0.777 0.821-1.109 1.279-0.307 0.423-0.597 0.887-0.905 1.303-1.109 1.488-2.645 1.709-4.011 1.882-1.486 0.187-2.975 0.086-4.452-0.111-1.074-0.144-2.133-0.452-3.182-0.817-0.36-0.131-0.718-0.275-1.071-0.445-0.38-0.182-0.939-0.295-1.085-1.012-0.031-0.154 0.005-0.28 0.107-0.338 0.315-0.18 0.764 0.061 1.060 0.22 0.409 0.22 0.796 0.533 1.216 0.702 0.067 0.033 0.141 0.053 0.216 0.057s0.15-0.007 0.221-0.034c0.069-0.029 0.126-0.082 0.161-0.149 0.045-0.087 0.056-0.188 0.031-0.282-0.017-0.051-0.047-0.097-0.085-0.135-0.756-0.779-1.659-1.399-2.656-1.822-0.32-0.138-0.647-0.252-0.955-0.447-0.249-0.155-0.464-0.36-0.631-0.601-0.143-0.231-0.374-0.639-0.301-1.007z"></path>
<path fill="#407bff" style="fill: var(--color5, #407bff)" opacity="0.1" d="M28.038 17.928c-0.057 0.059-0.132 0.099-0.213 0.112s-0.164-0.001-0.237-0.040-0.13-0.1-0.165-0.175c-0.035-0.075-0.044-0.159-0.027-0.24 0.294-1.438 0.934-2.484 1.696-1.942 0.568 0.404-0.323 1.52-1.054 2.285z"></path>
<path fill="#407bff" style="fill: var(--color5, #407bff)" opacity="0.3" d="M25.973 18.599c0.233-0.129 0.43-0.315 0.574-0.539s0.231-0.482 0.252-0.749l0.577-7.072c0.030-0.364-0.016-0.729-0.135-1.074s-0.308-0.66-0.555-0.927l-1.777-1.916c-0.098-0.106-0.173-0.231-0.22-0.368s-0.066-0.282-0.054-0.426l0.085-1.036-4.6-0.38-0.085 1.036c-0.012 0.144-0.053 0.284-0.122 0.411s-0.163 0.238-0.277 0.327l-2.065 1.6c-0.287 0.223-0.525 0.503-0.698 0.824s-0.278 0.674-0.307 1.037l-0.578 7.072c-0.022 0.266 0.022 0.534 0.128 0.779s0.27 0.46 0.479 0.626c-0.233 0.129-0.43 0.314-0.574 0.539s-0.231 0.482-0.252 0.749l-0.736 9.017c-0.035 0.429 0.101 0.854 0.378 1.182s0.671 0.532 1.097 0.568l7.595 0.628c0.211 0.018 0.423-0.007 0.625-0.072s0.388-0.169 0.55-0.307 0.294-0.306 0.391-0.496c0.097-0.189 0.155-0.396 0.173-0.608l0.736-9.017c0.023-0.266-0.021-0.534-0.126-0.78s-0.269-0.461-0.477-0.627z"></path>
<path fill="#407bff" style="fill: var(--color5, #407bff)" opacity="0.3" d="M20.121 4.114l-0.065 0.799 4.599 0.381 0.065-0.799-4.599-0.381z"></path>
<path fill="#fff" style="fill: var(--color6, #fff)" opacity="0.3" d="M26.644 8.422l-1.778-1.918c0 0-1.146 0.050-0.256 1.464 0.759 1.196 2.080 1.010 2.034 0.453z"></path>
<path fill="#407bff" style="fill: var(--color5, #407bff)" opacity="0.2" d="M15.033 28.126c-0.035 0.429 0.101 0.854 0.378 1.182s0.671 0.532 1.097 0.568l7.595 0.628c0.211 0.018 0.423-0.007 0.625-0.072s0.388-0.169 0.55-0.307 0.294-0.306 0.391-0.496c0.097-0.189 0.155-0.396 0.173-0.608l-10.807-0.894z"></path>
<path fill="#407bff" style="fill: var(--color5, #407bff)" opacity="0.3" d="M26.312 8.588c0.199 0.214 0.35 0.468 0.446 0.745s0.133 0.57 0.109 0.862l-0.577 7.073c-0.015 0.182-0.075 0.357-0.173 0.51s-0.233 0.279-0.392 0.367l-0.672 0.375 0.602 0.48c0.142 0.113 0.255 0.259 0.327 0.427s0.102 0.35 0.088 0.532l-0.736 9.017c-0.024 0.292-0.162 0.563-0.384 0.753s-0.51 0.284-0.8 0.26l-7.595-0.628c-0.144-0.012-0.285-0.052-0.414-0.118s-0.243-0.157-0.337-0.268-0.165-0.239-0.21-0.378c-0.045-0.139-0.062-0.285-0.050-0.43l0.736-9.017c0.015-0.182 0.074-0.357 0.172-0.511s0.233-0.28 0.392-0.368l0.672-0.375-0.597-0.48c-0.142-0.113-0.255-0.259-0.327-0.427s-0.102-0.35-0.088-0.532l0.578-7.072c0.024-0.292 0.108-0.576 0.247-0.833s0.33-0.483 0.561-0.661c0.683-0.444 2.475 0.661 4.573 0.835s3.411-0.362 3.849-0.14z"></path>
<path fill="#407bff" style="fill: var(--color5, #407bff)" opacity="0.2" d="M22.458 8.729c-2.098-0.172-3.891-1.28-4.574-0.836 1.195 0.661 2.56 1.071 4.541 1.235s3.887-0.54 3.887-0.54c-0.439-0.222-1.756 0.315-3.854 0.141z"></path>
<path fill="#407bff" style="fill: var(--color5, #407bff)" opacity="0.2" d="M15.989 16.419c-0.022 0.266 0.022 0.534 0.128 0.779s0.27 0.46 0.479 0.626l9.377 0.773c0.233-0.129 0.43-0.315 0.574-0.539s0.231-0.482 0.253-0.749l-10.811-0.89z"></path>
<path fill="#407bff" style="fill: var(--color5, #407bff)" d="M24.817 3.228l-4.587-0.381c-0.192-0.016-0.361 0.128-0.376 0.321l-0.091 1.123c-0.016 0.193 0.127 0.363 0.319 0.379l4.586 0.381c0.192 0.016 0.361-0.128 0.376-0.321l0.091-1.123c0.016-0.193-0.127-0.363-0.319-0.379z"></path>
<path fill="#fff" style="fill: var(--color6, #fff)" opacity="0.2" d="M20.314 4.497c-0.006-0-0.011-0.002-0.016-0.005s-0.010-0.006-0.013-0.010c-0.004-0.004-0.007-0.009-0.008-0.015s-0.002-0.011-0.002-0.017l0.107-1.359c0.001-0.011 0.006-0.022 0.015-0.029s0.020-0.011 0.031-0.010c0.011 0.001 0.022 0.006 0.029 0.015s0.011 0.020 0.010 0.031l-0.111 1.358c-0.001 0.011-0.005 0.021-0.013 0.029s-0.018 0.012-0.029 0.012z"></path>
<path fill="#fff" style="fill: var(--color6, #fff)" opacity="0.2" d="M21.146 4.565c-0.006-0-0.011-0.002-0.016-0.005s-0.010-0.006-0.013-0.010c-0.003-0.004-0.006-0.009-0.008-0.015s-0.002-0.011-0.002-0.017l0.111-1.358c0.001-0.011 0.006-0.022 0.015-0.029s0.020-0.011 0.031-0.010c0.006 0 0.011 0.002 0.016 0.005s0.009 0.006 0.013 0.010c0.003 0.004 0.006 0.009 0.008 0.015s0.002 0.011 0.002 0.017l-0.114 1.358c-0.001 0.011-0.006 0.021-0.014 0.028s-0.018 0.011-0.029 0.012z"></path>
<path fill="#fff" style="fill: var(--color6, #fff)" opacity="0.2" d="M21.978 4.638c-0.006-0-0.011-0.002-0.016-0.005s-0.009-0.006-0.013-0.010c-0.004-0.004-0.007-0.009-0.008-0.015s-0.002-0.011-0.002-0.017l0.111-1.358c0.001-0.011 0.007-0.022 0.015-0.029s0.020-0.011 0.031-0.011c0.006 0 0.011 0.002 0.016 0.005s0.009 0.006 0.013 0.010c0.004 0.004 0.006 0.009 0.008 0.015s0.002 0.011 0.002 0.017l-0.111 1.358c-0 0.006-0.002 0.011-0.005 0.016s-0.006 0.010-0.010 0.013c-0.004 0.004-0.009 0.006-0.015 0.008s-0.011 0.002-0.017 0.002z"></path>
<path fill="#fff" style="fill: var(--color6, #fff)" opacity="0.2" d="M22.81 4.703c-0.006-0-0.011-0.002-0.016-0.005s-0.010-0.006-0.013-0.010c-0.004-0.004-0.007-0.009-0.008-0.015s-0.002-0.011-0.002-0.017l0.111-1.358c0.001-0.011 0.006-0.022 0.015-0.029s0.020-0.011 0.031-0.010c0.006 0 0.011 0.002 0.016 0.005s0.009 0.006 0.013 0.010c0.003 0.004 0.006 0.009 0.008 0.015s0.002 0.011 0.002 0.017l-0.111 1.358c-0 0.006-0.002 0.011-0.004 0.016s-0.006 0.010-0.010 0.013-0.009 0.006-0.014 0.008c-0.005 0.002-0.011 0.002-0.016 0.002z"></path>
<path fill="#fff" style="fill: var(--color6, #fff)" opacity="0.2" d="M23.637 4.772c-0.006-0-0.011-0.002-0.016-0.005s-0.009-0.006-0.013-0.010c-0.004-0.004-0.006-0.009-0.008-0.015s-0.002-0.011-0.002-0.017l0.111-1.358c0.002-0.011 0.007-0.021 0.016-0.029s0.019-0.011 0.031-0.011c0.006 0 0.011 0.002 0.016 0.005s0.009 0.006 0.013 0.010c0.004 0.004 0.006 0.009 0.008 0.015s0.002 0.011 0.002 0.017l-0.111 1.358c-0 0.006-0.002 0.011-0.004 0.016s-0.006 0.010-0.010 0.013c-0.004 0.004-0.009 0.006-0.015 0.008s-0.011 0.002-0.017 0.002z"></path>
<path fill="#fff" style="fill: var(--color6, #fff)" opacity="0.2" d="M24.473 4.84c-0.006-0-0.011-0.002-0.016-0.005s-0.009-0.006-0.013-0.010c-0.004-0.004-0.006-0.009-0.008-0.015s-0.002-0.011-0.002-0.017l0.107-1.359c0.001-0.011 0.007-0.022 0.015-0.029s0.020-0.011 0.031-0.010c0.011 0.001 0.021 0.007 0.029 0.015s0.011 0.020 0.010 0.031l-0.11 1.359c-0.001 0.011-0.006 0.021-0.014 0.028s-0.018 0.011-0.029 0.012z"></path>
<path fill="#407bff" style="fill: var(--color5, #407bff)" opacity="0.2" d="M17.408 14.056c-0.13-0.722-1.175-0.671-1.235 0.060l-0.188 2.303c-0.022 0.266 0.022 0.534 0.128 0.779s0.27 0.46 0.479 0.626c-0.233 0.129-0.43 0.314-0.574 0.539s-0.231 0.482-0.252 0.749l-0.736 9.017c-0.035 0.429 0.101 0.854 0.378 1.182s0.671 0.532 1.097 0.568l1.963 0.162c0.216 0.018 0.434-0.014 0.635-0.095s0.383-0.206 0.528-0.368c0.146-0.162 0.253-0.355 0.313-0.565s0.071-0.431 0.032-0.646l-2.568-14.312z"></path>
<path fill="#407bff" style="fill: var(--color5, #407bff)" opacity="0.3" d="M24.96 25.864c-0.013 0.166-0.075 0.323-0.178 0.454s-0.241 0.227-0.398 0.277c-0.157 0.051-0.326 0.053-0.484 0.008s-0.3-0.138-0.407-0.264c-0.107-0.127-0.174-0.282-0.193-0.447s0.011-0.332 0.087-0.48c0.075-0.148 0.193-0.27 0.337-0.35s0.309-0.117 0.473-0.103c0.221 0.018 0.425 0.124 0.568 0.294s0.213 0.39 0.195 0.612z"></path>
<path fill="#407bff" style="fill: var(--color5, #407bff)" opacity="0.3" d="M22.307 22.611c-0.010 0.117-0.053 0.229-0.126 0.321s-0.171 0.16-0.282 0.197c-0.111 0.036-0.231 0.038-0.343 0.006s-0.213-0.097-0.288-0.187c-0.076-0.090-0.123-0.2-0.136-0.317s0.008-0.235 0.061-0.34c0.053-0.105 0.136-0.191 0.238-0.248s0.219-0.082 0.335-0.073c0.156 0.013 0.3 0.088 0.402 0.208s0.151 0.276 0.139 0.433z"></path>
<path fill="#407bff" style="fill: var(--color5, #407bff)" opacity="0.3" d="M19.838 15.373c-0.117 0.005-0.232-0.024-0.332-0.085s-0.18-0.15-0.23-0.256c-0.050-0.106-0.067-0.225-0.050-0.341s0.068-0.225 0.147-0.312c0.079-0.087 0.181-0.149 0.294-0.177s0.232-0.022 0.342 0.017 0.206 0.111 0.275 0.206c0.070 0.094 0.11 0.207 0.115 0.325 0.004 0.078-0.008 0.156-0.034 0.23s-0.067 0.141-0.119 0.199c-0.052 0.058-0.115 0.105-0.186 0.138s-0.146 0.052-0.224 0.056z"></path>
<path fill="#407bff" style="fill: var(--color5, #407bff)" opacity="0.3" d="M21.449 11.82c-0.083 0.004-0.165-0.016-0.236-0.059s-0.128-0.106-0.163-0.181c-0.035-0.075-0.048-0.159-0.035-0.242s0.048-0.159 0.104-0.221c0.056-0.062 0.128-0.105 0.208-0.125s0.165-0.016 0.243 0.012c0.078 0.028 0.146 0.079 0.195 0.146s0.077 0.147 0.081 0.23c0.005 0.111-0.034 0.22-0.108 0.302s-0.178 0.132-0.289 0.137z"></path>
<path fill="#407bff" style="fill: var(--color5, #407bff)" opacity="0.3" d="M24.039 20.043c-0.004 0.048-0.022 0.094-0.052 0.132s-0.071 0.066-0.117 0.081c-0.046 0.015-0.095 0.016-0.142 0.002s-0.088-0.040-0.119-0.077c-0.031-0.037-0.051-0.082-0.056-0.131s0.003-0.097 0.025-0.14c0.022-0.043 0.056-0.079 0.098-0.102s0.090-0.034 0.138-0.030c0.065 0.006 0.124 0.036 0.166 0.086s0.062 0.114 0.057 0.179z"></path>
<path fill="#fff" style="fill: var(--color6, #fff)" opacity="0.7" d="M19.619 26.762h-0.041c-0.065-0.005-0.129-0.022-0.188-0.052s-0.111-0.070-0.154-0.12c-0.042-0.050-0.074-0.107-0.094-0.169s-0.027-0.128-0.021-0.193c0.008-0.096 0.044-0.188 0.102-0.264s0.139-0.134 0.23-0.165c0.091-0.031 0.189-0.035 0.282-0.012s0.177 0.074 0.242 0.145 0.108 0.16 0.124 0.255c0.016 0.095 0.004 0.193-0.035 0.282s-0.102 0.164-0.182 0.217c-0.080 0.053-0.174 0.081-0.27 0.081l0.004-0.004zM19.619 25.831c-0.097 0-0.191 0.034-0.267 0.096s-0.128 0.147-0.148 0.242c-0.021 0.095-0.008 0.195 0.035 0.282s0.115 0.157 0.203 0.198c0.088 0.041 0.187 0.051 0.282 0.027s0.178-0.078 0.236-0.156c0.059-0.078 0.090-0.173 0.087-0.271s-0.038-0.192-0.1-0.266c-0.037-0.043-0.081-0.079-0.131-0.105s-0.105-0.042-0.161-0.046l-0.036-0.002z"></path>
<path fill="#fff" style="fill: var(--color6, #fff)" opacity="0.7" d="M24.897 16.712h-0.030c-0.095-0.008-0.183-0.053-0.244-0.126s-0.092-0.167-0.084-0.263c0.008-0.096 0.053-0.184 0.126-0.246s0.167-0.092 0.262-0.085c0.095 0.008 0.183 0.053 0.244 0.126s0.092 0.167 0.084 0.263c-0.008 0.096-0.053 0.184-0.125 0.247-0.065 0.055-0.147 0.085-0.232 0.084zM24.602 16.327c-0.004 0.058 0.009 0.117 0.037 0.168s0.071 0.092 0.123 0.119c0.052 0.026 0.11 0.037 0.168 0.030s0.112-0.031 0.157-0.069c0.030-0.025 0.054-0.056 0.072-0.091s0.029-0.073 0.032-0.112c0.003-0.039-0.001-0.078-0.013-0.115s-0.031-0.072-0.056-0.101c-0.026-0.029-0.058-0.052-0.093-0.069s-0.073-0.026-0.112-0.027c-0.039-0.003-0.077 0.001-0.114 0.013s-0.071 0.031-0.101 0.056c-0.030 0.025-0.054 0.056-0.072 0.091s-0.028 0.073-0.032 0.112l0.003-0.004z"></path>
<path fill="#fff" style="fill: var(--color6, #fff)" opacity="0.7" d="M19.383 9.098h-0.013c-0.044-0.004-0.085-0.026-0.113-0.060s-0.043-0.078-0.040-0.122c0.002-0.033 0.014-0.065 0.034-0.092s0.047-0.047 0.079-0.058c0.031-0.011 0.065-0.013 0.098-0.005s0.062 0.025 0.085 0.049c0.023 0.024 0.038 0.055 0.044 0.088s0.002 0.067-0.011 0.098c-0.013 0.031-0.035 0.057-0.063 0.075s-0.060 0.028-0.094 0.028l-0.004-0.001zM19.28 8.921c-0.002 0.020 0.003 0.041 0.013 0.059s0.025 0.032 0.043 0.042c0.018 0.009 0.039 0.013 0.059 0.011s0.039-0.011 0.055-0.024c0.016-0.013 0.027-0.031 0.032-0.051s0.005-0.041-0.001-0.060c-0.006-0.020-0.018-0.037-0.034-0.050s-0.035-0.021-0.056-0.022c-0.014-0.001-0.027 0-0.040 0.004s-0.025 0.011-0.035 0.020-0.019 0.020-0.025 0.032c-0.006 0.012-0.010 0.026-0.011 0.039z"></path>
<path fill="#fff" style="fill: var(--color6, #fff)" opacity="0.7" d="M23.157 13.546h-0.036c-0.056-0.004-0.111-0.020-0.161-0.046s-0.095-0.061-0.131-0.105c-0.036-0.043-0.064-0.093-0.081-0.147s-0.023-0.111-0.018-0.167c0.007-0.083 0.038-0.162 0.089-0.227s0.12-0.115 0.198-0.141c0.078-0.027 0.163-0.030 0.243-0.009s0.153 0.064 0.209 0.126c0.056 0.061 0.093 0.138 0.107 0.22s0.003 0.166-0.030 0.243-0.087 0.141-0.157 0.187c-0.069 0.046-0.15 0.070-0.233 0.071l0.001-0.002zM23.157 12.747c-0.086-0-0.169 0.030-0.235 0.086-0.074 0.063-0.12 0.152-0.128 0.249-0.005 0.060 0.005 0.12 0.029 0.176s0.061 0.104 0.108 0.141 0.102 0.063 0.161 0.073c0.059 0.011 0.12 0.007 0.177-0.012s0.109-0.051 0.15-0.094c0.042-0.043 0.072-0.096 0.089-0.154s0.019-0.119 0.006-0.178-0.039-0.114-0.078-0.16c-0.031-0.037-0.069-0.067-0.111-0.089s-0.089-0.035-0.137-0.039h-0.031z"></path>
<path fill="#fff" style="fill: var(--color6, #fff)" opacity="0.3" d="M26.657 17.301l0.551-6.744c0.003-0.043-0.001-0.086-0.015-0.128s-0.034-0.079-0.062-0.112-0.062-0.060-0.1-0.080c-0.038-0.020-0.080-0.032-0.123-0.035s-0.086 0.001-0.127 0.014c-0.041 0.013-0.079 0.034-0.112 0.062s-0.060 0.062-0.079 0.101c-0.020 0.038-0.031 0.080-0.035 0.123l-0.551 6.744c-0.018 0.224-0.091 0.44-0.212 0.629s-0.288 0.344-0.483 0.453l-0.335 0.188 0.301 0.24c0.176 0.139 0.314 0.32 0.404 0.526s0.127 0.431 0.108 0.656l-0.736 9.017c-0.044 0.541-0.382 0.805-0.858 1.015-0.030 0.014-0.055 0.037-0.071 0.066s-0.021 0.063-0.016 0.096c0.006 0.033 0.022 0.063 0.046 0.085s0.055 0.036 0.088 0.039c0.358 0.029 0.713-0.085 0.988-0.32s0.445-0.568 0.474-0.928l0.736-9.017c0.018-0.224-0.019-0.45-0.108-0.656s-0.228-0.387-0.404-0.526l-0.301-0.241 0.335-0.187c0.196-0.109 0.362-0.264 0.483-0.453s0.194-0.405 0.213-0.629z"></path>
<path fill="#407bff" style="fill: var(--color5, #407bff)" opacity="0.3" d="M35.515 27.782c-0.092-0.421-1.242-0.172-1.481-0.133-0.463 0.084-0.916 0.216-1.352 0.393-0.48 0.19-1.038 0.469-1.536 0.18-0.288-0.167 0.711-0.496 0.801-0.529 0.424-0.15 0.834-0.339 1.224-0.565 0.158-0.094 0.463-0.32 0.332-0.55-0.109-0.19-0.501-0.172-0.739-0.143-0.721 0.089-1.429 0.268-2.107 0.532-0.659 0.264-1.305 0.561-1.934 0.89-0.244 0.138-0.509 0.235-0.784 0.284-0.3 0.043-0.668-0.021-0.787-0.189s0.034-0.363 0.069-0.532c0.050-0.201 0.029-0.413-0.059-0.601-0.058-0.126-0.156-0.229-0.277-0.294-0.325-0.172-0.817-0.108-1.143 0.027-0.212 0.090-0.405 0.219-0.571 0.38-0.334 0.313-0.567 0.717-0.672 1.164-0.026 0.14-0.080 0.273-0.158 0.392s-0.178 0.221-0.295 0.301c-0.457 0.31-1.295 0.292-1.936 0.137-1.119-0.267-1.972-0.891-2.178-1.596-0.1-0.336-0.149-0.687-0.597-0.818-0.29-0.086-0.898-0.026-0.768 0.343 0.047 0.101 0.108 0.195 0.183 0.278 0.119 0.157 0.245 0.453-0.107 0.549-0.114 0.024-0.231 0.030-0.347 0.017-1.133-0.076-2.176-0.457-2.852-0.993-0.22-0.174-0.407-0.387-0.551-0.63-0.080-0.133-0.109-0.277-0.197-0.408-0.084-0.126-0.203-0.226-0.341-0.286-0.435-0.188-1.457-0.090-1.529 0.322-0.038 0.223 0.1 0.465 0.171 0.678 0.013 0.027 0.016 0.057 0.009 0.086-0.020 0.054-0.102 0.070-0.171 0.074-0.914 0.061-1.801-0.296-2.568-0.669-0.812-0.395-1.707-0.909-2.836-0.915-0.233-0.011-0.467 0.016-0.692 0.080-0.057 0.015-0.11 0.043-0.155 0.081-0.028 0.029-0.046 0.066-0.053 0.105s-0.001 0.080 0.015 0.117c0.037 0.076 0.091 0.141 0.159 0.191 0.341 0.28 0.819 0.393 1.255 0.538 1.294 0.422 2.545 0.967 3.736 1.627 0.12 0.068 0.334 0.225 0.165 0.343s-0.512 0.042-0.714 0.009c-0.367-0.060-0.719-0.156-1.077-0.247-0.473-0.12-1.024-0.229-1.536-0.13-0.271 0.052-0.512 0.164-0.639 0.315-0.044 0.044-0.073 0.101-0.082 0.163s-0 0.125 0.028 0.181c0.176 0.315 0.977 0.451 1.415 0.601 0.56 0.192 1.109 0.42 1.641 0.681 0.455 0.227 0.877 0.475 1.338 0.697 1.646 0.794 3.945 0.897 6.001 0.974 2.231 0.086 4.473 0.013 6.699-0.112 1.621-0.091 3.213-0.27 4.802-0.482 0.457-0.060 0.91-0.134 1.365-0.197 0.462-0.053 0.918-0.144 1.365-0.272 0.161-0.041 0.31-0.117 0.439-0.222 0.122-0.114 0.16-0.264-0.058-0.307-0.457-0.092-0.928 0.013-1.376 0.094-0.502 0.093-0.999 0.199-1.492 0.32-0.225 0.060-0.453 0.107-0.683 0.14-0.231 0.033-0.467 0.018-0.692-0.045-0.073-0.023-0.154-0.064-0.158-0.13s0.057-0.107 0.12-0.131c0.921-0.368 1.899-0.601 2.883-0.816 0.668-0.146 1.348-0.235 2.022-0.35 0.614-0.104 1.26-0.128 1.792-0.519 0.106-0.069 0.188-0.169 0.235-0.286 0.023-0.061 0.029-0.126 0.016-0.19z"></path>
<path fill="#407bff" style="fill: var(--color5, #407bff)" opacity="0.3" d="M9.109 24.304c-0.25-0.715-1.141-1.982-1.329-1.234-0.101 0.42 1.329 1.234 1.329 1.234z"></path>
<path fill="#407bff" style="fill: var(--color5, #407bff)" opacity="0.3" d="M31.482 25.713c0.476-0.437 1.070-0.697 1.147-0.313 0.072 0.364-1.147 0.313-1.147 0.313z"></path>
<path fill="#407bff" style="fill: var(--color5, #407bff)" opacity="0.3" d="M11.947 22.236c-0.326-0.172-0.58-0.447-0.389-0.562s0.389 0.562 0.389 0.562z"></path>
</symbol>
<symbol id="icon-Background-element-Sign-In" viewBox="0 0 12 32">
<path fill="#c6d7ff" style="fill: var(--color1, #c6d7ff)" opacity="0.7" d="M11.469 1.888h-0.079c-0.125-0.009-0.248-0.042-0.36-0.098s-0.213-0.134-0.295-0.229c-0.081-0.095-0.142-0.205-0.18-0.323s-0.052-0.244-0.041-0.368c0.015-0.183 0.084-0.358 0.197-0.504s0.266-0.254 0.44-0.314c0.174-0.060 0.362-0.068 0.54-0.022s0.34 0.141 0.465 0.277 0.207 0.304 0.238 0.486c0.030 0.181 0.007 0.368-0.066 0.537s-0.195 0.312-0.349 0.413c-0.154 0.101-0.334 0.155-0.518 0.155l0.008-0.008zM11.469 0.113c-0.186 0.001-0.366 0.065-0.511 0.182s-0.245 0.28-0.285 0.462-0.016 0.372 0.067 0.539c0.083 0.167 0.22 0.3 0.389 0.378s0.36 0.096 0.54 0.052 0.341-0.15 0.454-0.298c0.113-0.148 0.172-0.33 0.168-0.516s-0.072-0.365-0.192-0.508c-0.070-0.083-0.155-0.151-0.252-0.2s-0.202-0.079-0.31-0.088l-0.069-0.003z"></path>
<path fill="#c6d7ff" style="fill: var(--color1, #c6d7ff)" d="M10.965 10.035c-0.007 0.090-0.041 0.175-0.097 0.246s-0.132 0.123-0.217 0.15c-0.086 0.028-0.178 0.029-0.264 0.004s-0.164-0.075-0.222-0.143c-0.058-0.069-0.095-0.153-0.105-0.242s0.006-0.18 0.047-0.26c0.041-0.080 0.105-0.146 0.184-0.19s0.168-0.063 0.258-0.056c0.12 0.010 0.232 0.067 0.31 0.159s0.116 0.211 0.107 0.332z"></path>
<path fill="#ecf2ff" style="fill: var(--color2, #ecf2ff)" d="M1.395 1.987c-0.007 0.090-0.041 0.175-0.097 0.246s-0.132 0.123-0.217 0.15c-0.086 0.027-0.178 0.029-0.264 0.004s-0.164-0.075-0.222-0.143c-0.058-0.069-0.095-0.153-0.105-0.242s0.006-0.18 0.047-0.26c0.041-0.080 0.105-0.146 0.184-0.19s0.168-0.063 0.258-0.056c0.12 0.010 0.232 0.067 0.31 0.159s0.116 0.211 0.107 0.332z"></path>
<path fill="#ecf2ff" style="fill: var(--color2, #ecf2ff)" d="M8.651 4.927c-0.005 0.060-0.027 0.117-0.065 0.164s-0.088 0.082-0.145 0.1c-0.057 0.018-0.118 0.019-0.176 0.003s-0.109-0.050-0.148-0.095c-0.039-0.046-0.063-0.102-0.070-0.162s0.004-0.12 0.031-0.173c0.027-0.053 0.070-0.097 0.122-0.127s0.112-0.042 0.172-0.037c0.080 0.007 0.154 0.045 0.206 0.106s0.078 0.141 0.071 0.221z"></path>
<path fill="#c6d7ff" style="fill: var(--color1, #c6d7ff)" opacity="0.7" d="M2.008 15.924h-0.050c-0.080-0.006-0.159-0.027-0.23-0.063s-0.136-0.086-0.189-0.147c-0.052-0.061-0.091-0.131-0.115-0.207s-0.033-0.156-0.026-0.235c0.010-0.117 0.054-0.229 0.126-0.322s0.17-0.163 0.282-0.201c0.111-0.038 0.231-0.043 0.346-0.014s0.217 0.090 0.297 0.177c0.080 0.087 0.133 0.195 0.152 0.311s0.005 0.236-0.042 0.343c-0.047 0.108-0.125 0.2-0.223 0.264s-0.214 0.099-0.331 0.099l0.005-0.005zM2.008 14.788c-0.119 0.001-0.235 0.042-0.327 0.117s-0.157 0.179-0.182 0.296c-0.025 0.116-0.010 0.238 0.043 0.345s0.141 0.192 0.249 0.242c0.108 0.050 0.23 0.062 0.346 0.033s0.218-0.096 0.29-0.191c0.072-0.095 0.11-0.211 0.107-0.33s-0.046-0.234-0.123-0.325c-0.045-0.053-0.099-0.097-0.161-0.128s-0.129-0.051-0.198-0.056l-0.044-0.002z"></path>
<path fill="#c6d7ff" style="fill: var(--color1, #c6d7ff)" d="M11.776 22.183c-0.007 0.090-0.041 0.175-0.097 0.246s-0.132 0.123-0.217 0.15c-0.086 0.028-0.178 0.029-0.264 0.004s-0.164-0.075-0.222-0.143c-0.058-0.069-0.095-0.153-0.105-0.242s0.006-0.18 0.047-0.26 0.105-0.146 0.184-0.19c0.079-0.044 0.168-0.063 0.258-0.056 0.12 0.010 0.232 0.067 0.31 0.159s0.116 0.211 0.107 0.332z"></path>
<path fill="#9ebbff" style="fill: var(--color3, #9ebbff)" opacity="0.7" d="M0.728 26.92h-0.060c-0.095-0.007-0.188-0.032-0.274-0.075s-0.162-0.102-0.224-0.174c-0.061-0.072-0.108-0.156-0.137-0.246s-0.039-0.185-0.031-0.279c0.012-0.139 0.064-0.272 0.149-0.383s0.202-0.193 0.334-0.239c0.132-0.045 0.275-0.051 0.411-0.017s0.258 0.107 0.353 0.21c0.095 0.103 0.158 0.231 0.181 0.369s0.006 0.28-0.050 0.408-0.148 0.237-0.265 0.314c-0.117 0.077-0.254 0.118-0.394 0.118l0.006-0.006zM0.728 25.571c-0.141 0.001-0.279 0.050-0.388 0.139s-0.186 0.213-0.216 0.351c-0.030 0.138-0.012 0.283 0.051 0.409s0.167 0.228 0.296 0.287 0.273 0.073 0.411 0.039c0.137-0.034 0.259-0.114 0.345-0.226s0.131-0.251 0.127-0.392-0.055-0.278-0.146-0.386c-0.053-0.063-0.118-0.115-0.191-0.152s-0.153-0.060-0.235-0.067l-0.052-0.002z"></path>
<path fill="#c6d7ff" style="fill: var(--color1, #c6d7ff)" d="M6.207 31.46c-0.008 0.097-0.045 0.19-0.105 0.266s-0.142 0.133-0.235 0.163-0.192 0.031-0.286 0.005c-0.094-0.027-0.177-0.081-0.24-0.155s-0.103-0.166-0.114-0.263 0.007-0.195 0.051-0.281c0.045-0.087 0.114-0.158 0.199-0.206s0.183-0.068 0.28-0.060c0.13 0.011 0.251 0.073 0.336 0.173s0.126 0.229 0.116 0.359z"></path>
<path fill="#9ebbff" style="fill: var(--color3, #9ebbff)" opacity="0.7" d="M10.507 30.87h-0.050c-0.080-0.006-0.159-0.027-0.23-0.063s-0.136-0.086-0.189-0.147c-0.052-0.061-0.091-0.131-0.115-0.207s-0.033-0.156-0.026-0.235c0.010-0.117 0.053-0.229 0.126-0.322s0.17-0.163 0.282-0.201c0.111-0.038 0.232-0.043 0.346-0.014s0.218 0.090 0.297 0.177c0.080 0.087 0.133 0.195 0.152 0.311s0.005 0.235-0.042 0.343c-0.047 0.108-0.125 0.2-0.223 0.264s-0.214 0.099-0.331 0.099l0.005-0.005zM10.507 29.735c-0.119 0.001-0.235 0.042-0.327 0.117s-0.157 0.179-0.182 0.296c-0.025 0.116-0.010 0.238 0.043 0.345s0.141 0.192 0.249 0.242c0.108 0.050 0.23 0.062 0.346 0.033s0.218-0.096 0.29-0.191 0.11-0.211 0.107-0.33c-0.003-0.119-0.046-0.234-0.123-0.325-0.045-0.053-0.1-0.097-0.161-0.128s-0.129-0.051-0.198-0.056l-0.044-0.002z"></path>
</symbol>
<symbol id="icon-Background-Main-Page" viewBox="0 0 11 32">
<path fill="#9ebbff" style="fill: var(--color3, #9ebbff)" d="M-25.109 9.882l3.817 0.461c3.817 0.461 11.45 1.382 19.083 4.608s15.266 8.755 22.899 11.52 15.266 2.765 22.899 3.225c7.633 0.461 15.266 1.382 19.083 1.843l3.816 0.461h-3.816c-3.816 0-11.45 0-19.083 0s-15.266 0-22.899 0c-7.633 0-15.266 0-22.899 0s-15.266 0-19.083 0h-3.817v-22.118z"></path>
<path fill="#ecf2ff" style="fill: var(--color2, #ecf2ff)" opacity="0.8" d="M80.303-6.118h-3.054c-3.054 0-9.162 0-15.271 1.941-6.108 1.853-12.216 5.647-18.325 5.647s-12.217-3.794-18.325-0.618-12.217 13.324-18.325 18.441c-6.108 5.118-12.217 5.118-18.325 3.794-6.108-1.235-12.217-3.794-15.271-5.029l-3.054-1.324v15.265h3.054c3.054 0 9.162 0 15.271 0s12.217 0 18.325 0c6.108 0 12.217 0 18.325 0s12.216 0 18.325 0c6.108 0 12.216 0 18.325 0s12.217 0 15.271 0h3.054v-38.118z"></path>
<path fill="#c6d7ff" style="fill: var(--color1, #c6d7ff)" opacity="0.7" d="M10.167 5.304h-0.070c-0.111-0.008-0.22-0.037-0.319-0.087s-0.188-0.119-0.261-0.203c-0.072-0.084-0.126-0.181-0.159-0.287s-0.046-0.216-0.036-0.326c0.014-0.163 0.074-0.318 0.174-0.447s0.236-0.226 0.39-0.279c0.154-0.053 0.321-0.060 0.479-0.020s0.301 0.125 0.412 0.245 0.184 0.27 0.211 0.43c0.027 0.161 0.007 0.326-0.059 0.476s-0.173 0.277-0.309 0.366c-0.136 0.089-0.296 0.137-0.459 0.138l0.007-0.007zM10.167 3.73c-0.165 0.001-0.325 0.058-0.453 0.162s-0.217 0.248-0.252 0.41-0.014 0.33 0.059 0.478c0.073 0.148 0.195 0.266 0.345 0.335s0.319 0.085 0.479 0.046c0.16-0.040 0.302-0.133 0.402-0.264s0.153-0.293 0.149-0.458c-0.004-0.165-0.064-0.324-0.17-0.45-0.062-0.073-0.138-0.134-0.223-0.178s-0.179-0.070-0.274-0.078l-0.061-0.003z"></path>
<path fill="#c6d7ff" style="fill: var(--color1, #c6d7ff)" d="M9.721 12.527c-0.007 0.079-0.037 0.155-0.086 0.218s-0.117 0.109-0.193 0.133c-0.076 0.024-0.157 0.026-0.234 0.004s-0.145-0.066-0.197-0.127c-0.052-0.061-0.084-0.136-0.093-0.215s0.005-0.159 0.042-0.23c0.036-0.071 0.093-0.13 0.163-0.168s0.149-0.056 0.229-0.049c0.107 0.009 0.205 0.060 0.275 0.141s0.103 0.187 0.095 0.294z"></path>
<path fill="#ecf2ff" style="fill: var(--color2, #ecf2ff)" d="M1.237 5.392c-0.007 0.080-0.036 0.155-0.086 0.218s-0.117 0.109-0.193 0.133c-0.076 0.024-0.157 0.026-0.234 0.004s-0.145-0.066-0.197-0.127c-0.052-0.061-0.084-0.136-0.093-0.215s0.005-0.159 0.042-0.23 0.093-0.13 0.163-0.168c0.070-0.039 0.149-0.056 0.229-0.049 0.107 0.009 0.205 0.060 0.275 0.141s0.103 0.187 0.095 0.294z"></path>
<path fill="#ecf2ff" style="fill: var(--color2, #ecf2ff)" d="M7.669 7.998c-0.004 0.053-0.024 0.103-0.057 0.145s-0.078 0.073-0.128 0.089c-0.051 0.016-0.105 0.017-0.156 0.003s-0.097-0.044-0.131-0.085c-0.034-0.041-0.056-0.090-0.062-0.143s0.004-0.106 0.028-0.154c0.024-0.047 0.062-0.086 0.109-0.112s0.1-0.037 0.153-0.033c0.071 0.006 0.137 0.040 0.183 0.094s0.069 0.125 0.063 0.196z"></path>
<path fill="#c6d7ff" style="fill: var(--color1, #c6d7ff)" opacity="0.7" d="M1.78 17.748h-0.045c-0.071-0.005-0.141-0.024-0.204-0.056s-0.121-0.076-0.167-0.13c-0.046-0.054-0.081-0.116-0.102-0.183s-0.029-0.138-0.023-0.209c0.009-0.104 0.047-0.203 0.112-0.286s0.151-0.144 0.25-0.178c0.099-0.034 0.205-0.038 0.306-0.013s0.193 0.080 0.264 0.157c0.071 0.077 0.118 0.172 0.135 0.276s0.004 0.209-0.038 0.304c-0.042 0.096-0.111 0.177-0.198 0.234s-0.189 0.088-0.294 0.088l0.005-0.005zM1.78 16.741c-0.106 0-0.208 0.037-0.29 0.104s-0.139 0.159-0.161 0.262c-0.022 0.103-0.009 0.211 0.038 0.306s0.125 0.17 0.221 0.215c0.096 0.044 0.204 0.055 0.307 0.029s0.193-0.085 0.257-0.169c0.064-0.084 0.098-0.187 0.095-0.293s-0.041-0.207-0.109-0.288c-0.040-0.047-0.088-0.086-0.143-0.114s-0.114-0.045-0.176-0.050l-0.039-0.002z"></path>
<path fill="#c6d7ff" style="fill: var(--color1, #c6d7ff)" d="M10.44 23.297c-0.007 0.079-0.037 0.155-0.086 0.218s-0.117 0.109-0.193 0.133c-0.076 0.024-0.157 0.026-0.234 0.004s-0.145-0.066-0.197-0.127c-0.052-0.061-0.084-0.136-0.093-0.215s0.005-0.159 0.042-0.23 0.093-0.13 0.163-0.168c0.070-0.039 0.149-0.056 0.229-0.049 0.107 0.009 0.205 0.060 0.275 0.141s0.103 0.187 0.095 0.294z"></path>
<path fill="#9ebbff" style="fill: var(--color3, #9ebbff)" opacity="0.7" d="M0.645 27.496h-0.053c-0.084-0.006-0.167-0.028-0.243-0.066s-0.143-0.090-0.199-0.154c-0.054-0.064-0.096-0.138-0.121-0.218s-0.035-0.164-0.028-0.248c0.010-0.124 0.056-0.241 0.132-0.339s0.179-0.171 0.296-0.212c0.117-0.040 0.244-0.046 0.364-0.015s0.229 0.095 0.313 0.186c0.084 0.091 0.14 0.205 0.16 0.327s0.005 0.248-0.045 0.362-0.131 0.21-0.235 0.278c-0.104 0.068-0.225 0.104-0.349 0.105l0.005-0.006zM0.645 26.3c-0.125 0.001-0.247 0.044-0.344 0.123s-0.165 0.189-0.192 0.311c-0.027 0.123-0.011 0.251 0.045 0.363s0.148 0.202 0.262 0.255 0.242 0.065 0.364 0.035c0.122-0.030 0.23-0.101 0.306-0.201s0.116-0.222 0.113-0.348-0.049-0.246-0.129-0.342c-0.047-0.056-0.105-0.102-0.17-0.135s-0.136-0.053-0.209-0.059l-0.046-0.002z"></path>
<path fill="#c6d7ff" style="fill: var(--color1, #c6d7ff)" d="M5.503 31.521c-0.007 0.086-0.040 0.168-0.093 0.236s-0.126 0.118-0.209 0.144-0.171 0.028-0.254 0.004c-0.083-0.024-0.157-0.072-0.213-0.137s-0.091-0.147-0.101-0.233 0.006-0.173 0.045-0.25c0.039-0.077 0.101-0.14 0.176-0.182s0.162-0.061 0.248-0.054c0.115 0.010 0.223 0.065 0.297 0.153s0.112 0.203 0.102 0.318z"></path>
<path fill="#9ebbff" style="fill: var(--color3, #9ebbff)" opacity="0.7" d="M9.315 30.998h-0.045c-0.071-0.005-0.141-0.024-0.204-0.056s-0.121-0.076-0.167-0.13c-0.046-0.054-0.081-0.116-0.102-0.183s-0.029-0.138-0.023-0.209c0.009-0.104 0.047-0.203 0.112-0.286s0.151-0.144 0.25-0.178c0.099-0.034 0.205-0.038 0.306-0.013s0.193 0.080 0.264 0.157c0.071 0.077 0.118 0.172 0.135 0.276s0.004 0.209-0.038 0.304c-0.042 0.096-0.111 0.177-0.198 0.234s-0.189 0.088-0.294 0.088l0.005-0.005zM9.315 29.992c-0.106 0.001-0.208 0.037-0.29 0.104s-0.139 0.159-0.161 0.262c-0.022 0.103-0.009 0.211 0.038 0.306s0.125 0.17 0.221 0.215c0.096 0.044 0.204 0.055 0.307 0.029s0.193-0.085 0.257-0.169 0.098-0.187 0.095-0.293c-0.002-0.106-0.041-0.207-0.109-0.288-0.040-0.047-0.088-0.086-0.143-0.114s-0.114-0.045-0.176-0.050l-0.039-0.002z"></path>
</symbol>
</defs>
</svg>
