<svg width="320" height="952" fill="none" xmlns="http://www.w3.org/2000/svg">
  <g clip-path="url(#a)">
    <path fill-rule="evenodd" clip-rule="evenodd" d="m-747 294 113.5 13.7c113.6 13.7 340.7 41.1 567.8 137 227 96 454.1 260.6 681.2 342.8 227 82.3 454.2 82.3 681.3 96 227 13.7 454.1 41 567.7 54.8L1978 952H-747V294Z" fill="#9EBBFF"/>
    <path opacity=".8" fill-rule="evenodd" clip-rule="evenodd" d="M2389-182h-90.9c-90.8 0-272.5 0-454.3 57.8-181.7 55-363.4 168-545.1 168-181.8 0-363.5-113-545.2-18.4C571.8 119.9 390.1 421.8 208.3 574 26.6 726.3-155 726.3-336.8 686.9-518.6 650-700.3 574-791.1 537.3l-90.9-39.4V952h3271V-182Z" fill="#ECF2FF"/>
    <g clip-path="url(#b)">
      <path opacity=".7" d="M302.5 157.8h-2a25 25 0 0 1-22.1-17.2 24.8 24.8 0 0 1 4.1-23 25 25 0 1 1 19.8 40.4l.2-.2Zm0-46.8a21.6 21.6 0 1 0 1.8 0h-1.8Z" fill="#C6D7FF"/>
      <path d="M289.2 372.7a12 12 0 1 1-24-2 12 12 0 0 1 24 2Z" fill="#C6D7FF"/>
      <path d="M36.8 160.4a12 12 0 1 1-24-2 12 12 0 0 1 24 2ZM228.2 238a8 8 0 1 1-16-1.4 8 8 0 0 1 16 1.3Z" fill="#ECF2FF"/>
      <path opacity=".7" d="M53 528h-1.4a16 16 0 0 1-14-11 15.9 15.9 0 0 1 2.6-14.7 16 16 0 1 1 12.6 25.8l.2-.1Zm0-30a13.8 13.8 0 1 0 1.1.1H53Z" fill="#C6D7FF"/>
      <path d="M310.6 693a12 12 0 1 1-24-1.9 12 12 0 0 1 24 2Z" fill="#C6D7FF"/>
      <path opacity=".7" d="M19.2 818h-1.6A19 19 0 0 1 1 805a18.8 18.8 0 0 1 3-17.5 19 19 0 1 1 15 30.7l.2-.2Zm0-35.6a16.4 16.4 0 1 0 1.4.1h-1.4Z" fill="#9EBBFF"/>
      <path d="M163.7 937.8a13 13 0 1 1-26-2.2 13 13 0 0 1 26 2.2Z" fill="#C6D7FF"/>
      <path opacity=".7" d="M277.1 922.2h-1.3a16 16 0 0 1-14-11 15.8 15.8 0 0 1 2.5-14.7 16 16 0 1 1 12.7 25.8l.1-.1Zm0-30a13.8 13.8 0 1 0 1.2.1H277Z" fill="#9EBBFF"/>
    </g>
  </g>
  <defs>
    <clipPath id="a">
      <path fill="#fff" d="M0 0h320v952H0z"/>
    </clipPath>
    <clipPath id="b">
      <path fill="#fff" transform="translate(0 108)" d="M0 0h320v844H0z"/>
    </clipPath>
  </defs>
</svg>
