<svg version="1.0" xmlns="http://www.w3.org/2000/svg" width="220" height="270.67" viewBox="0 0 165 203"><path d="M70.5 10.2c-7.3 1.8-8.7 2.6-8.3 5.1.2 1.8 1 2.2 4.3 2.3 2.2.1 5.1.6 6.5 1.1 2.8 1.1 4.7.7 7.3-1.5 2.2-2 2.2-4.5-.1-6.5-2-1.9-3.7-1.9-9.7-.5zm9.5 1.7c2.2 4.3-2.4 7.4-7.8 5.2-1.5-.6-4-1-5.6-.8-3.6.3-4.6-1.9-1.4-3.2 2.8-1.1 9.7-2.8 12-3 1 0 2.2.8 2.8 1.8zM71 23.8c-3.7.6-6.1 3.2-5.8 6.1.3 2.5.6 2.6 6.6 2.6 5.1 0 6.6.4 7.8 1.9 2.2 3 1.7 7-1.1 9.6-1.8 1.7-2.5 3.4-2.5 6 0 4.3-1.3 5.7-9 9.5-6.9 3.4-13.4 9.6-16.5 15.6-1.6 3.1-4.1 5.7-7.8 8.2-3.1 2-6.3 4.6-7.1 5.9-.9 1.3-3.4 4.8-5.6 7.8-2.3 3.1-4.9 8.4-6.1 12.2-1.1 3.8-2.4 6.8-2.9 6.8-1.6 0-1.2-3.5 1-9 3.8-9.6 2-16.7-3.5-14.2-2.2 1-2.5 1.8-2.5 6 0 3.7-.5 5.4-2.1 6.8-3.7 3.4-4.9 7-5 15.1 0 4.3-.1 10.3-.2 13.3-.2 4.4.3 6.2 2.2 8.8 1.2 1.8 2.9 5.6 3.6 8.5 2.9 11.3 4.6 14.7 8.9 17.6 5.6 3.9 7.1 5.8 8.6 11.3.7 2.6 1.8 5.2 2.4 5.6.6.5 3.7 1.2 6.9 1.6 3.1.3 10.1 2.4 15.5 4.6 18.2 7.3 25.6 8.4 33.2 4.9 2.7-1.3 8.1-2.5 13.3-3 8.5-.8 16.6-3.7 20.7-7.4.8-.8 3.5-1.8 6-2.4 5.3-1.2 7.6-3.6 8.5-9.2a23 23 0 0 1 3.1-7.6c1.3-1.9 2.6-5.1 3-7.2.4-2 1.3-4.5 2-5.6 1.8-2.6 1.8-10.2-.1-15.6-2.6-7.3-3.9-23.1-2.5-30.2 2.4-11.8 2.3-13.9-.2-17.7-3.1-4.6-5.3-4.9-7.3-1.1-3.1 6.2-6.5.2-6.5-11.7 0-6.6.1-6.4-7.1-12.5-1.4-1.2-1.7-2.4-1.2-5.1 1.1-7.2-4.2-12.9-10.1-10.6-3.2 1.2-3.8 3.3-2.5 8.6 1.3 4.9.5 6.9-1.5 4.2-.9-1.2-1.1-4.7-.8-12.2.5-12.4.3-13-8.9-20.6-5.5-4.6-6.5-5-11.2-5-2.9-.1-7-.4-9.2-.8-2.2-.4-5.1-.6-6.5-.4zM85.8 27c4.7 0 5.8.4 10.6 4.2 8.4 6.7 9 8.2 8.2 20.2-.5 8.4-.4 10.5 1 12.4 1 1.5 2.4 2.2 3.7 2 2-.3 2.2-.8 1.9-7.1l-.3-6.7h2.8c4.9 0 5.8 1.3 5.5 7.9-.2 5.5 0 6.2 2.4 7.8 6 4.2 6.4 4.9 6.4 12.2 0 7.8 1.4 12.7 4 14.1 2.9 1.6 3.8 1.2 5.5-2.1 1.6-2.9 1.7-3 3.5-1.4 2.9 2.6 3.3 6.9 1.5 14.3-2.1 8.3-1.5 22.3 1.5 32.7 2.4 8.2 2.5 13.3.6 16.1-.8 1.1-1.7 3.8-2.1 6-.4 2.1-1.8 5.6-3.2 7.6-1.4 2-2.7 5.5-3 7.8-.6 4.5-3.2 7-7.1 7-1.3 0-4.3 1.4-6.8 3.1-6.5 4.5-10 5.6-19.9 6.7-5 .6-11 2-13.5 3.1s-5.7 2.1-7.1 2.1c-4 0-15.6-3.4-25.1-7.3-4.8-2-11.5-4-14.9-4.4l-6.2-.8-2-5.8c-1.6-5-2.8-6.5-7.3-10-3.1-2.4-5.7-5.3-6.1-6.7-.3-1.4-1.2-3.4-1.9-4.5-.8-1.1-1.4-3.6-1.4-5.5 0-2.4-1.1-5.3-3.2-8.6-2.5-3.9-3.1-5.8-3-9.4.1-2.5.2-8 .2-12.4.1-8.1.8-10.5 4.4-14.4 1.3-1.5 2.2-4.2 2.6-7.5.4-3.7.9-5.2 2-5.2 2.5 0 2.3 5.2-.6 13.1l-2.7 7.5 2.1 2.1c2.9 3 4.7 1.2 7.2-7.2 1.1-3.7 3.2-8.4 4.8-10.3 1.5-2 3.9-5.4 5.3-7.5 1.4-2.1 5.2-5.5 8.3-7.6 4-2.7 6.2-5 7.7-8.1 2.6-5.6 10.5-13 16.6-15.6 6.7-2.9 9.3-5.5 9.3-9.7 0-2.2.9-4.5 2.5-6.4 3.4-4 3.3-8.7-.2-12.3-2.5-2.5-3.2-2.6-8-2-4.8.6-5.3.5-5.3-1.3 0-2.7 1.5-3.2 8-2.6 3 .3 7.9.4 10.8.4z"/><path d="M54.5 110.4c-5.5 5.5-5.7 15.6-.4 20.1 6.3 5.2 12.9-.9 12.9-11.9 0-3.3-.7-5.2-2.6-7.5-3.1-3.8-6.6-4-9.9-.7zm8.3.8c.7.7 1.2 2.7 1.2 4.5 0 2.9-.3 3.3-2.5 3.3-3.3 0-5.2-3.8-3.6-6.9 1.3-2.4 3.1-2.7 4.9-.9zM57 126.9c.7 1.4.7 2.2-.1 2.7-1.4.8-4.3-2.1-3.5-3.5 1.1-1.7 2.4-1.3 3.6.8zM97.6 111.1c-7 8.3.8 25.8 9.1 20.3 6-3.9 6.7-14.6 1.3-20.4-3.7-3.9-7-3.9-10.4.1zm6.4.8c1.6 3-.4 7.1-3.4 7.1-3.2 0-4.3-3.3-2.2-6.5 2-3 4.2-3.2 5.6-.6zm4 15c0 2.4-1.8 3.7-3.2 2.3-.8-.8-.7-1.6.2-2.7 1.7-2.1 3-1.9 3 .4zM70 139.2c0 8.6 11.8 13.1 18.1 6.9 1.8-1.9 2.9-4 2.9-5.8v-2.8l-2 3.2c-2.2 3.7-4.8 5.3-8.5 5.3s-6.3-1.6-8.5-5.3c-1.3-2.1-2-2.6-2-1.5zM49.1 31.2c-1.7 4.3 3.1 8.5 6.4 5.8 1.8-1.5 1.9-5.2.3-6.8-2-2-5.8-1.4-6.7 1zm6.4.8c.8 2.6-.1 4-2.6 4-2.2 0-3.4-2.2-2.5-4.5.8-2.2 4.4-1.8 5.1.5zM109.4 30.5c-.9 2.4 2 12.3 4.3 14.6 2.8 2.8 7.3-2.1 7.3-8 0-5.5-9.9-11.1-11.6-6.6zm8.1 2.6c2.1 2.5 2.5 3.8 1.9 6.3-.3 1.7-1 3.5-1.4 3.9-1.3 1.5-4.5.3-4.8-1.8-.2-1.1-1-3.4-1.9-5.1-3.2-6.3 1.5-8.8 6.2-3.3zM63.3 37.5c-.3.9-.3 3.2 0 5.3.4 2 .2 4.4-.3 5.2-.8 1.2-1.1 1.2-2.8-.3-3.5-3.2-6.3-1.8-7.6 3.8-.5 1.9-3.5 5.6-8.1 10-5.7 5.5-7.5 7.9-8 10.9-1 4.9.7 8.6 3.9 8.6 3.4 0 4.6-2 5.3-8.5.5-4.5 1.1-6 3.5-8 1.6-1.4 4.2-2.8 5.6-3.1C67.8 58.2 75.2 45.2 68 38c-2.4-2.4-3.9-2.5-4.7-.5zm4.7 2.4c2.3 4.4.6 11.5-3.7 15.3-1 1-5 3-8.8 4.5C47.3 63 44 66.9 44 73.4c0 6.2-3.7 8.9-6 4.6-2-3.8.6-8.9 8.2-16.1 5-4.7 7.2-7.6 7.7-10 .5-2.7 1.2-3.4 3.1-3.4 1.6 0 2.9.9 3.6 2.4l1.2 2.3 1.7-2.6c1.4-2 1.6-3.8 1.1-7.6-.5-4.1-.4-5 .8-5 .9 0 2 .9 2.6 1.9zM33.6 52.2c-2 2.8-2 4.7-.1 5.4 2.3.9 4.5-1.5 4.5-4.7 0-3.5-2.2-3.9-4.4-.7zm3.4.6c0 .5-.7 1.7-1.5 2.8-1.4 1.9-1.4 1.9-1.5-.2 0-1.1.3-2.4.7-2.7.9-1 2.3-.9 2.3.1zM133.3 62.1c-1.8 1.8-1.6 4 .7 6.9 1.1 1.4 2 4.1 2 6.2 0 2 .3 4.3.6 5.2.9 2.3 5.7 2 7.9-.4 1.6-1.8 1.7-2.5.5-8.1-.7-3.3-2-6.9-2.9-8-2-2.4-7.2-3.5-8.8-1.8zm7.3 2.3c.7.6 1.9 3.7 2.9 7 1.5 5.5 1.5 5.9-.1 7.7-.9 1-2.5 1.9-3.6 1.9-1.5 0-1.8-.8-1.8-4.5 0-3.1-.8-5.5-2.5-8.1-1.9-2.9-2.2-4-1.4-5.1 1.3-1.4 4.6-.9 6.5 1.1zM24 71.4c0 .7-1.1 3-2.5 5-3.8 5.6-2.9 9.6 2 9.6 5.3 0 8.1-9.5 4.1-13.9-2.2-2.4-3.6-2.7-3.6-.7zm4 6.4c0 5.9-4.7 9.4-7 5.2-.9-1.7-.6-2.9 1.7-6.4 3.2-5.1 5.3-4.6 5.3 1.2zM148.5 115.9c0 9.4.3 11.2 1.9 13 2.6 2.9 5.7 2.3 7.4-1.2 1.4-3 1.4-3.4-1.9-15.9-.7-2.6-1.9-4.3-3.9-5.3-1.6-.8-3-1.5-3.2-1.5-.2 0-.3 4.9-.3 10.9zm5.5-6c.5 1.1 1.5 5.4 2.2 9.7 1.1 7.1 1.1 7.7-.7 9-1.7 1.3-2.2 1.2-3.9-.6-2-2-2.1-3-1.2-17.8.1-2.7 2.2-2.9 3.6-.3zM152.8 139.1c-2.1 1.2-2.4 6.9-.6 8.7 3.3 3.3 8.7-1.3 6.9-6-.5-1.4-1.7-2.8-2.6-3.2-2-.7-1.6-.8-3.7.5zm4.7 4.4c0 2.5-.4 3-2.5 3-1.6 0-2.6-.6-2.8-1.8-.6-3 .6-4.9 3-4.5 1.8.2 2.3.9 2.3 3.3zM2.5 151c-1.5 1.7-1.6 2.4-.7 4.5.7 1.4 1.9 2.8 2.7 3.2.9.3 2.7 2.7 4.1 5.4 3.8 7.5 8.3 5.8 5.2-1.9-.9-2-2.1-5.7-2.9-8.2-1.1-3.6-1.9-4.6-4-4.8-1.5-.2-3.2.5-4.4 1.8zm6.4 1.2c3.3 9.1 4.8 14.9 4.1 15.3-.5.3-2-1.6-3.4-4.2-1.3-2.6-3.4-5.4-4.5-6.1-2.3-1.3-2.9-5.7-.8-6.5 2.5-1.1 3.8-.6 4.6 1.5z"/></svg>