<svg aria-hidden="true" style="position: absolute; width: 0; height: 0; overflow: hidden;" version="1.1" xmlns="http://www.w3.org/2000/svg" xmlns:xlink="http://www.w3.org/1999/xlink">
<defs>
<symbol id="icon-userIcon" viewBox="0 0 32 32">
<path stroke-linejoin="miter" stroke-linecap="butt" stroke-miterlimit="4" stroke-width="1.3333" d="M31.333 16c0 8.468-6.865 15.333-15.333 15.333s-15.333-6.865-15.333-15.333c0-8.468 6.865-15.333 15.333-15.333s15.333 6.865 15.333 15.333z"></path>
<path stroke-linejoin="round" stroke-linecap="round" stroke-miterlimit="4" stroke-width="1.3333" d="M20.001 9.436c0 1.088-0.421 2.132-1.172 2.901s-1.768 1.202-2.829 1.202c-1.061 0-2.079-0.432-2.829-1.202s-1.172-1.813-1.172-2.901c0-1.088 0.421-2.132 1.172-2.901s1.768-1.202 2.829-1.202c1.061 0 2.079 0.432 2.829 1.202s1.172 1.813 1.172 2.901zM8 24.881c0.034-2.153 0.892-4.205 2.389-5.715s3.512-2.356 5.611-2.356c2.099 0 4.115 0.846 5.611 2.356s2.355 3.562 2.389 5.715c-2.51 1.18-5.239 1.789-8 1.785-2.855 0-5.564-0.639-8-1.785z"></path>
</symbol>
<symbol id="icon-arrow-right" viewBox="0 0 32 32">
<path stroke-linejoin="round" stroke-linecap="round" stroke-miterlimit="4" stroke-width="1.3333" d="M21 12v-5c0-0.796-0.316-1.559-0.879-2.121s-1.326-0.879-2.121-0.879h-8c-0.796 0-1.559 0.316-2.121 0.879s-0.879 1.326-0.879 2.121v18c0 0.796 0.316 1.559 0.879 2.121s1.326 0.879 2.121 0.879h8c0.796 0 1.559-0.316 2.121-0.879s0.879-1.326 0.879-2.121v-5M25 20l4-4M29 16l-4-4M29 16h-17"></path>
</symbol>
<symbol id="icon-down" viewBox="0 0 32 32">
<path d="M16.706 21.707c-0.187 0.187-0.442 0.293-0.707 0.293s-0.519-0.105-0.707-0.293l-10-10c-0.177-0.19-0.273-0.44-0.268-0.699s0.11-0.506 0.293-0.689c0.183-0.183 0.43-0.288 0.689-0.293s0.51 0.092 0.699 0.268l9.293 9.293 9.293-9.293c0.092-0.098 0.202-0.177 0.325-0.232s0.255-0.084 0.389-0.086c0.134-0.002 0.268 0.022 0.392 0.073s0.238 0.125 0.333 0.22 0.17 0.208 0.22 0.333c0.050 0.125 0.075 0.258 0.073 0.392s-0.032 0.267-0.086 0.389-0.133 0.233-0.232 0.325l-10 10z"></path>
</symbol>
<symbol id="icon-settings" viewBox="0 0 32 32">
<path stroke-linejoin="round" stroke-linecap="round" stroke-miterlimit="4" stroke-width="1.3333" d="M12.792 5.253c0.12-0.723 0.747-1.253 1.48-1.253h3.457c0.733 0 1.36 0.531 1.48 1.253l0.284 1.708c0.084 0.499 0.417 0.915 0.86 1.16 0.099 0.053 0.196 0.111 0.293 0.169 0.432 0.261 0.96 0.343 1.433 0.165l1.623-0.608c0.333-0.125 0.699-0.128 1.033-0.008s0.616 0.354 0.793 0.662l1.728 2.996c0.177 0.308 0.24 0.668 0.177 1.018s-0.249 0.665-0.523 0.89l-1.337 1.103c-0.391 0.32-0.584 0.817-0.575 1.323 0.002 0.113 0.002 0.227 0 0.34-0.009 0.504 0.184 1 0.573 1.32l1.34 1.104c0.565 0.467 0.712 1.272 0.347 1.907l-1.731 2.996c-0.177 0.307-0.458 0.542-0.793 0.662s-0.7 0.117-1.033-0.007l-1.623-0.608c-0.473-0.177-1-0.096-1.435 0.165-0.097 0.059-0.194 0.116-0.293 0.171-0.441 0.244-0.775 0.66-0.859 1.159l-0.284 1.707c-0.12 0.724-0.747 1.255-1.48 1.255h-3.459c-0.733 0-1.36-0.531-1.48-1.253l-0.284-1.708c-0.083-0.499-0.416-0.915-0.859-1.16-0.099-0.055-0.197-0.111-0.293-0.169-0.433-0.261-0.96-0.343-1.435-0.165l-1.623 0.608c-0.332 0.125-0.698 0.127-1.032 0.008s-0.615-0.354-0.793-0.661l-1.729-2.996c-0.177-0.308-0.24-0.668-0.176-1.018s0.249-0.665 0.523-0.89l1.339-1.103c0.389-0.32 0.583-0.817 0.573-1.323-0.002-0.113-0.002-0.227 0-0.34 0.009-0.504-0.184-1-0.573-1.32l-1.339-1.104c-0.274-0.225-0.459-0.541-0.523-0.89s-0.001-0.709 0.176-1.017l1.729-2.996c0.178-0.308 0.459-0.543 0.793-0.662s0.701-0.117 1.033 0.008l1.621 0.608c0.475 0.177 1.001 0.096 1.435-0.165 0.096-0.059 0.195-0.116 0.293-0.171 0.443-0.244 0.776-0.66 0.859-1.159l0.285-1.708z"></path>
<path stroke-linejoin="round" stroke-linecap="round" stroke-miterlimit="4" stroke-width="1.3333" d="M20 16c0 1.061-0.421 2.078-1.172 2.828s-1.768 1.172-2.828 1.172c-1.061 0-2.078-0.421-2.828-1.172s-1.172-1.768-1.172-2.828c0-1.061 0.421-2.078 1.172-2.828s1.768-1.172 2.828-1.172c1.061 0 2.078 0.421 2.828 1.172s1.172 1.768 1.172 2.828z"></path>
</symbol>
<symbol id="icon-show" viewBox="0 0 32 32">
<path stroke-linejoin="round" stroke-linecap="round" stroke-miterlimit="4" stroke-width="1.3333" d="M2.715 16.429c-0.092-0.277-0.092-0.575 0-0.852 1.849-5.564 7.099-9.577 13.285-9.577 6.184 0 11.431 4.009 13.284 9.571 0.093 0.276 0.093 0.575 0 0.852-1.848 5.564-7.097 9.577-13.284 9.577-6.184 0-11.432-4.009-13.285-9.571z"></path>
<path stroke-linejoin="round" stroke-linecap="round" stroke-miterlimit="4" stroke-width="1.3333" d="M20 16c0 1.061-0.421 2.078-1.172 2.828s-1.768 1.172-2.828 1.172c-1.061 0-2.078-0.421-2.828-1.172s-1.172-1.768-1.172-2.828c0-1.061 0.421-2.078 1.172-2.828s1.768-1.172 2.828-1.172c1.061 0 2.078 0.421 2.828 1.172s1.172 1.768 1.172 2.828z"></path>
</symbol>
<symbol id="icon-hide" viewBox="0 0 32 32">
<path stroke-linejoin="round" stroke-linecap="round" stroke-miterlimit="4" stroke-width="1.3333" d="M5.307 10.964c-1.247 1.472-2.176 3.187-2.728 5.036 1.723 5.784 7.080 10 13.421 10 1.324 0 2.604-0.184 3.817-0.527M8.304 8.304c2.284-1.507 4.96-2.308 7.696-2.304 6.341 0 11.697 4.216 13.42 9.997-0.944 3.159-2.971 5.885-5.724 7.699M8.304 8.304l-4.304-4.304M8.304 8.304l4.867 4.867M23.696 23.696l4.304 4.304M23.696 23.696l-4.867-4.867c0.371-0.371 0.666-0.812 0.867-1.298s0.304-1.005 0.304-1.531-0.103-1.045-0.304-1.531c-0.201-0.485-0.496-0.926-0.867-1.298s-0.813-0.666-1.298-0.867c-0.485-0.201-1.005-0.304-1.531-0.304s-1.046 0.103-1.531 0.305c-0.485 0.201-0.926 0.496-1.298 0.867M18.828 18.828l-5.655-5.655"></path>
</symbol>
<symbol id="icon-delete" viewBox="0 0 32 32">
<path stroke-linejoin="round" stroke-linecap="round" stroke-miterlimit="4" stroke-width="1.3333" d="M19.653 12l-0.461 12M12.808 24l-0.461-12M25.637 7.72c0.456 0.069 0.909 0.143 1.363 0.221M25.637 7.72l-1.424 18.511c-0.058 0.754-0.399 1.458-0.953 1.971s-1.283 0.799-2.039 0.798h-10.443c-0.756 0-1.484-0.285-2.039-0.798s-0.895-1.217-0.953-1.971l-1.424-18.511M25.637 7.72c-1.539-0.233-3.086-0.409-4.637-0.529M6.363 7.72c-0.456 0.068-0.909 0.141-1.363 0.22M6.363 7.72c1.539-0.233 3.086-0.409 4.637-0.529M21 7.191v-1.221c0-1.573-1.213-2.885-2.787-2.935-1.475-0.047-2.951-0.047-4.427 0-1.573 0.049-2.787 1.363-2.787 2.935v1.221M21 7.191c-3.328-0.257-6.672-0.257-10 0"></path>
</symbol>
<symbol id="icon-edit" viewBox="0 0 32 32">
<path stroke-linejoin="round" stroke-linecap="round" stroke-miterlimit="4" stroke-width="1.3333" d="M22.483 5.983l2.249-2.251c0.469-0.469 1.105-0.732 1.768-0.732s1.299 0.263 1.768 0.732c0.469 0.469 0.732 1.105 0.732 1.768s-0.263 1.299-0.732 1.768l-14.159 14.159c-0.705 0.705-1.574 1.222-2.529 1.507l-3.58 1.067 1.067-3.58c0.284-0.955 0.802-1.824 1.507-2.529l11.909-11.908zM22.483 5.983l3.517 3.517M24 18.667v6.333c0 0.796-0.316 1.559-0.879 2.121s-1.326 0.879-2.121 0.879h-14c-0.796 0-1.559-0.316-2.121-0.879s-0.879-1.326-0.879-2.121v-14c0-0.796 0.316-1.559 0.879-2.121s1.326-0.879 2.121-0.879h6.333"></path>
</symbol>
<symbol id="icon-plus" viewBox="0 0 32 32">
<path stroke-linejoin="miter" stroke-linecap="butt" stroke-miterlimit="4" stroke-width="1.3333" d="M0.667 0.667h30.667v30.667h-30.667v-30.667z"></path>
<path stroke-linejoin="round" stroke-linecap="round" stroke-miterlimit="4" stroke-width="1.3333" d="M16 8v16M24 16h-16"></path>
</symbol>
<symbol id="icon-minus" viewBox="0 0 32 32">
<path d="M7 16c0-0.265 0.105-0.52 0.293-0.707s0.442-0.293 0.707-0.293h16c0.265 0 0.52 0.105 0.707 0.293s0.293 0.442 0.293 0.707-0.105 0.52-0.293 0.707c-0.187 0.188-0.442 0.293-0.707 0.293h-16c-0.265 0-0.52-0.105-0.707-0.293s-0.293-0.442-0.293-0.707z"></path>
</symbol>
<symbol id="icon-up-arrow" viewBox="0 0 32 32">
<path stroke-linejoin="round" stroke-linecap="round" stroke-miterlimit="4" stroke-width="1.3333" d="M4 22v3c0 0.796 0.316 1.559 0.879 2.121s1.326 0.879 2.121 0.879h18c0.796 0 1.559-0.316 2.121-0.879s0.879-1.326 0.879-2.121v-3M10 10l6-6M16 4l6 6M16 4v18"></path>
</symbol>
<symbol id="icon-add" viewBox="0 0 32 32">
<path stroke-linejoin="round" stroke-linecap="round" stroke-miterlimit="4" stroke-width="1.3333" d="M16 12v8M20 16h-8M28 16c0 1.576-0.31 3.136-0.913 4.592s-1.487 2.779-2.601 3.893c-1.114 1.114-2.437 1.998-3.893 2.601s-3.016 0.913-4.592 0.913-3.136-0.31-4.592-0.913c-1.456-0.603-2.779-1.487-3.893-2.601s-1.998-2.437-2.601-3.893c-0.603-1.456-0.913-3.016-0.913-4.592 0-3.183 1.264-6.235 3.515-8.485s5.303-3.515 8.485-3.515c3.183 0 6.235 1.264 8.485 3.515s3.515 5.303 3.515 8.485z"></path>
</symbol>
<symbol id="icon-arrow" viewBox="0 0 32 32">
<path d="M9.706 10.293c0.187 0.188 0.292 0.442 0.292 0.707s-0.105 0.519-0.292 0.707l-3.293 3.293h21.587c0.265 0 0.52 0.105 0.707 0.293s0.293 0.442 0.293 0.707c0 0.265-0.105 0.519-0.293 0.707s-0.442 0.293-0.707 0.293h-21.587l3.293 3.293c0.098 0.091 0.177 0.202 0.232 0.325s0.084 0.255 0.086 0.389c0.002 0.134-0.022 0.268-0.073 0.392s-0.125 0.238-0.22 0.333-0.208 0.17-0.333 0.22c-0.125 0.050-0.258 0.075-0.392 0.073s-0.267-0.032-0.389-0.086-0.233-0.133-0.325-0.232l-5-5c-0.187-0.188-0.292-0.442-0.292-0.707s0.105-0.519 0.292-0.707l5-5c0.188-0.187 0.442-0.292 0.707-0.292s0.519 0.105 0.707 0.292z"></path>
</symbol>
<symbol id="icon-tools" viewBox="0 0 32 32">
<path stroke-linejoin="round" stroke-linecap="round" stroke-miterlimit="4" stroke-width="1.6" d="M15.227 20.227l7.773 7.773c0.667 0.645 1.56 1.003 2.488 0.995s1.816-0.379 2.472-1.036c0.656-0.656 1.028-1.544 1.036-2.472s-0.35-1.821-0.995-2.488l-7.836-7.836M15.227 20.227l3.328-4.040c0.423-0.512 0.987-0.835 1.611-1.021 0.733-0.219 1.551-0.251 2.324-0.187 1.042 0.090 2.090-0.095 3.039-0.536s1.766-1.121 2.371-1.975 0.975-1.851 1.076-2.893c0.1-1.041-0.074-2.091-0.504-3.045l-4.368 4.369c-0.731-0.169-1.399-0.54-1.93-1.070s-0.901-1.199-1.070-1.93l4.368-4.368c-0.954-0.431-2.003-0.605-3.044-0.504s-2.039 0.471-2.893 1.076-1.535 1.422-1.975 2.371c-0.44 0.949-0.625 1.997-0.536 3.039 0.121 1.435-0.095 3.019-1.205 3.933l-0.136 0.113M15.227 20.227l-6.207 7.537c-0.301 0.367-0.675 0.666-1.099 0.88s-0.887 0.336-1.361 0.359c-0.474 0.023-0.947-0.053-1.39-0.224s-0.844-0.432-1.18-0.767-0.597-0.737-0.767-1.18c-0.171-0.442-0.247-0.916-0.223-1.39s0.146-0.937 0.359-1.361c0.213-0.424 0.513-0.798 0.88-1.099l9.116-7.507-5.476-5.476h-1.879l-3-5 2-2 5 3v1.879l5.68 5.68-2.327 1.916M24.5 24.5l-3.5-3.5M6.489 25.5h0.011v0.011h-0.011v-0.011z"></path>
</symbol>
<symbol id="icon-outline" viewBox="0 0 32 32">
<path stroke-linejoin="round" stroke-linecap="round" stroke-miterlimit="4" stroke-width="1.6" d="M5 4v15c0 0.796 0.316 1.559 0.879 2.121s1.326 0.879 2.121 0.879h3M5 4h-2M5 4h22M11 22h10M11 22l-1.333 4M27 4h2M27 4v15c0 0.796-0.316 1.559-0.879 2.121s-1.326 0.879-2.121 0.879h-3M21 22l1.333 4M9.667 26h12.667M9.667 26l-0.667 2M22.333 26l0.667 2M12 15v2M16 12v5M20 9v8"></path>
</symbol>
<symbol id="icon-calendar" viewBox="0 0 32 32">
<path stroke-linejoin="round" stroke-linecap="round" stroke-miterlimit="4" stroke-width="1.6" d="M9 4v3M23 4v3M4 25v-15c0-0.796 0.316-1.559 0.879-2.121s1.326-0.879 2.121-0.879h18c0.796 0 1.559 0.316 2.121 0.879s0.879 1.326 0.879 2.121v15M4 25c0 0.796 0.316 1.559 0.879 2.121s1.326 0.879 2.121 0.879h18c0.796 0 1.559-0.316 2.121-0.879s0.879-1.326 0.879-2.121M4 25v-10c0-0.796 0.316-1.559 0.879-2.121s1.326-0.879 2.121-0.879h18c0.796 0 1.559 0.316 2.121 0.879s0.879 1.326 0.879 2.121v10M16 17h0.011v0.011h-0.011v-0.011zM16 20h0.011v0.011h-0.011v-0.011zM16 23h0.011v0.011h-0.011v-0.011zM13 20h0.011v0.011h-0.011v-0.011zM13 23h0.011v0.011h-0.011v-0.011zM10 20h0.011v0.011h-0.011v-0.011zM10 23h0.011v0.011h-0.011v-0.011zM19 17h0.011v0.011h-0.011v-0.011zM19 20h0.011v0.011h-0.011v-0.011zM19 23h0.011v0.011h-0.011v-0.011zM22 17h0.011v0.011h-0.011v-0.011zM22 20h0.011v0.011h-0.011v-0.011z"></path>
</symbol>
<symbol id="icon-close" viewBox="0 0 14 14">
<path d='M1 13L13 1M1 1L13 13' stroke='#407BFF' stroke-width='1.5' stroke-linecap='round' stroke-linejoin='round'/>
</symbol>
<symbol id="glass-water" viewBox="0 0 36 36">
<path d="M6.26074 3.13049L8.39948 32.7888V32.8696H26.812L28.9507 3.22281V3.13049H6.26074ZM26.0554 32.0387H9.16169L7.55764 9.82382H8.4393L9.88977 29.4018C9.89826 29.5049 9.94436 29.601 10.0191 29.6715C10.0937 29.7419 10.1917 29.7815 10.2936 29.7826H10.3278C10.3808 29.779 10.4327 29.7647 10.4803 29.7407C10.5279 29.7166 10.5704 29.6833 10.6053 29.6425C10.6402 29.6018 10.6668 29.5544 10.6836 29.5032C10.7004 29.452 10.707 29.3979 10.7032 29.3441L9.2527 9.82382H27.6595L26.0554 32.0387ZM27.7164 8.99292H9.19013L8.8716 4.66534C8.86159 4.55977 8.81268 4.46191 8.73465 4.39131C8.65662 4.32071 8.55521 4.28257 8.45067 4.28451C8.34354 4.29479 8.24452 4.34686 8.17449 4.42974C8.10446 4.51262 8.06888 4.61984 8.07526 4.72881L8.39379 8.99869H7.50076L7.13671 3.95562H28.0804L27.7164 8.99292Z" fill="#407BFF" />
<path d="M12.7794 13.9321C13.0449 13.9321 13.3045 13.8522 13.5252 13.7026C13.746 13.553 13.918 13.3403 14.0196 13.0915C14.1212 12.8427 14.1478 12.5689 14.096 12.3047C14.0442 12.0405 13.9164 11.7979 13.7286 11.6075C13.5409 11.417 13.3017 11.2873 13.0413 11.2348C12.7809 11.1822 12.511 11.2092 12.2657 11.3123C12.0204 11.4153 11.8108 11.5899 11.6632 11.8138C11.5157 12.0378 11.437 12.301 11.437 12.5704C11.437 12.9315 11.5784 13.2779 11.8302 13.5333C12.0819 13.7886 12.4234 13.9321 12.7794 13.9321ZM12.7794 12.0337C12.884 12.0337 12.9863 12.0652 13.0733 12.1242C13.1603 12.1831 13.2281 12.267 13.2681 12.365C13.3082 12.4631 13.3187 12.571 13.2982 12.6751C13.2778 12.7791 13.2274 12.8748 13.1535 12.9498C13.0795 13.0249 12.9852 13.076 12.8826 13.0967C12.78 13.1174 12.6736 13.1068 12.577 13.0661C12.4803 13.0255 12.3977 12.9567 12.3396 12.8685C12.2814 12.7802 12.2504 12.6765 12.2504 12.5704C12.2504 12.428 12.3061 12.2916 12.4054 12.1909C12.5046 12.0903 12.6391 12.0337 12.7794 12.0337Z" fill="#407BFF" />
<path d="M12.7735 18.3578C12.7769 18.6266 12.8586 18.8884 13.0084 19.1102C13.1582 19.332 13.3694 19.5038 13.6153 19.604C13.8612 19.7043 14.1308 19.7284 14.3902 19.6735C14.6497 19.6185 14.8872 19.4869 15.073 19.2952C15.2588 19.1036 15.3846 18.8604 15.4343 18.5963C15.4841 18.3323 15.4557 18.0592 15.3528 17.8115C15.2498 17.5638 15.0769 17.3525 14.8558 17.2043C14.6347 17.0561 14.3753 16.9777 14.1103 16.9788C13.933 16.9795 13.7577 17.0159 13.5943 17.0857C13.431 17.1556 13.2829 17.2576 13.1586 17.3858C13.0344 17.514 12.9364 17.6659 12.8703 17.8327C12.8042 17.9996 12.7713 18.178 12.7735 18.3578ZM14.6393 18.3578C14.6393 18.464 14.6082 18.5677 14.5501 18.656C14.492 18.7442 14.4094 18.813 14.3127 18.8536C14.216 18.8942 14.1097 18.9048 14.0071 18.8841C13.9044 18.8634 13.8102 18.8123 13.7362 18.7373C13.6622 18.6622 13.6118 18.5666 13.5914 18.4625C13.571 18.3584 13.5815 18.2505 13.6215 18.1525C13.6616 18.0544 13.7294 17.9706 13.8164 17.9116C13.9034 17.8527 14.0056 17.8212 14.1103 17.8212C14.2506 17.8212 14.3851 17.8777 14.4843 17.9784C14.5835 18.079 14.6393 18.2155 14.6393 18.3578Z" fill="#407BFF" />
<path d="M22.3126 18.3924C22.5781 18.3924 22.8377 18.3126 23.0584 18.1629C23.2792 18.0133 23.4512 17.8006 23.5528 17.5518C23.6544 17.303 23.681 17.0292 23.6292 16.765C23.5774 16.5009 23.4496 16.2582 23.2618 16.0678C23.0741 15.8773 22.8349 15.7477 22.5745 15.6951C22.3141 15.6426 22.0442 15.6695 21.7989 15.7726C21.5536 15.8757 21.344 16.0502 21.1964 16.2741C21.0489 16.4981 20.9702 16.7614 20.9702 17.0307C20.9702 17.3918 21.1116 17.7382 21.3634 17.9936C21.6151 18.249 21.9566 18.3924 22.3126 18.3924ZM22.3126 16.4998C22.4175 16.4998 22.52 16.5315 22.6071 16.5907C22.6942 16.6499 22.762 16.7341 22.8019 16.8325C22.8417 16.9309 22.8519 17.039 22.831 17.1433C22.8101 17.2475 22.7592 17.3431 22.6846 17.418C22.6101 17.4928 22.5153 17.5434 22.4123 17.5635C22.3093 17.5835 22.2028 17.5721 22.1062 17.5306C22.0096 17.4891 21.9274 17.4194 21.87 17.3304C21.8126 17.2414 21.7825 17.1371 21.7836 17.0307C21.7851 16.8894 21.8415 16.7544 21.9406 16.655C22.0396 16.5556 22.1733 16.4998 22.3126 16.4998Z" fill="#407BFF" />
<path d="M17.6368 15.8247C17.9023 15.8247 18.1619 15.7448 18.3826 15.5952C18.6034 15.4456 18.7754 15.2329 18.877 14.9841C18.9787 14.7352 19.0052 14.4614 18.9534 14.1973C18.9016 13.9331 18.7738 13.6905 18.5861 13.5C18.3983 13.3096 18.1591 13.1799 17.8987 13.1274C17.6383 13.0748 17.3684 13.1018 17.1231 13.2049C16.8778 13.3079 16.6682 13.4825 16.5207 13.7064C16.3732 13.9303 16.2944 14.1936 16.2944 14.4629C16.2944 14.8241 16.4359 15.1705 16.6876 15.4258C16.9394 15.6812 17.2808 15.8247 17.6368 15.8247ZM17.6368 13.9263C17.7415 13.9263 17.8437 13.9578 17.9307 14.0168C18.0177 14.0757 18.0855 14.1595 18.1256 14.2576C18.1656 14.3556 18.1761 14.4635 18.1557 14.5676C18.1353 14.6717 18.0849 14.7673 18.0109 14.8424C17.9369 14.9174 17.8427 14.9685 17.74 14.9893C17.6374 15.01 17.5311 14.9993 17.4344 14.9587C17.3377 14.9181 17.2551 14.8493 17.197 14.7611C17.1389 14.6728 17.1078 14.5691 17.1078 14.4629C17.104 14.3901 17.1148 14.3172 17.1396 14.2487C17.1645 14.1802 17.2028 14.1176 17.2524 14.0647C17.3019 14.0118 17.3615 13.9696 17.4276 13.9409C17.4937 13.9121 17.5649 13.8974 17.6368 13.8975V13.9263Z" fill="#407BFF" />
<path d="M15.0771 23.5451C15.0827 23.7664 15.1525 23.981 15.2777 24.1622C15.403 24.3434 15.5781 24.4831 15.7812 24.5639C15.9843 24.6446 16.2064 24.6628 16.4196 24.6162C16.6329 24.5696 16.8279 24.4602 16.9801 24.3018C17.1324 24.1433 17.2353 23.9428 17.2758 23.7254C17.3164 23.508 17.2928 23.2832 17.2081 23.0793C17.1234 22.8754 16.9812 22.7013 16.7995 22.5789C16.6178 22.4565 16.4045 22.3912 16.1863 22.3911C15.8896 22.3986 15.6075 22.5235 15.4002 22.7392C15.193 22.9548 15.0771 23.244 15.0771 23.5451ZM16.1863 23.2451C16.2448 23.2451 16.302 23.2627 16.3507 23.2957C16.3993 23.3286 16.4372 23.3755 16.4596 23.4303C16.482 23.4851 16.4878 23.5455 16.4764 23.6037C16.465 23.6619 16.4369 23.7153 16.3955 23.7573C16.3541 23.7993 16.3014 23.8278 16.244 23.8394C16.1867 23.851 16.1272 23.845 16.0731 23.8223C16.0191 23.7996 15.9729 23.7612 15.9404 23.7118C15.9079 23.6625 15.8906 23.6045 15.8906 23.5451C15.8906 23.4656 15.9217 23.3892 15.9772 23.333C16.0327 23.2767 16.1079 23.2451 16.1863 23.2451Z" fill="#407BFF" />
<path d="M20.4414 22.2931C20.6691 22.3011 20.894 22.2396 21.0868 22.1164C21.2797 21.9933 21.4317 21.8143 21.523 21.6025C21.6144 21.3908 21.641 21.1561 21.5994 20.9288C21.5577 20.7016 21.4497 20.4922 21.2894 20.3279C21.1292 20.1637 20.9239 20.052 20.7003 20.0074C20.4767 19.9628 20.2451 19.9874 20.0354 20.0779C19.8258 20.1684 19.6477 20.3207 19.5244 20.515C19.401 20.7094 19.338 20.9368 19.3436 21.1679C19.3507 21.4621 19.4683 21.7424 19.6723 21.9515C19.8764 22.1607 20.1515 22.2829 20.4414 22.2931ZM20.4414 20.8678C20.5199 20.8678 20.5951 20.8995 20.6506 20.9557C20.706 21.012 20.7372 21.0883 20.7372 21.1679C20.7372 21.2475 20.706 21.3238 20.6506 21.3801C20.5951 21.4363 20.5199 21.4679 20.4414 21.4679C20.3624 21.468 20.2866 21.4365 20.2302 21.3804C20.1738 21.3243 20.1414 21.248 20.1399 21.1679C20.1399 21.128 20.1478 21.0885 20.163 21.0517C20.1782 21.0149 20.2005 20.9816 20.2286 20.9537C20.2566 20.9257 20.2899 20.9037 20.3265 20.889C20.363 20.8743 20.4021 20.8671 20.4414 20.8678Z" fill="#407BFF" />
<path d="M22.7846 12.98C23.0096 12.98 23.2295 12.9124 23.4166 12.7856C23.6037 12.6587 23.7495 12.4785 23.8356 12.2676C23.9217 12.0568 23.9443 11.8247 23.9004 11.6009C23.8565 11.377 23.7481 11.1714 23.589 11.01C23.4299 10.8486 23.2272 10.7387 23.0065 10.6942C22.7859 10.6496 22.5571 10.6725 22.3492 10.7598C22.1414 10.8472 21.9637 10.9951 21.8387 11.1849C21.7137 11.3747 21.647 11.5978 21.647 11.826C21.647 12.1321 21.7668 12.4256 21.9802 12.642C22.1935 12.8585 22.4829 12.98 22.7846 12.98ZM22.7846 11.5548C22.8286 11.5421 22.875 11.5399 22.92 11.5483C22.965 11.5568 23.0074 11.5758 23.044 11.6038C23.0805 11.6318 23.1102 11.668 23.1306 11.7095C23.151 11.7511 23.1616 11.7969 23.1616 11.8433C23.1616 11.8898 23.151 11.9356 23.1306 11.9771C23.1102 12.0187 23.0805 12.0549 23.044 12.0829C23.0074 12.1108 22.965 12.1298 22.92 12.1383C22.875 12.1468 22.8286 12.1446 22.7846 12.1318C22.7406 12.1446 22.6942 12.1468 22.6492 12.1383C22.6042 12.1298 22.5618 12.1108 22.5252 12.0829C22.4887 12.0549 22.459 12.0187 22.4386 11.9771C22.4182 11.9356 22.4076 11.8898 22.4076 11.8433C22.4076 11.7969 22.4182 11.7511 22.4386 11.7095C22.459 11.668 22.4887 11.6318 22.5252 11.6038C22.5618 11.5758 22.6042 11.5568 22.6492 11.5483C22.6942 11.5399 22.7406 11.5421 22.7846 11.5548Z" fill="#407BFF" />
<path d="M11.6644 30.5904C11.6134 30.6143 11.5677 30.6485 11.5303 30.691C11.4929 30.7335 11.4645 30.7834 11.4469 30.8375C11.4293 30.8917 11.4229 30.9489 11.428 31.0056C11.4331 31.0624 11.4497 31.1175 11.4767 31.1674C11.5117 31.2348 11.564 31.2913 11.6281 31.331C11.6922 31.3706 11.7657 31.3918 11.8407 31.3925C11.9037 31.3942 11.9662 31.3804 12.0228 31.3521C13.7607 30.4489 15.6842 29.9744 17.6369 29.9672C19.7034 29.9978 21.7411 30.4634 23.6209 31.3348C23.6952 31.3742 23.7797 31.3894 23.8629 31.3785C23.9461 31.3676 24.024 31.331 24.0861 31.2738C24.1481 31.2165 24.1913 31.1413 24.2098 31.0583C24.2284 30.9753 24.2213 30.8885 24.1897 30.8097C24.1496 30.7074 24.0722 30.6247 23.9735 30.5789C21.9835 29.6554 19.8251 29.1641 17.6369 29.1364C15.5611 29.1382 13.5149 29.6364 11.6644 30.5904Z" fill="#407BFF" />
</symbol>
<symbol id="icon-increment" viewBox="0 0 14 14">
<path fill-rule="evenodd" clip-rule="evenodd" d="M7 0.25C7.19891 0.25 7.38968 0.329018 7.53033 0.46967C7.67098 0.610322 7.75 0.801088 7.75 1V6.25H13C13.1989 6.25 13.3897 6.32902 13.5303 6.46967C13.671 6.61032 13.75 6.80109 13.75 7C13.75 7.19891 13.671 7.38968 13.5303 7.53033C13.3897 7.67098 13.1989 7.75 13 7.75H7.75V13C7.75 13.1989 7.67098 13.3897 7.53033 13.5303C7.38968 13.671 7.19891 13.75 7 13.75C6.80109 13.75 6.61032 13.671 6.46967 13.5303C6.32902 13.3897 6.25 13.1989 6.25 13V7.75H1C0.801088 7.75 0.610322 7.67098 0.46967 7.53033C0.329018 7.38968 0.25 7.19891 0.25 7C0.25 6.80109 0.329018 6.61032 0.46967 6.46967C0.610322 6.32902 0.801088 6.25 1 6.25H6.25V1C6.25 0.801088 6.32902 0.610322 6.46967 0.46967C6.61032 0.329018 6.80109 0.25 7 0.25Z" fill="#407BFF" />
</symbol>
<symbol id="icon-left-arrow"   viewBox="0 0 14 14" fill="none" xmlns="http://www.w3.org/2000/svg">
  <path fill-rule="evenodd" clip-rule="evenodd" d="M4.50344 7.30915C4.42151 7.22712 4.37549 7.11593 4.37549 6.99999C4.37549 6.88405 4.42151 6.77285 4.50344 6.69082L8.87844 2.31582C8.91849 2.27284 8.96679 2.23836 9.02046 2.21445C9.07412 2.19054 9.13206 2.17768 9.1908 2.17664C9.24954 2.17561 9.30789 2.18641 9.36237 2.20842C9.41684 2.23042 9.46633 2.26317 9.50788 2.30472C9.54942 2.34626 9.58217 2.39575 9.60417 2.45022C9.62618 2.5047 9.63698 2.56305 9.63595 2.62179C9.63491 2.68054 9.62205 2.73847 9.59814 2.79214C9.57423 2.8458 9.53975 2.8941 9.49677 2.93415L5.43094 6.99999L9.49677 11.0658C9.53975 11.1059 9.57423 11.1542 9.59814 11.2078C9.62205 11.2615 9.63491 11.3194 9.63595 11.3782C9.63698 11.4369 9.62618 11.4953 9.60417 11.5498C9.58217 11.6042 9.54942 11.6537 9.50788 11.6953C9.46633 11.7368 9.41684 11.7696 9.36237 11.7916C9.30789 11.8136 9.24954 11.8244 9.1908 11.8233C9.13206 11.8223 9.07412 11.8094 9.02046 11.7855C8.96679 11.7616 8.91849 11.7271 8.87844 11.6842L4.50344 7.30915Z" fill="#407BFF" />
</symbol>

<symbol id="icon-right-arrow"  viewBox="0 0 14 14" fill="none" xmlns="http://www.w3.org/2000/svg">
  <path fill-rule="evenodd" clip-rule="evenodd" d="M9.49656 7.30915C9.57849 7.22712 9.62451 7.11593 9.62451 6.99999C9.62451 6.88405 9.57849 6.77285 9.49656 6.69082L5.12156 2.31582C5.08151 2.27284 5.03321 2.23836 4.97954 2.21445C4.92588 2.19054 4.86794 2.17768 4.8092 2.17664C4.75046 2.17561 4.69211 2.18641 4.63763 2.20842C4.58316 2.23042 4.53367 2.26317 4.49212 2.30472C4.45058 2.34626 4.41783 2.39575 4.39583 2.45022C4.37382 2.5047 4.36302 2.56305 4.36405 2.62179C4.36509 2.68054 4.37795 2.73847 4.40186 2.79214C4.42577 2.8458 4.46025 2.8941 4.50323 2.93415L8.56906 6.99999L4.50323 11.0658C4.46025 11.1059 4.42577 11.1542 4.40186 11.2078C4.37795 11.2615 4.36509 11.3194 4.36405 11.3782C4.36302 11.4369 4.37382 11.4953 4.39583 11.5498C4.41783 11.6042 4.45058 11.6537 4.49212 11.6953C4.53367 11.7368 4.58316 11.7696 4.63763 11.7916C4.69211 11.8136 4.75046 11.8244 4.8092 11.8233C4.86794 11.8223 4.92588 11.8094 4.97954 11.7855C5.03321 11.7616 5.08151 11.7271 5.12156 11.6842L9.49656 7.30915Z" fill="#407BFF" />
</symbol>
</defs>
</svg>
