<svg width="768" height="680" fill="none" xmlns="http://www.w3.org/2000/svg">
  <g clip-path="url(#a)">
    <path d="M8 554.1a14 14 0 1 1-28-2.2A14 14 0 0 1 8 554Z" fill="#C6D7FF"/>
    <path d="M12 244.7a9 9 0 1 1-18-1.4 9 9 0 0 1 18 1.4Z" fill="#ECF2FF"/>
    <path opacity=".7" d="M27.2 398.9h-1.3a15 15 0 0 1-13.2-10.3 14.9 14.9 0 0 1 2.5-13.8A15 15 0 1 1 27 399l.2-.1Zm0-28.1a13 13 0 1 0 1 0h-1Z" fill="#9EBBFF"/>
    <path d="M378 231.1a14 14 0 1 1-28-2.3 14 14 0 0 1 28 2.3Z" fill="#ECF2FF"/>
    <path opacity=".7" d="M588.3 139.8h-2.1a25 25 0 0 1-22-17.2 24.8 24.8 0 0 1 4-23A25 25 0 1 1 588 140l.3-.2Zm0-46.8a21.6 21.6 0 1 0 1.8 0h-1.8Z" fill="#C6D7FF"/>
    <path d="M613 350.1a14 14 0 1 1-28-2.3 14 14 0 0 1 28 2.3Z" fill="#C6D7FF"/>
    <path opacity=".7" d="M762.2 274.8h-1.8a22 22 0 0 1-19.4-15 21.8 21.8 0 0 1 3.6-20.3A22 22 0 1 1 762 275l.2-.2Zm0-41.2a19 19 0 1 0 1.6.1h-1.6Z" fill="#9EBBFF"/>
  </g>
  <defs>
    <clipPath id="a">
      <path fill="#fff" d="M0 0h768v680H0z"/>
    </clipPath>
  </defs>
</svg>
