<svg aria-hidden="true" style="position: absolute; width: 0; height: 0; overflow: hidden;" version="1.1" xmlns="http://www.w3.org/2000/svg" xmlns:xlink="http://www.w3.org/1999/xlink">
<defs>
<symbol id="icon-Bottle-Home-Screen" viewBox="0 0 43 32">
<path fill="#f5f5f5" style="fill: var(--color1, #f5f5f5)" d="M21.471 32c9.197 0 16.652-0.435 16.652-0.972s-7.456-0.972-16.652-0.972c-9.197 0-16.652 0.435-16.652 0.972s7.456 0.972 16.652 0.972z"></path>
<path fill="#407bff" style="fill: var(--color2, #407bff)" opacity="0.1" d="M11.792 24.241c0.010-0.077 0.050-0.148 0.111-0.197s0.138-0.073 0.216-0.067c0.735-0.011 1.423 0.508 2.061 1.066 0.142 0.123 0.295 0.25 0.454 0.121 0.049-0.041 0.085-0.095 0.103-0.156 0.028-0.1 0.028-0.206 0-0.306-0.024-0.083-0.063-0.16-0.116-0.228-0.277-0.365-0.615-0.54-0.889-0.917-0.153-0.216-0.281-0.45-0.379-0.696-0.086-0.216-0.258-0.566-0.189-0.859 0.076-0.35 0.338-0.32 0.497-0.272 0.502 0.15 0.971 0.508 1.397 0.954 0.454 0.474 0.866 1.045 1.275 1.613 0.155 0.216 0.318 0.437 0.515 0.515s0.447-0.048 0.531-0.359-0.015-0.668-0.035-0.977c-0.028-0.369-0.010-0.74 0.053-1.104 0.028-0.193 0.093-0.378 0.192-0.546 0.222-0.325 0.55-0.21 0.764 0.035 0.164 0.206 0.291 0.438 0.374 0.687 0.241 0.688 0.386 1.406 0.429 2.134 0.033 0.451 0.101 0.921 0.287 1.27 0.3 0.565 0.859 0.52 1.293 0.224 0.755-0.515 1.337-1.68 1.493-2.982 0.051-0.424 0.064-0.883 0.218-1.238 0.135-0.307 0.481-0.515 0.65-0.184 0.068 0.166 0.087 0.348 0.055 0.524-0.030 0.175-0.073 0.347-0.128 0.515-0.086 0.292-0.172 0.839 0.060 1.010 0.035 0.021 0.073 0.034 0.113 0.039s0.081 0 0.119-0.013c0.759-0.158 1.465-0.873 1.929-1.87 0.168-0.375 0.296-0.767 0.383-1.169 0.056-0.246 0.079-0.509 0.141-0.753 0.040-0.192 0.12-0.373 0.235-0.532 0.295-0.354 0.977-0.187 1.016 0.571 0.023 0.439-0.094 0.868-0.137 1.298-0.027 0.268 0.139 0.266 0.263 0.258 0.593-0.060 1.117-0.658 1.581-1.28 0.552-0.739 1.164-1.7 1.918-1.728 0.172-0.006 0.458 0.016 0.561 0.282 0.048 0.163 0.048 0.335 0 0.498-0.153 0.634-0.601 0.961-0.945 1.274-0.969 0.908-1.82 1.934-2.536 3.052-0.109 0.172-0.222 0.455-0.118 0.623 0.020 0.032 0.049 0.057 0.083 0.073s0.073 0.020 0.11 0.013c0.355-0.027 0.687-0.309 1.011-0.543s0.691-0.438 1.031-0.262c0.105 0.063 0.196 0.146 0.268 0.244s0.125 0.21 0.154 0.328c0.061 0.208 0.070 0.427 0.028 0.639-0.125 0.583-0.663 0.845-0.959 1.133-0.408 0.394-0.782 0.821-1.117 1.279-0.309 0.423-0.601 0.887-0.91 1.303-1.117 1.488-2.662 1.709-4.037 1.882-1.495 0.187-2.994 0.086-4.481-0.111-1.081-0.144-2.147-0.452-3.203-0.817-0.362-0.131-0.722-0.275-1.078-0.445-0.382-0.182-0.945-0.295-1.092-1.012-0.031-0.155 0.005-0.28 0.107-0.337 0.317-0.18 0.769 0.061 1.067 0.22 0.411 0.22 0.801 0.533 1.224 0.703 0.068 0.033 0.142 0.053 0.217 0.057s0.151-0.007 0.222-0.033c0.070-0.029 0.127-0.082 0.162-0.149 0.045-0.087 0.056-0.188 0.031-0.283-0.017-0.051-0.047-0.097-0.086-0.135-0.761-0.779-1.669-1.399-2.673-1.822-0.322-0.138-0.651-0.252-0.961-0.448-0.251-0.155-0.467-0.36-0.636-0.601-0.144-0.231-0.376-0.639-0.303-1.007z"></path>
<path fill="#407bff" style="fill: var(--color2, #407bff)" opacity="0.1" d="M28.22 17.928c-0.057 0.060-0.133 0.099-0.214 0.112s-0.165-0.001-0.238-0.040-0.131-0.1-0.166-0.175c-0.035-0.075-0.044-0.159-0.027-0.24 0.296-1.439 0.94-2.485 1.707-1.942 0.572 0.404-0.325 1.52-1.061 2.285z"></path>
<path fill="#407bff" style="fill: var(--color2, #407bff)" opacity="0.3" d="M26.141 18.599c0.234-0.129 0.433-0.315 0.578-0.539s0.232-0.482 0.254-0.749l0.581-7.072c0.030-0.364-0.016-0.729-0.136-1.074s-0.31-0.66-0.559-0.927l-1.789-1.916c-0.099-0.106-0.174-0.231-0.221-0.368s-0.066-0.282-0.054-0.426l0.086-1.036-4.63-0.38-0.086 1.036c-0.012 0.144-0.054 0.284-0.123 0.411s-0.164 0.238-0.278 0.327l-2.078 1.6c-0.289 0.223-0.528 0.503-0.702 0.824s-0.28 0.674-0.309 1.037l-0.581 7.072c-0.022 0.266 0.022 0.534 0.129 0.779s0.272 0.46 0.482 0.626c-0.234 0.129-0.433 0.315-0.578 0.539s-0.232 0.482-0.253 0.749l-0.741 9.017c-0.035 0.429 0.102 0.854 0.38 1.182s0.675 0.532 1.104 0.568l7.644 0.628c0.212 0.017 0.426-0.007 0.629-0.072s0.391-0.169 0.553-0.307c0.163-0.138 0.296-0.306 0.394-0.495s0.156-0.396 0.174-0.608l0.741-9.018c0.023-0.266-0.021-0.534-0.127-0.78s-0.271-0.461-0.48-0.627z"></path>
<path fill="#407bff" style="fill: var(--color2, #407bff)" opacity="0.3" d="M20.252 4.114l-0.066 0.799 4.629 0.381 0.066-0.799-4.629-0.381z"></path>
<path fill="#fff" style="fill: var(--color3, #fff)" opacity="0.3" d="M26.816 8.422l-1.789-1.918c0 0-1.154 0.050-0.258 1.464 0.764 1.196 2.094 1.010 2.047 0.453z"></path>
<path fill="#407bff" style="fill: var(--color2, #407bff)" opacity="0.2" d="M15.131 28.126c-0.035 0.429 0.102 0.854 0.38 1.182s0.675 0.532 1.104 0.568l7.644 0.628c0.212 0.017 0.426-0.007 0.629-0.072s0.391-0.169 0.553-0.307 0.296-0.306 0.394-0.495c0.097-0.189 0.156-0.396 0.174-0.608l-10.877-0.894z"></path>
<path fill="#407bff" style="fill: var(--color2, #407bff)" opacity="0.3" d="M26.482 8.588c0.2 0.214 0.353 0.468 0.449 0.744s0.133 0.57 0.11 0.862l-0.581 7.073c-0.015 0.182-0.075 0.357-0.174 0.51s-0.235 0.279-0.394 0.367l-0.676 0.374 0.605 0.48c0.143 0.113 0.256 0.26 0.329 0.427s0.103 0.35 0.088 0.532l-0.741 9.018c-0.024 0.292-0.163 0.563-0.386 0.753s-0.513 0.284-0.805 0.26l-7.644-0.628c-0.145-0.012-0.287-0.051-0.416-0.118s-0.245-0.157-0.34-0.268-0.166-0.239-0.211-0.378c-0.045-0.139-0.062-0.285-0.051-0.43l0.741-9.017c0.015-0.182 0.074-0.357 0.173-0.511s0.234-0.28 0.394-0.368l0.676-0.374-0.601-0.48c-0.143-0.113-0.256-0.259-0.329-0.427s-0.103-0.35-0.088-0.532l0.581-7.072c0.024-0.292 0.109-0.576 0.249-0.833s0.332-0.483 0.564-0.661c0.687-0.444 2.491 0.661 4.603 0.835s3.433-0.362 3.874-0.14z"></path>
<path fill="#407bff" style="fill: var(--color2, #407bff)" opacity="0.2" d="M22.604 8.729c-2.111-0.172-3.916-1.28-4.604-0.836 1.202 0.661 2.577 1.071 4.57 1.235s3.912-0.54 3.912-0.54c-0.441-0.222-1.768 0.315-3.879 0.141z"></path>
<path fill="#407bff" style="fill: var(--color2, #407bff)" opacity="0.2" d="M16.093 16.419c-0.022 0.266 0.022 0.534 0.129 0.779s0.272 0.46 0.482 0.626l9.438 0.773c0.234-0.129 0.433-0.315 0.578-0.539s0.233-0.482 0.254-0.749l-10.881-0.89z"></path>
<path fill="#407bff" style="fill: var(--color2, #407bff)" d="M24.977 3.228l-4.616-0.381c-0.193-0.016-0.363 0.128-0.379 0.321l-0.092 1.123c-0.016 0.193 0.128 0.363 0.321 0.379l4.616 0.381c0.193 0.016 0.363-0.128 0.379-0.321l0.092-1.123c0.016-0.193-0.128-0.363-0.321-0.379z"></path>
<path fill="#fff" style="fill: var(--color3, #fff)" opacity="0.2" d="M20.446 4.497c-0.006-0-0.011-0.002-0.016-0.005s-0.010-0.006-0.013-0.010c-0.004-0.004-0.006-0.009-0.008-0.015s-0.002-0.011-0.002-0.017l0.108-1.359c0.001-0.011 0.006-0.022 0.015-0.029s0.020-0.011 0.031-0.010 0.022 0.006 0.029 0.015c0.007 0.009 0.011 0.020 0.010 0.031l-0.112 1.358c-0.001 0.011-0.005 0.021-0.014 0.029s-0.018 0.012-0.029 0.012z"></path>
<path fill="#fff" style="fill: var(--color3, #fff)" opacity="0.2" d="M21.283 4.565c-0.006-0-0.011-0.002-0.016-0.005s-0.010-0.006-0.013-0.010c-0.004-0.004-0.006-0.009-0.008-0.015s-0.002-0.011-0.002-0.017l0.112-1.358c0.001-0.011 0.006-0.022 0.015-0.029s0.020-0.011 0.031-0.010c0.006 0 0.011 0.002 0.016 0.005s0.009 0.006 0.013 0.010c0.004 0.004 0.006 0.009 0.008 0.015s0.002 0.011 0.002 0.017l-0.114 1.358c-0.001 0.011-0.006 0.021-0.014 0.028s-0.018 0.011-0.029 0.012z"></path>
<path fill="#fff" style="fill: var(--color3, #fff)" opacity="0.2" d="M22.12 4.638c-0.006-0-0.011-0.002-0.016-0.005s-0.010-0.006-0.013-0.010c-0.004-0.004-0.006-0.009-0.008-0.015s-0.002-0.011-0.002-0.017l0.112-1.358c0.001-0.011 0.007-0.022 0.015-0.029s0.020-0.011 0.031-0.011c0.006 0 0.011 0.002 0.016 0.005s0.010 0.006 0.013 0.010c0.004 0.004 0.006 0.009 0.008 0.015s0.002 0.011 0.002 0.017l-0.112 1.358c-0 0.006-0.002 0.011-0.005 0.016s-0.006 0.010-0.010 0.013c-0.004 0.004-0.009 0.006-0.015 0.008s-0.011 0.002-0.017 0.002z"></path>
<path fill="#fff" style="fill: var(--color3, #fff)" opacity="0.2" d="M22.957 4.703c-0.006-0-0.011-0.002-0.016-0.005s-0.010-0.006-0.013-0.010c-0.004-0.004-0.006-0.009-0.008-0.015s-0.002-0.011-0.002-0.017l0.112-1.358c0.001-0.011 0.007-0.022 0.015-0.029s0.020-0.011 0.031-0.010c0.006 0 0.011 0.002 0.016 0.005s0.009 0.006 0.013 0.010c0.004 0.004 0.006 0.009 0.008 0.015s0.002 0.011 0.002 0.017l-0.112 1.358c-0 0.006-0.002 0.011-0.004 0.016s-0.006 0.010-0.010 0.013-0.009 0.006-0.015 0.008c-0.005 0.002-0.011 0.002-0.017 0.002z"></path>
<path fill="#fff" style="fill: var(--color3, #fff)" opacity="0.2" d="M23.79 4.772c-0.006-0-0.011-0.002-0.016-0.005s-0.010-0.006-0.013-0.010c-0.004-0.004-0.006-0.009-0.008-0.015s-0.002-0.011-0.002-0.017l0.112-1.358c0.002-0.011 0.007-0.021 0.016-0.029s0.020-0.011 0.031-0.011c0.006 0 0.011 0.002 0.016 0.005s0.010 0.006 0.013 0.010 0.006 0.009 0.008 0.015c0.002 0.005 0.002 0.011 0.002 0.017l-0.112 1.358c-0 0.006-0.002 0.011-0.004 0.016s-0.006 0.010-0.010 0.013c-0.004 0.004-0.009 0.006-0.015 0.008s-0.011 0.002-0.017 0.002z"></path>
<path fill="#fff" style="fill: var(--color3, #fff)" opacity="0.2" d="M24.631 4.84c-0.006-0-0.011-0.002-0.016-0.005s-0.010-0.006-0.013-0.010c-0.004-0.004-0.006-0.009-0.008-0.015s-0.002-0.011-0.002-0.017l0.108-1.359c0.001-0.011 0.007-0.022 0.015-0.029s0.020-0.011 0.031-0.010c0.011 0.001 0.022 0.007 0.029 0.015s0.011 0.020 0.010 0.031l-0.111 1.359c-0.001 0.011-0.006 0.021-0.014 0.028s-0.018 0.011-0.029 0.012z"></path>
<path fill="#407bff" style="fill: var(--color2, #407bff)" opacity="0.2" d="M17.521 14.056c-0.131-0.722-1.183-0.671-1.243 0.060l-0.189 2.302c-0.022 0.266 0.022 0.534 0.129 0.779s0.272 0.46 0.482 0.626c-0.234 0.129-0.433 0.315-0.578 0.539s-0.232 0.482-0.253 0.749l-0.741 9.017c-0.035 0.429 0.102 0.854 0.38 1.182s0.675 0.532 1.104 0.568l1.975 0.162c0.218 0.018 0.436-0.015 0.64-0.095s0.385-0.206 0.532-0.368c0.147-0.162 0.254-0.355 0.315-0.565s0.071-0.431 0.032-0.646l-2.584-14.312z"></path>
<path fill="#407bff" style="fill: var(--color2, #407bff)" opacity="0.3" d="M25.122 25.864c-0.014 0.166-0.076 0.323-0.179 0.453s-0.243 0.227-0.401 0.277c-0.158 0.051-0.328 0.053-0.488 0.008s-0.302-0.138-0.41-0.264-0.175-0.282-0.194-0.447c-0.019-0.165 0.011-0.332 0.087-0.48s0.194-0.27 0.339-0.35c0.145-0.081 0.311-0.117 0.477-0.103 0.222 0.018 0.428 0.124 0.572 0.294s0.215 0.39 0.197 0.612z"></path>
<path fill="#407bff" style="fill: var(--color2, #407bff)" opacity="0.3" d="M22.451 22.612c-0.010 0.117-0.054 0.229-0.127 0.321s-0.172 0.16-0.284 0.196-0.232 0.038-0.345 0.006c-0.113-0.032-0.214-0.097-0.29-0.187s-0.124-0.2-0.137-0.317c-0.013-0.117 0.008-0.235 0.062-0.339s0.137-0.191 0.24-0.248c0.103-0.057 0.22-0.082 0.337-0.073 0.157 0.013 0.302 0.088 0.404 0.208s0.152 0.276 0.139 0.433z"></path>
<path fill="#407bff" style="fill: var(--color2, #407bff)" opacity="0.3" d="M19.967 15.373c-0.117 0.005-0.234-0.024-0.334-0.085s-0.181-0.15-0.231-0.256c-0.050-0.106-0.067-0.225-0.050-0.341s0.069-0.225 0.148-0.312c0.079-0.087 0.182-0.149 0.296-0.177s0.234-0.022 0.344 0.017 0.207 0.111 0.277 0.206c0.070 0.094 0.11 0.207 0.116 0.325 0.004 0.078-0.008 0.156-0.034 0.23s-0.067 0.141-0.12 0.199c-0.053 0.058-0.116 0.105-0.187 0.138s-0.147 0.052-0.225 0.056z"></path>
<path fill="#407bff" style="fill: var(--color2, #407bff)" opacity="0.3" d="M21.587 11.82c-0.083 0.004-0.166-0.017-0.237-0.059s-0.129-0.106-0.164-0.181c-0.036-0.075-0.048-0.159-0.036-0.242s0.049-0.159 0.105-0.221c0.056-0.062 0.129-0.105 0.21-0.125s0.166-0.016 0.244 0.012c0.078 0.028 0.147 0.079 0.196 0.146s0.078 0.147 0.082 0.23c0.005 0.111-0.034 0.22-0.109 0.302s-0.179 0.132-0.291 0.137z"></path>
<path fill="#407bff" style="fill: var(--color2, #407bff)" opacity="0.3" d="M24.195 20.043c-0.004 0.048-0.022 0.095-0.053 0.132s-0.071 0.066-0.117 0.081c-0.046 0.015-0.096 0.016-0.142 0.002s-0.088-0.040-0.12-0.077c-0.031-0.037-0.051-0.082-0.057-0.131s0.003-0.097 0.025-0.14c0.022-0.043 0.057-0.079 0.099-0.102s0.091-0.034 0.139-0.030c0.065 0.005 0.125 0.036 0.167 0.086s0.063 0.114 0.058 0.179z"></path>
<path fill="#fff" style="fill: var(--color3, #fff)" opacity="0.7" d="M19.746 26.762h-0.041c-0.066-0.004-0.13-0.022-0.189-0.051s-0.111-0.070-0.155-0.12c-0.042-0.050-0.074-0.107-0.094-0.17s-0.027-0.128-0.022-0.193c0.008-0.096 0.044-0.188 0.103-0.264s0.14-0.133 0.231-0.165c0.091-0.031 0.19-0.035 0.283-0.012s0.178 0.074 0.244 0.145c0.066 0.071 0.109 0.16 0.125 0.255s0.004 0.193-0.035 0.282c-0.039 0.088-0.102 0.164-0.183 0.217s-0.175 0.081-0.272 0.081l0.004-0.004zM19.746 25.831c-0.098 0-0.192 0.034-0.268 0.096s-0.129 0.147-0.149 0.242-0.008 0.195 0.035 0.283c0.044 0.087 0.116 0.157 0.204 0.198s0.189 0.050 0.283 0.027c0.095-0.023 0.179-0.079 0.238-0.156s0.090-0.173 0.088-0.271-0.038-0.192-0.101-0.266c-0.037-0.043-0.082-0.079-0.132-0.105s-0.106-0.042-0.163-0.046l-0.036-0.002z"></path>
<path fill="#fff" style="fill: var(--color3, #fff)" opacity="0.7" d="M25.058 16.712h-0.030c-0.095-0.008-0.184-0.053-0.246-0.126s-0.093-0.167-0.085-0.263c0.008-0.096 0.053-0.184 0.127-0.246s0.168-0.092 0.263-0.085c0.095 0.008 0.184 0.053 0.246 0.126s0.093 0.167 0.085 0.263c-0.008 0.096-0.053 0.184-0.126 0.246-0.065 0.055-0.148 0.085-0.234 0.084zM24.762 16.327c-0.004 0.058 0.009 0.117 0.038 0.168s0.072 0.092 0.124 0.119c0.052 0.027 0.111 0.037 0.169 0.030s0.113-0.031 0.158-0.069c0.030-0.025 0.054-0.056 0.072-0.091s0.029-0.073 0.032-0.112c0.003-0.039-0.001-0.078-0.013-0.115s-0.031-0.072-0.056-0.101c-0.026-0.029-0.058-0.052-0.093-0.069s-0.074-0.026-0.113-0.027c-0.039-0.003-0.078 0.001-0.115 0.013s-0.072 0.031-0.101 0.056c-0.030 0.025-0.054 0.056-0.072 0.091s-0.029 0.073-0.032 0.111l0.003-0.004z"></path>
<path fill="#fff" style="fill: var(--color3, #fff)" opacity="0.7" d="M19.509 9.098h-0.013c-0.044-0.004-0.085-0.026-0.114-0.060s-0.043-0.078-0.040-0.122c0.002-0.033 0.014-0.066 0.034-0.092s0.048-0.047 0.079-0.058c0.032-0.011 0.066-0.013 0.098-0.005s0.062 0.025 0.085 0.049c0.023 0.024 0.038 0.055 0.044 0.088s0.002 0.067-0.012 0.098-0.035 0.057-0.063 0.075c-0.028 0.018-0.061 0.028-0.094 0.028l-0.004-0.001zM19.405 8.921c-0.002 0.020 0.003 0.041 0.013 0.059s0.025 0.032 0.043 0.042c0.018 0.009 0.039 0.013 0.059 0.011s0.040-0.011 0.055-0.024c0.016-0.013 0.027-0.031 0.033-0.051s0.005-0.041-0.001-0.060-0.018-0.037-0.034-0.050c-0.016-0.013-0.035-0.021-0.056-0.022-0.014-0.001-0.028 0-0.041 0.004s-0.025 0.011-0.036 0.020c-0.010 0.009-0.019 0.020-0.025 0.032s-0.010 0.026-0.011 0.039z"></path>
<path fill="#fff" style="fill: var(--color3, #fff)" opacity="0.7" d="M23.307 13.546h-0.036c-0.057-0.004-0.112-0.020-0.162-0.046s-0.095-0.061-0.132-0.105c-0.037-0.043-0.064-0.093-0.082-0.147s-0.023-0.111-0.019-0.167c0.007-0.083 0.039-0.162 0.090-0.227s0.121-0.115 0.2-0.141c0.079-0.027 0.164-0.030 0.244-0.009s0.154 0.064 0.21 0.125c0.056 0.061 0.094 0.138 0.107 0.22s0.003 0.166-0.030 0.243c-0.033 0.076-0.088 0.141-0.158 0.187s-0.151 0.070-0.234 0.071l0.001-0.002zM23.307 12.747c-0.086-0-0.17 0.030-0.236 0.086-0.074 0.063-0.121 0.152-0.129 0.249-0.005 0.060 0.005 0.12 0.029 0.176s0.061 0.104 0.108 0.141c0.047 0.037 0.103 0.063 0.162 0.074s0.12 0.007 0.178-0.012 0.109-0.051 0.151-0.094c0.042-0.043 0.073-0.096 0.089-0.154s0.019-0.119 0.006-0.178c-0.013-0.059-0.039-0.114-0.078-0.16-0.031-0.037-0.069-0.067-0.112-0.089s-0.090-0.035-0.138-0.039h-0.031z"></path>
<path fill="#fff" style="fill: var(--color3, #fff)" opacity="0.3" d="M26.83 17.301l0.555-6.744c0.003-0.043-0.002-0.086-0.015-0.128s-0.035-0.079-0.063-0.112c-0.028-0.033-0.062-0.060-0.101-0.080s-0.081-0.032-0.124-0.035c-0.043-0.004-0.086 0.001-0.128 0.014s-0.079 0.034-0.112 0.062c-0.033 0.028-0.060 0.062-0.080 0.101s-0.032 0.080-0.035 0.123l-0.555 6.744c-0.018 0.224-0.091 0.44-0.214 0.629s-0.289 0.344-0.486 0.453l-0.338 0.188 0.303 0.24c0.177 0.139 0.316 0.32 0.406 0.526s0.127 0.431 0.109 0.656l-0.741 9.017c-0.045 0.541-0.385 0.805-0.863 1.015-0.030 0.014-0.055 0.037-0.071 0.066s-0.021 0.063-0.016 0.096c0.006 0.033 0.022 0.063 0.046 0.085s0.056 0.036 0.089 0.039c0.361 0.029 0.718-0.085 0.994-0.319s0.448-0.568 0.477-0.928l0.741-9.017c0.018-0.224-0.019-0.45-0.109-0.656s-0.23-0.387-0.406-0.526l-0.303-0.241 0.338-0.187c0.197-0.109 0.364-0.264 0.486-0.453s0.196-0.405 0.214-0.629z"></path>
<path fill="#407bff" style="fill: var(--color2, #407bff)" opacity="0.3" d="M35.745 27.782c-0.093-0.421-1.251-0.172-1.49-0.133-0.466 0.084-0.921 0.216-1.36 0.392-0.483 0.19-1.045 0.469-1.546 0.18-0.289-0.167 0.715-0.495 0.806-0.529 0.427-0.15 0.839-0.339 1.232-0.565 0.159-0.094 0.466-0.32 0.334-0.55-0.11-0.19-0.504-0.172-0.744-0.143-0.726 0.089-1.438 0.268-2.121 0.532-0.663 0.264-1.313 0.561-1.946 0.891-0.245 0.138-0.512 0.235-0.789 0.284-0.302 0.043-0.672-0.021-0.792-0.189s0.034-0.363 0.070-0.532c0.050-0.201 0.029-0.413-0.059-0.601-0.058-0.126-0.157-0.229-0.279-0.294-0.327-0.172-0.822-0.108-1.151 0.028-0.213 0.090-0.408 0.219-0.575 0.38-0.336 0.312-0.571 0.717-0.677 1.164-0.027 0.14-0.081 0.273-0.159 0.392s-0.179 0.221-0.297 0.301c-0.46 0.31-1.304 0.292-1.949 0.137-1.126-0.267-1.985-0.891-2.192-1.597-0.1-0.336-0.149-0.687-0.601-0.819-0.292-0.086-0.903-0.026-0.773 0.344 0.047 0.101 0.109 0.195 0.184 0.278 0.119 0.157 0.247 0.453-0.108 0.549-0.115 0.024-0.233 0.030-0.349 0.017-1.141-0.076-2.19-0.457-2.87-0.993-0.222-0.174-0.41-0.388-0.555-0.629-0.081-0.133-0.11-0.277-0.198-0.408-0.085-0.127-0.204-0.226-0.344-0.286-0.438-0.188-1.467-0.090-1.539 0.322-0.039 0.223 0.1 0.465 0.172 0.678 0.013 0.027 0.016 0.057 0.009 0.086-0.021 0.054-0.102 0.070-0.172 0.074-0.92 0.061-1.812-0.296-2.584-0.669-0.818-0.395-1.718-0.909-2.854-0.915-0.235-0.011-0.47 0.016-0.697 0.080-0.057 0.015-0.111 0.043-0.156 0.081-0.028 0.029-0.046 0.065-0.053 0.105s-0.001 0.080 0.015 0.117c0.037 0.076 0.092 0.141 0.16 0.191 0.344 0.28 0.825 0.393 1.263 0.538 1.302 0.422 2.561 0.967 3.76 1.627 0.121 0.068 0.336 0.225 0.166 0.344s-0.515 0.042-0.719 0.009c-0.369-0.060-0.724-0.156-1.084-0.246-0.476-0.12-1.031-0.229-1.546-0.13-0.272 0.052-0.515 0.164-0.643 0.315-0.044 0.044-0.073 0.101-0.083 0.163s-0 0.125 0.028 0.181c0.177 0.315 0.983 0.451 1.424 0.601 0.564 0.192 1.116 0.42 1.652 0.681 0.458 0.227 0.883 0.475 1.347 0.697 1.657 0.794 3.971 0.897 6.039 0.974 2.246 0.086 4.502 0.013 6.742-0.112 1.632-0.091 3.234-0.271 4.833-0.482 0.46-0.060 0.916-0.134 1.374-0.197 0.465-0.053 0.924-0.144 1.374-0.272 0.162-0.041 0.313-0.117 0.442-0.222 0.123-0.114 0.161-0.264-0.058-0.307-0.46-0.092-0.934 0.013-1.384 0.094-0.505 0.093-1.005 0.2-1.501 0.32-0.226 0.060-0.455 0.107-0.687 0.14-0.233 0.033-0.47 0.017-0.697-0.045-0.074-0.023-0.155-0.064-0.159-0.13s0.058-0.107 0.121-0.131c0.927-0.368 1.911-0.601 2.902-0.816 0.672-0.146 1.357-0.235 2.035-0.35 0.618-0.104 1.269-0.128 1.804-0.52 0.106-0.069 0.189-0.169 0.237-0.286 0.023-0.060 0.029-0.126 0.016-0.19z"></path>
<path fill="#407bff" style="fill: var(--color2, #407bff)" opacity="0.3" d="M9.168 24.304c-0.252-0.715-1.148-1.982-1.337-1.234-0.101 0.42 1.337 1.234 1.337 1.234z"></path>
<path fill="#407bff" style="fill: var(--color2, #407bff)" opacity="0.3" d="M31.686 25.713c0.479-0.437 1.077-0.697 1.154-0.313 0.072 0.364-1.154 0.313-1.154 0.313z"></path>
<path fill="#407bff" style="fill: var(--color2, #407bff)" opacity="0.3" d="M12.024 22.236c-0.328-0.172-0.584-0.447-0.392-0.563s0.392 0.563 0.392 0.563z"></path>
</symbol>
<symbol id="icon-Background-element-Home-Screen" viewBox="0 0 19 32">
<path fill="#c6d7ff" style="fill: var(--color4, #c6d7ff)" opacity="0.7" d="M1.18 16.621h-0.039c-0.063-0.004-0.124-0.021-0.18-0.049s-0.107-0.067-0.148-0.115c-0.040-0.047-0.071-0.103-0.090-0.162s-0.026-0.122-0.021-0.184c0.008-0.092 0.042-0.18 0.099-0.252s0.133-0.127 0.22-0.157c0.087-0.030 0.181-0.034 0.271-0.011s0.17 0.071 0.233 0.139c0.063 0.068 0.104 0.152 0.119 0.243s0.004 0.184-0.033 0.269c-0.037 0.085-0.098 0.156-0.175 0.207s-0.167 0.078-0.26 0.078l0.004-0.004zM1.18 15.732c-0.093 0-0.184 0.033-0.256 0.091s-0.123 0.14-0.143 0.232c-0.020 0.091-0.008 0.186 0.034 0.27s0.11 0.15 0.195 0.19c0.085 0.039 0.18 0.048 0.271 0.026s0.171-0.075 0.227-0.149c0.057-0.074 0.086-0.165 0.084-0.259s-0.036-0.183-0.096-0.254c-0.035-0.041-0.078-0.076-0.126-0.1s-0.101-0.040-0.155-0.044l-0.034-0.002z"></path>
<path fill="#c6d7ff" style="fill: var(--color4, #c6d7ff)" d="M0.699 11.604c-0.006 0.069-0.032 0.135-0.075 0.189s-0.101 0.094-0.167 0.116c-0.066 0.021-0.137 0.022-0.203 0.003s-0.126-0.057-0.171-0.11c-0.045-0.053-0.073-0.118-0.081-0.186s0.005-0.138 0.036-0.2c0.032-0.062 0.081-0.112 0.141-0.146s0.13-0.049 0.199-0.043c0.093 0.008 0.178 0.052 0.238 0.123s0.090 0.163 0.082 0.255z"></path>
<path fill="#ecf2ff" style="fill: var(--color5, #ecf2ff)" d="M0.799 3.868c-0.004 0.044-0.020 0.087-0.048 0.121s-0.065 0.061-0.107 0.074c-0.042 0.014-0.088 0.014-0.131 0.002s-0.081-0.037-0.11-0.071c-0.029-0.034-0.047-0.076-0.052-0.12s0.003-0.089 0.023-0.128c0.020-0.040 0.052-0.072 0.091-0.094s0.083-0.031 0.128-0.028c0.059 0.005 0.115 0.033 0.153 0.079s0.058 0.104 0.053 0.164z"></path>
<path fill="#9ebbff" style="fill: var(--color6, #9ebbff)" opacity="0.7" d="M1.179 7.722h-0.031c-0.050-0.003-0.098-0.017-0.142-0.039s-0.084-0.053-0.117-0.091c-0.032-0.037-0.056-0.081-0.071-0.128s-0.021-0.096-0.016-0.145c0.006-0.073 0.033-0.142 0.078-0.199s0.105-0.101 0.174-0.124c0.069-0.024 0.143-0.027 0.214-0.009s0.134 0.056 0.184 0.109c0.049 0.054 0.082 0.12 0.094 0.192s0.003 0.146-0.026 0.212c-0.029 0.067-0.077 0.123-0.138 0.163s-0.132 0.061-0.205 0.061l0.003-0.003zM1.179 7.020c-0.074 0-0.145 0.026-0.202 0.072s-0.097 0.111-0.113 0.183c-0.016 0.072-0.006 0.147 0.027 0.213s0.087 0.119 0.154 0.15c0.067 0.031 0.142 0.038 0.214 0.020s0.135-0.059 0.179-0.118c0.045-0.059 0.068-0.131 0.066-0.204s-0.029-0.144-0.076-0.201c-0.028-0.033-0.061-0.060-0.1-0.079s-0.080-0.031-0.123-0.035l-0.027-0.001z"></path>
<path fill="#ecf2ff" style="fill: var(--color5, #ecf2ff)" d="M9.949 3.529c-0.006 0.069-0.032 0.135-0.075 0.189s-0.101 0.094-0.167 0.116c-0.066 0.021-0.137 0.022-0.203 0.003s-0.126-0.057-0.171-0.11c-0.045-0.053-0.073-0.118-0.081-0.186s0.005-0.138 0.036-0.2c0.032-0.062 0.081-0.112 0.141-0.146s0.13-0.049 0.199-0.043c0.093 0.008 0.178 0.052 0.238 0.123s0.090 0.163 0.082 0.255z"></path>
<path fill="#c6d7ff" style="fill: var(--color4, #c6d7ff)" opacity="0.7" d="M15.207 1.245h-0.052c-0.083-0.006-0.163-0.028-0.237-0.065s-0.14-0.088-0.194-0.151c-0.053-0.063-0.094-0.135-0.119-0.213s-0.034-0.161-0.027-0.242c0.010-0.121 0.055-0.236 0.13-0.332s0.175-0.168 0.29-0.207c0.115-0.039 0.239-0.045 0.356-0.015s0.224 0.093 0.306 0.182c0.082 0.089 0.137 0.2 0.157 0.32s0.005 0.243-0.044 0.354c-0.049 0.111-0.129 0.206-0.23 0.272s-0.22 0.102-0.341 0.102l0.005-0.005zM15.207 0.074c-0.123 0.001-0.242 0.043-0.337 0.12s-0.162 0.185-0.188 0.305c-0.026 0.12-0.010 0.245 0.044 0.355s0.145 0.198 0.257 0.249c0.111 0.052 0.237 0.063 0.356 0.034s0.225-0.099 0.299-0.196c0.075-0.098 0.114-0.218 0.111-0.34s-0.048-0.241-0.127-0.335c-0.046-0.055-0.102-0.1-0.166-0.132s-0.133-0.052-0.204-0.058l-0.045-0.002z"></path>
<path fill="#9ebbff" style="fill: var(--color6, #9ebbff)" opacity="0.7" d="M4.955 18.196h-0.039c-0.063-0.004-0.124-0.021-0.18-0.049s-0.106-0.067-0.148-0.115c-0.040-0.047-0.071-0.103-0.090-0.162s-0.026-0.122-0.021-0.184c0.008-0.092 0.042-0.18 0.099-0.252s0.133-0.128 0.22-0.157c0.087-0.030 0.181-0.034 0.271-0.011s0.17 0.071 0.233 0.139c0.063 0.068 0.104 0.152 0.119 0.243s0.004 0.184-0.033 0.269c-0.037 0.085-0.098 0.156-0.175 0.207s-0.167 0.078-0.26 0.078l0.004-0.004zM4.955 17.307c-0.093 0-0.184 0.033-0.256 0.091s-0.123 0.14-0.143 0.232c-0.020 0.091-0.008 0.186 0.034 0.27s0.11 0.15 0.195 0.19c0.085 0.039 0.18 0.048 0.271 0.026s0.171-0.075 0.227-0.149c0.057-0.074 0.086-0.165 0.084-0.259s-0.036-0.183-0.096-0.254c-0.035-0.041-0.078-0.076-0.126-0.1s-0.101-0.040-0.155-0.044l-0.034-0.002z"></path>
<path fill="#c6d7ff" style="fill: var(--color4, #c6d7ff)" d="M15.824 6.504c-0.006 0.069-0.032 0.135-0.075 0.189s-0.101 0.094-0.167 0.116c-0.066 0.021-0.137 0.022-0.203 0.003s-0.126-0.057-0.171-0.11c-0.045-0.053-0.073-0.118-0.081-0.186s0.005-0.138 0.036-0.2c0.032-0.062 0.081-0.112 0.141-0.146s0.13-0.049 0.199-0.043c0.093 0.008 0.178 0.052 0.238 0.122s0.090 0.163 0.082 0.255z"></path>
<path fill="#9ebbff" style="fill: var(--color6, #9ebbff)" opacity="0.7" d="M19.556 4.62h-0.046c-0.073-0.005-0.144-0.024-0.209-0.057s-0.123-0.078-0.171-0.133c-0.047-0.055-0.082-0.119-0.104-0.188s-0.030-0.141-0.024-0.213c0.009-0.106 0.049-0.208 0.114-0.292s0.154-0.148 0.255-0.182c0.101-0.035 0.21-0.039 0.313-0.013s0.197 0.082 0.27 0.16c0.072 0.079 0.12 0.176 0.138 0.282s0.004 0.214-0.038 0.311c-0.043 0.098-0.113 0.181-0.202 0.24s-0.194 0.090-0.3 0.090l0.005-0.005zM19.556 3.591c-0.108 0.001-0.213 0.038-0.297 0.106s-0.142 0.163-0.165 0.268c-0.023 0.106-0.009 0.216 0.039 0.313s0.128 0.174 0.226 0.219c0.098 0.045 0.209 0.056 0.313 0.030s0.198-0.087 0.263-0.173c0.066-0.086 0.1-0.192 0.097-0.3s-0.042-0.212-0.111-0.295c-0.041-0.048-0.090-0.088-0.146-0.116s-0.117-0.046-0.18-0.051l-0.040-0.002z"></path>
<path fill="#c6d7ff" style="fill: var(--color4, #c6d7ff)" d="M12.574 16.654c-0.006 0.069-0.032 0.135-0.075 0.189s-0.101 0.094-0.167 0.116c-0.066 0.021-0.137 0.022-0.203 0.003s-0.126-0.057-0.171-0.11c-0.045-0.053-0.073-0.118-0.081-0.186s0.005-0.138 0.036-0.2c0.032-0.062 0.081-0.112 0.141-0.146s0.13-0.049 0.199-0.043c0.093 0.008 0.178 0.052 0.238 0.122s0.090 0.163 0.082 0.255z"></path>
<path fill="#c6d7ff" style="fill: var(--color4, #c6d7ff)" opacity="0.7" d="M0.73 31.496h-0.039c-0.063-0.005-0.124-0.021-0.18-0.049s-0.106-0.067-0.148-0.115c-0.040-0.047-0.071-0.102-0.090-0.162s-0.026-0.122-0.021-0.184c0.008-0.092 0.042-0.18 0.099-0.252s0.133-0.128 0.22-0.157c0.087-0.030 0.181-0.034 0.271-0.011s0.17 0.071 0.233 0.139c0.063 0.068 0.104 0.152 0.119 0.243s0.004 0.184-0.033 0.269-0.098 0.157-0.175 0.207c-0.077 0.050-0.167 0.078-0.26 0.078l0.004-0.004zM0.73 30.607c-0.093 0-0.184 0.033-0.256 0.091s-0.123 0.14-0.143 0.232c-0.020 0.091-0.008 0.186 0.034 0.27s0.11 0.151 0.195 0.189c0.085 0.039 0.18 0.049 0.271 0.026s0.171-0.075 0.227-0.149c0.057-0.074 0.086-0.166 0.084-0.259s-0.036-0.183-0.096-0.254c-0.035-0.041-0.078-0.076-0.126-0.101s-0.101-0.040-0.155-0.044l-0.034-0.002z"></path>
<path fill="#c6d7ff" style="fill: var(--color4, #c6d7ff)" d="M0.249 26.479c-0.006 0.069-0.032 0.135-0.075 0.189s-0.101 0.094-0.167 0.116-0.137 0.022-0.203 0.003c-0.067-0.019-0.126-0.057-0.171-0.11s-0.073-0.118-0.081-0.186c-0.008-0.069 0.005-0.138 0.036-0.2s0.081-0.112 0.141-0.146c0.060-0.034 0.13-0.049 0.199-0.043 0.093 0.008 0.178 0.052 0.238 0.122s0.090 0.163 0.082 0.255z"></path>
<path fill="#ecf2ff" style="fill: var(--color5, #ecf2ff)" d="M0.349 18.743c-0.004 0.044-0.020 0.087-0.048 0.121s-0.065 0.061-0.107 0.074c-0.042 0.014-0.088 0.014-0.131 0.002s-0.081-0.037-0.11-0.071c-0.029-0.034-0.047-0.076-0.052-0.12s0.003-0.089 0.023-0.128c0.020-0.040 0.052-0.072 0.091-0.094s0.083-0.031 0.128-0.028c0.059 0.005 0.115 0.033 0.153 0.079s0.058 0.104 0.053 0.164z"></path>
<path fill="#9ebbff" style="fill: var(--color6, #9ebbff)" opacity="0.7" d="M0.729 22.597h-0.031c-0.050-0.003-0.098-0.017-0.142-0.039s-0.084-0.053-0.117-0.091c-0.032-0.038-0.056-0.081-0.071-0.128s-0.021-0.096-0.016-0.145c0.006-0.073 0.033-0.142 0.078-0.199s0.105-0.101 0.174-0.124c0.069-0.024 0.143-0.027 0.214-0.009s0.134 0.056 0.184 0.109c0.049 0.054 0.082 0.12 0.094 0.192s0.003 0.146-0.026 0.212c-0.029 0.067-0.077 0.123-0.138 0.163s-0.132 0.061-0.205 0.061l0.003-0.003zM0.729 21.895c-0.074 0-0.145 0.026-0.202 0.072s-0.097 0.111-0.113 0.183c-0.016 0.072-0.006 0.147 0.027 0.213s0.087 0.119 0.154 0.15c0.067 0.031 0.142 0.038 0.214 0.020s0.135-0.059 0.179-0.118c0.045-0.059 0.068-0.131 0.066-0.204s-0.029-0.144-0.076-0.201c-0.028-0.033-0.061-0.060-0.1-0.079s-0.080-0.031-0.123-0.035l-0.027-0.001z"></path>
<path fill="#ecf2ff" style="fill: var(--color5, #ecf2ff)" d="M9.499 18.404c-0.006 0.069-0.032 0.135-0.075 0.189s-0.101 0.094-0.167 0.116c-0.066 0.021-0.137 0.022-0.203 0.003s-0.126-0.057-0.171-0.11c-0.045-0.053-0.073-0.118-0.081-0.186s0.005-0.138 0.036-0.2c0.032-0.062 0.081-0.112 0.141-0.146s0.13-0.049 0.199-0.043c0.093 0.008 0.178 0.052 0.238 0.122s0.090 0.163 0.082 0.255z"></path>
<path fill="#c6d7ff" style="fill: var(--color4, #c6d7ff)" opacity="0.7" d="M14.757 16.12h-0.052c-0.083-0.006-0.163-0.028-0.237-0.065s-0.14-0.088-0.194-0.151c-0.053-0.062-0.094-0.135-0.119-0.213s-0.034-0.161-0.027-0.242c0.010-0.121 0.055-0.236 0.13-0.332s0.175-0.168 0.29-0.207c0.115-0.039 0.239-0.045 0.356-0.015s0.224 0.093 0.306 0.182c0.082 0.089 0.137 0.2 0.157 0.32s0.005 0.243-0.044 0.354c-0.049 0.111-0.129 0.206-0.23 0.272s-0.22 0.102-0.341 0.102l0.005-0.005zM14.757 14.949c-0.123 0.001-0.242 0.043-0.337 0.12s-0.162 0.185-0.188 0.305c-0.026 0.12-0.010 0.245 0.044 0.355s0.145 0.198 0.257 0.249c0.111 0.052 0.237 0.063 0.356 0.034s0.225-0.099 0.299-0.196c0.075-0.098 0.114-0.218 0.111-0.34s-0.048-0.241-0.127-0.335c-0.046-0.055-0.102-0.1-0.166-0.132s-0.133-0.052-0.204-0.058l-0.045-0.002z"></path>
<path fill="#c6d7ff" style="fill: var(--color4, #c6d7ff)" d="M15.374 21.379c-0.006 0.069-0.032 0.135-0.075 0.189s-0.101 0.094-0.167 0.116c-0.066 0.021-0.137 0.022-0.203 0.003s-0.126-0.057-0.171-0.11c-0.045-0.053-0.073-0.118-0.081-0.186s0.005-0.138 0.036-0.2c0.032-0.062 0.081-0.112 0.141-0.146s0.13-0.049 0.199-0.043c0.093 0.008 0.178 0.052 0.238 0.122s0.090 0.163 0.082 0.255z"></path>
<path fill="#9ebbff" style="fill: var(--color6, #9ebbff)" opacity="0.7" d="M19.106 19.495h-0.046c-0.073-0.005-0.144-0.024-0.209-0.057s-0.123-0.078-0.171-0.133c-0.047-0.055-0.082-0.119-0.104-0.188s-0.030-0.141-0.024-0.213c0.009-0.106 0.049-0.208 0.114-0.292s0.154-0.148 0.255-0.182c0.101-0.035 0.21-0.039 0.313-0.013s0.197 0.082 0.27 0.16c0.072 0.078 0.12 0.176 0.138 0.282s0.004 0.214-0.038 0.311c-0.043 0.098-0.113 0.181-0.202 0.24s-0.194 0.090-0.3 0.090l0.005-0.005zM19.106 18.466c-0.108 0.001-0.213 0.038-0.297 0.106s-0.142 0.163-0.165 0.268c-0.023 0.106-0.009 0.216 0.039 0.313s0.128 0.174 0.226 0.219c0.098 0.045 0.209 0.056 0.313 0.030s0.198-0.087 0.263-0.173c0.066-0.086 0.1-0.192 0.097-0.3s-0.042-0.212-0.111-0.295c-0.041-0.048-0.090-0.088-0.146-0.116s-0.117-0.046-0.18-0.051l-0.040-0.002z"></path>
<path fill="#c6d7ff" style="fill: var(--color4, #c6d7ff)" d="M12.124 31.529c-0.006 0.069-0.032 0.135-0.075 0.189s-0.101 0.094-0.167 0.116-0.137 0.022-0.203 0.003c-0.067-0.019-0.126-0.057-0.171-0.11s-0.073-0.118-0.081-0.186c-0.008-0.069 0.005-0.138 0.036-0.2s0.081-0.112 0.141-0.146c0.060-0.034 0.13-0.049 0.199-0.043 0.093 0.008 0.178 0.052 0.238 0.122s0.090 0.163 0.082 0.255z"></path>
</symbol>
<symbol id="icon-Bottle-for-Sign-in" viewBox="0 0 36 32">
<path fill="#c6d7ff" style="fill: var(--color4, #c6d7ff)" d="M0.374 26.078c-0.011 0.13-0.060 0.254-0.141 0.356s-0.19 0.178-0.315 0.218c-0.124 0.040-0.257 0.042-0.382 0.006s-0.237-0.108-0.321-0.207-0.137-0.221-0.152-0.351c-0.015-0.129 0.009-0.26 0.068-0.376s0.152-0.212 0.266-0.275 0.244-0.091 0.374-0.081c0.174 0.014 0.335 0.097 0.449 0.231s0.169 0.306 0.154 0.48z"></path>
<path fill="#ecf2ff" style="fill: var(--color5, #ecf2ff)" d="M0.563 11.517c-0.007 0.083-0.038 0.163-0.090 0.229s-0.122 0.114-0.202 0.14c-0.080 0.026-0.165 0.027-0.246 0.004s-0.152-0.069-0.207-0.133c-0.054-0.064-0.088-0.142-0.098-0.226s0.006-0.167 0.044-0.242c0.038-0.075 0.098-0.136 0.171-0.177s0.157-0.059 0.24-0.052c0.112 0.009 0.216 0.063 0.288 0.148s0.108 0.197 0.099 0.309z"></path>
<path fill="#9ebbff" style="fill: var(--color6, #9ebbff)" opacity="0.7" d="M1.278 18.77h-0.058c-0.093-0.006-0.184-0.031-0.268-0.073s-0.158-0.1-0.219-0.171c-0.060-0.071-0.106-0.152-0.134-0.241s-0.039-0.181-0.031-0.274c0.011-0.137 0.062-0.267 0.146-0.375s0.198-0.189 0.328-0.234c0.13-0.045 0.269-0.050 0.402-0.017s0.253 0.105 0.346 0.206c0.093 0.101 0.154 0.226 0.177 0.362s0.006 0.274-0.049 0.4c-0.055 0.126-0.145 0.232-0.26 0.308s-0.249 0.115-0.386 0.116l0.006-0.006zM1.278 17.449c-0.139 0.001-0.273 0.049-0.381 0.136s-0.182 0.209-0.212 0.344-0.012 0.277 0.050 0.401c0.062 0.124 0.164 0.223 0.29 0.282s0.268 0.072 0.402 0.038c0.135-0.033 0.254-0.112 0.338-0.222s0.128-0.246 0.125-0.384c-0.003-0.139-0.054-0.272-0.143-0.378-0.052-0.062-0.116-0.112-0.188-0.149s-0.15-0.059-0.231-0.065l-0.051-0.002z"></path>
<path fill="#ecf2ff" style="fill: var(--color5, #ecf2ff)" d="M17.786 10.878c-0.011 0.13-0.060 0.254-0.141 0.356s-0.191 0.178-0.315 0.218c-0.124 0.040-0.257 0.042-0.382 0.006s-0.237-0.108-0.321-0.207-0.137-0.221-0.152-0.351c-0.015-0.129 0.009-0.26 0.068-0.376s0.152-0.212 0.266-0.275 0.244-0.091 0.374-0.081c0.174 0.014 0.335 0.097 0.449 0.231s0.169 0.306 0.154 0.48z"></path>
<path fill="#c6d7ff" style="fill: var(--color4, #c6d7ff)" opacity="0.7" d="M27.683 6.578h-0.098c-0.156-0.011-0.308-0.052-0.447-0.122s-0.264-0.167-0.366-0.285c-0.1-0.118-0.176-0.254-0.223-0.401s-0.064-0.302-0.051-0.456c0.019-0.228 0.104-0.445 0.244-0.625s0.33-0.316 0.546-0.39c0.216-0.074 0.449-0.084 0.67-0.028s0.422 0.175 0.577 0.343c0.155 0.168 0.257 0.377 0.295 0.603s0.009 0.457-0.082 0.666c-0.092 0.209-0.242 0.387-0.433 0.513s-0.414 0.192-0.643 0.193l0.010-0.010zM27.683 4.375c-0.231 0.001-0.455 0.081-0.634 0.226s-0.304 0.348-0.353 0.574c-0.049 0.226-0.020 0.462 0.083 0.669s0.273 0.372 0.483 0.469c0.21 0.097 0.446 0.12 0.671 0.064s0.423-0.186 0.563-0.37c0.14-0.184 0.214-0.41 0.208-0.641s-0.090-0.453-0.238-0.63c-0.087-0.103-0.193-0.187-0.313-0.249s-0.25-0.098-0.384-0.109l-0.085-0.004z"></path>
<path fill="#c6d7ff" style="fill: var(--color4, #c6d7ff)" d="M28.845 16.478c-0.011 0.13-0.060 0.254-0.141 0.356s-0.191 0.178-0.315 0.218c-0.124 0.040-0.257 0.042-0.382 0.006s-0.237-0.108-0.321-0.207-0.137-0.221-0.152-0.351c-0.015-0.129 0.009-0.26 0.068-0.376s0.152-0.212 0.266-0.275 0.244-0.091 0.374-0.081c0.174 0.014 0.335 0.097 0.449 0.231s0.169 0.306 0.154 0.48z"></path>
<path fill="#9ebbff" style="fill: var(--color6, #9ebbff)" opacity="0.7" d="M35.87 12.932h-0.086c-0.137-0.009-0.271-0.046-0.393-0.107s-0.232-0.146-0.322-0.25c-0.088-0.104-0.155-0.224-0.196-0.353s-0.057-0.266-0.045-0.402c0.017-0.2 0.091-0.391 0.215-0.55s0.29-0.278 0.481-0.343c0.19-0.065 0.395-0.074 0.59-0.025s0.371 0.154 0.507 0.302c0.136 0.148 0.227 0.332 0.26 0.53s0.008 0.402-0.072 0.586-0.213 0.341-0.381 0.451c-0.168 0.11-0.365 0.169-0.566 0.169l0.009-0.009zM35.87 10.994c-0.203 0.001-0.4 0.071-0.558 0.199s-0.268 0.306-0.311 0.505-0.017 0.406 0.073 0.588c0.091 0.182 0.241 0.328 0.425 0.413s0.393 0.105 0.59 0.056 0.372-0.164 0.496-0.325c0.123-0.162 0.188-0.361 0.183-0.564s-0.079-0.399-0.21-0.555c-0.076-0.090-0.17-0.165-0.275-0.219s-0.22-0.087-0.338-0.096l-0.075-0.004z"></path>
<path fill="#f5f5f5" style="fill: var(--color1, #f5f5f5)" d="M22.588 31.247c7.418 0 13.431-0.351 13.431-0.783s-6.013-0.783-13.431-0.783c-7.418 0-13.431 0.351-13.431 0.783s6.013 0.783 13.431 0.783z"></path>
<path fill="#407bff" style="fill: var(--color2, #407bff)" opacity="0.1" d="M14.781 24.994c0.008-0.062 0.040-0.119 0.089-0.159s0.111-0.059 0.174-0.054c0.593-0.009 1.148 0.41 1.662 0.859 0.114 0.099 0.238 0.201 0.366 0.098 0.040-0.033 0.069-0.077 0.083-0.126 0.022-0.081 0.022-0.166 0-0.246-0.019-0.067-0.051-0.129-0.093-0.183-0.224-0.294-0.496-0.435-0.717-0.739-0.124-0.174-0.226-0.362-0.305-0.561-0.069-0.174-0.208-0.456-0.152-0.692 0.062-0.282 0.273-0.258 0.401-0.219 0.405 0.121 0.783 0.41 1.127 0.769 0.366 0.382 0.698 0.842 1.029 1.3 0.125 0.174 0.256 0.352 0.416 0.415s0.361-0.039 0.428-0.289c0.067-0.251-0.012-0.538-0.028-0.788-0.022-0.297-0.008-0.596 0.043-0.89 0.023-0.155 0.075-0.305 0.154-0.44 0.179-0.262 0.443-0.17 0.617 0.028 0.132 0.166 0.234 0.353 0.302 0.554 0.194 0.555 0.311 1.133 0.346 1.72 0.026 0.363 0.082 0.742 0.231 1.024 0.242 0.455 0.693 0.419 1.043 0.181 0.609-0.415 1.079-1.354 1.204-2.403 0.041-0.342 0.051-0.711 0.176-0.998 0.109-0.248 0.388-0.415 0.524-0.148 0.055 0.134 0.070 0.28 0.044 0.422-0.024 0.141-0.059 0.279-0.103 0.415-0.069 0.235-0.139 0.676 0.048 0.814 0.028 0.017 0.059 0.028 0.092 0.031s0.065 0 0.096-0.010c0.612-0.127 1.182-0.703 1.556-1.507 0.136-0.302 0.239-0.618 0.309-0.942 0.045-0.198 0.064-0.41 0.114-0.607 0.032-0.155 0.097-0.301 0.19-0.428 0.238-0.285 0.788-0.151 0.819 0.46 0.019 0.354-0.076 0.7-0.11 1.046-0.021 0.216 0.112 0.215 0.212 0.208 0.478-0.048 0.901-0.53 1.275-1.031 0.445-0.596 0.939-1.37 1.547-1.393 0.139-0.005 0.369 0.013 0.452 0.227 0.039 0.131 0.039 0.27 0 0.401-0.123 0.511-0.485 0.774-0.762 1.027-0.781 0.732-1.468 1.558-2.046 2.46-0.088 0.138-0.179 0.367-0.095 0.503 0.016 0.026 0.039 0.046 0.067 0.059s0.059 0.016 0.089 0.011c0.286-0.022 0.554-0.249 0.815-0.437s0.558-0.353 0.831-0.211c0.084 0.051 0.158 0.117 0.216 0.196s0.1 0.169 0.124 0.264c0.049 0.167 0.057 0.344 0.023 0.515-0.1 0.47-0.535 0.681-0.774 0.913-0.329 0.317-0.63 0.662-0.901 1.031-0.249 0.341-0.485 0.715-0.734 1.050-0.901 1.199-2.147 1.377-3.256 1.516-1.206 0.151-2.415 0.069-3.614-0.089-0.872-0.116-1.732-0.364-2.583-0.658-0.292-0.106-0.583-0.221-0.869-0.358-0.308-0.147-0.762-0.237-0.88-0.815-0.025-0.125 0.004-0.226 0.087-0.272 0.256-0.145 0.62 0.049 0.86 0.177 0.332 0.177 0.646 0.43 0.987 0.566 0.055 0.027 0.114 0.042 0.175 0.046s0.122-0.006 0.179-0.027c0.056-0.024 0.102-0.066 0.131-0.12 0.036-0.070 0.045-0.151 0.025-0.228-0.014-0.041-0.038-0.078-0.069-0.109-0.613-0.628-1.346-1.127-2.156-1.469-0.26-0.111-0.525-0.203-0.775-0.361-0.202-0.125-0.377-0.29-0.513-0.484-0.116-0.186-0.303-0.515-0.245-0.812z"></path>
<path fill="#407bff" style="fill: var(--color2, #407bff)" opacity="0.1" d="M28.031 19.906c-0.046 0.048-0.107 0.079-0.173 0.090s-0.133-0.001-0.192-0.032c-0.059-0.031-0.106-0.081-0.134-0.141s-0.036-0.128-0.022-0.193c0.239-1.159 0.759-2.002 1.376-1.565 0.461 0.326-0.262 1.225-0.855 1.842z"></path>
<path fill="#407bff" style="fill: var(--color2, #407bff)" opacity="0.3" d="M26.355 20.448c0.189-0.104 0.349-0.254 0.466-0.435s0.188-0.388 0.205-0.603l0.468-5.699c0.024-0.293-0.013-0.588-0.11-0.866s-0.25-0.532-0.451-0.747l-1.443-1.544c-0.079-0.085-0.14-0.186-0.178-0.296s-0.053-0.227-0.044-0.343l0.069-0.835-3.734-0.307-0.069 0.835c-0.010 0.116-0.043 0.229-0.099 0.331s-0.132 0.192-0.225 0.263l-1.676 1.289c-0.233 0.179-0.426 0.405-0.567 0.664s-0.225 0.543-0.249 0.836l-0.469 5.699c-0.018 0.215 0.018 0.43 0.104 0.628s0.219 0.371 0.389 0.504c-0.189 0.104-0.349 0.253-0.466 0.435s-0.187 0.389-0.204 0.603l-0.598 7.267c-0.028 0.346 0.082 0.688 0.306 0.952s0.545 0.429 0.89 0.457l6.165 0.506c0.171 0.014 0.344-0.006 0.507-0.058s0.315-0.137 0.446-0.248c0.131-0.111 0.239-0.247 0.317-0.399s0.126-0.319 0.14-0.49l0.598-7.267c0.018-0.215-0.017-0.43-0.102-0.628s-0.219-0.371-0.387-0.505z"></path>
<path fill="#407bff" style="fill: var(--color2, #407bff)" opacity="0.3" d="M21.604 8.774l-0.053 0.644 3.734 0.307 0.053-0.644-3.734-0.307z"></path>
<path fill="#fff" style="fill: var(--color3, #fff)" opacity="0.3" d="M26.899 12.246l-1.443-1.545c0 0-0.93 0.040-0.208 1.18 0.616 0.964 1.689 0.814 1.651 0.365z"></path>
<path fill="#407bff" style="fill: var(--color2, #407bff)" opacity="0.2" d="M17.474 28.125c-0.028 0.346 0.082 0.688 0.307 0.952s0.545 0.429 0.89 0.457l6.165 0.506c0.171 0.014 0.343-0.006 0.507-0.058s0.315-0.137 0.446-0.248c0.131-0.111 0.239-0.247 0.317-0.399s0.126-0.319 0.14-0.49l-8.773-0.72z"></path>
<path fill="#407bff" style="fill: var(--color2, #407bff)" opacity="0.3" d="M26.63 12.38c0.161 0.173 0.284 0.377 0.362 0.6s0.108 0.46 0.088 0.695l-0.468 5.7c-0.012 0.147-0.060 0.288-0.14 0.411s-0.189 0.225-0.318 0.296l-0.545 0.302 0.488 0.387c0.116 0.091 0.207 0.209 0.265 0.344s0.083 0.282 0.071 0.428l-0.598 7.267c-0.019 0.236-0.131 0.454-0.311 0.607s-0.414 0.229-0.649 0.21l-6.165-0.506c-0.117-0.009-0.231-0.041-0.336-0.095s-0.198-0.127-0.274-0.216-0.134-0.193-0.17-0.304c-0.036-0.112-0.050-0.229-0.041-0.346l0.598-7.267c0.012-0.147 0.060-0.288 0.14-0.412s0.189-0.225 0.318-0.297l0.545-0.302-0.485-0.387c-0.116-0.091-0.207-0.209-0.265-0.344s-0.083-0.282-0.071-0.428l0.469-5.699c0.019-0.235 0.088-0.464 0.201-0.671s0.268-0.389 0.455-0.533c0.554-0.358 2.009 0.533 3.712 0.673s2.769-0.292 3.125-0.113z"></path>
<path fill="#407bff" style="fill: var(--color2, #407bff)" opacity="0.2" d="M23.501 12.493c-1.703-0.138-3.159-1.031-3.713-0.673 0.97 0.533 2.078 0.863 3.686 0.995s3.155-0.435 3.155-0.435c-0.356-0.179-1.426 0.254-3.128 0.114z"></path>
<path fill="#407bff" style="fill: var(--color2, #407bff)" opacity="0.2" d="M18.25 18.69c-0.018 0.215 0.018 0.43 0.104 0.628s0.219 0.371 0.389 0.504l7.612 0.623c0.189-0.104 0.349-0.254 0.466-0.435s0.188-0.388 0.205-0.603l-8.776-0.717z"></path>
<path fill="#407bff" style="fill: var(--color2, #407bff)" d="M25.416 8.060l-3.723-0.307c-0.156-0.013-0.293 0.103-0.305 0.259l-0.074 0.905c-0.013 0.156 0.103 0.293 0.259 0.305l3.723 0.307c0.156 0.013 0.293-0.103 0.305-0.259l0.074-0.905c0.013-0.156-0.103-0.293-0.259-0.305z"></path>
<path fill="#fff" style="fill: var(--color3, #fff)" opacity="0.2" d="M21.761 9.083c-0.005-0-0.009-0.002-0.013-0.004s-0.008-0.005-0.011-0.008-0.005-0.007-0.007-0.012c-0.001-0.004-0.002-0.009-0.002-0.013l0.087-1.095c0.001-0.009 0.005-0.018 0.012-0.024s0.016-0.009 0.025-0.008c0.009 0.001 0.018 0.005 0.024 0.012s0.009 0.016 0.008 0.025l-0.090 1.094c-0.001 0.009-0.004 0.017-0.011 0.023s-0.015 0.009-0.024 0.009z"></path>
<path fill="#fff" style="fill: var(--color3, #fff)" opacity="0.2" d="M22.437 9.138c-0.005-0-0.009-0.002-0.013-0.004s-0.008-0.005-0.011-0.008c-0.003-0.003-0.005-0.007-0.007-0.012s-0.002-0.009-0.002-0.013l0.090-1.094c0.001-0.009 0.005-0.018 0.012-0.023s0.016-0.009 0.025-0.008c0.005 0 0.009 0.002 0.013 0.004s0.008 0.005 0.011 0.008 0.005 0.008 0.006 0.012c0.001 0.004 0.002 0.009 0.001 0.013l-0.092 1.094c-0.001 0.009-0.005 0.017-0.011 0.023s-0.015 0.009-0.023 0.009z"></path>
<path fill="#fff" style="fill: var(--color3, #fff)" opacity="0.2" d="M23.111 9.196c-0.005-0-0.009-0.002-0.013-0.004s-0.008-0.005-0.011-0.008-0.005-0.008-0.007-0.012c-0.001-0.004-0.002-0.009-0.002-0.013l0.090-1.094c0.001-0.009 0.006-0.017 0.012-0.023s0.016-0.009 0.025-0.009c0.005 0 0.009 0.002 0.013 0.004s0.008 0.005 0.011 0.008 0.005 0.007 0.007 0.012c0.001 0.004 0.002 0.009 0.002 0.013l-0.090 1.094c-0 0.005-0.002 0.009-0.004 0.013s-0.005 0.008-0.008 0.011c-0.003 0.003-0.007 0.005-0.012 0.007s-0.009 0.002-0.013 0.002z"></path>
<path fill="#fff" style="fill: var(--color3, #fff)" opacity="0.2" d="M23.787 9.249c-0.005-0-0.009-0.002-0.013-0.004s-0.008-0.005-0.011-0.008c-0.003-0.003-0.005-0.008-0.007-0.012s-0.002-0.009-0.002-0.013l0.090-1.094c0.001-0.009 0.005-0.018 0.012-0.023s0.016-0.009 0.025-0.008c0.005 0 0.009 0.002 0.013 0.004s0.008 0.005 0.011 0.008c0.003 0.003 0.005 0.007 0.006 0.012s0.002 0.009 0.001 0.013l-0.090 1.094c-0 0.005-0.001 0.009-0.003 0.013s-0.005 0.008-0.008 0.011c-0.003 0.003-0.007 0.005-0.012 0.007s-0.009 0.002-0.013 0.002z"></path>
<path fill="#fff" style="fill: var(--color3, #fff)" opacity="0.2" d="M24.459 9.304c-0.005-0-0.009-0.002-0.013-0.004s-0.008-0.005-0.011-0.008-0.005-0.007-0.007-0.012c-0.001-0.004-0.002-0.009-0.002-0.013l0.090-1.094c0.001-0.009 0.006-0.017 0.013-0.023s0.016-0.009 0.025-0.009c0.005 0 0.009 0.002 0.013 0.004s0.008 0.005 0.011 0.008 0.005 0.008 0.007 0.012c0.001 0.004 0.002 0.009 0.002 0.013l-0.090 1.094c-0 0.005-0.001 0.009-0.003 0.013s-0.005 0.008-0.008 0.011c-0.004 0.003-0.008 0.005-0.012 0.007s-0.009 0.002-0.014 0.001z"></path>
<path fill="#fff" style="fill: var(--color3, #fff)" opacity="0.2" d="M25.137 9.359c-0.005-0-0.009-0.002-0.013-0.004s-0.008-0.005-0.011-0.008c-0.003-0.003-0.005-0.008-0.007-0.012s-0.002-0.009-0.002-0.013l0.087-1.095c0.001-0.009 0.005-0.018 0.012-0.023s0.016-0.009 0.025-0.008c0.009 0.001 0.017 0.005 0.023 0.012s0.009 0.016 0.008 0.025l-0.089 1.095c-0.001 0.009-0.005 0.017-0.011 0.023s-0.015 0.009-0.023 0.009z"></path>
<path fill="#407bff" style="fill: var(--color2, #407bff)" opacity="0.2" d="M19.402 16.786c-0.105-0.582-0.954-0.541-1.002 0.048l-0.152 1.856c-0.018 0.215 0.018 0.43 0.104 0.628s0.219 0.371 0.389 0.504c-0.189 0.104-0.349 0.253-0.466 0.435s-0.187 0.389-0.204 0.603l-0.598 7.267c-0.028 0.346 0.082 0.688 0.307 0.952s0.545 0.429 0.89 0.457l1.593 0.131c0.176 0.014 0.352-0.012 0.516-0.076s0.311-0.166 0.429-0.296 0.205-0.286 0.254-0.455c0.049-0.169 0.058-0.347 0.026-0.52l-2.084-11.534z"></path>
<path fill="#407bff" style="fill: var(--color2, #407bff)" opacity="0.3" d="M25.532 26.302c-0.011 0.133-0.061 0.261-0.145 0.365s-0.196 0.183-0.323 0.224c-0.128 0.041-0.264 0.043-0.393 0.006s-0.244-0.111-0.331-0.213c-0.087-0.102-0.141-0.228-0.156-0.361s0.009-0.268 0.070-0.387c0.061-0.119 0.156-0.217 0.273-0.282s0.251-0.094 0.384-0.083c0.179 0.015 0.345 0.1 0.461 0.237s0.173 0.314 0.159 0.493z"></path>
<path fill="#407bff" style="fill: var(--color2, #407bff)" opacity="0.3" d="M23.379 23.681c-0.008 0.094-0.043 0.184-0.102 0.259s-0.139 0.129-0.229 0.158c-0.090 0.029-0.187 0.031-0.278 0.005s-0.173-0.078-0.234-0.151c-0.061-0.072-0.1-0.161-0.111-0.255s0.007-0.189 0.050-0.274c0.043-0.084 0.111-0.154 0.194-0.2s0.178-0.066 0.272-0.059c0.127 0.011 0.244 0.071 0.326 0.168s0.123 0.222 0.112 0.349z"></path>
<path fill="#407bff" style="fill: var(--color2, #407bff)" opacity="0.3" d="M21.375 17.847c-0.095 0.004-0.189-0.019-0.27-0.068s-0.146-0.121-0.186-0.206c-0.040-0.086-0.054-0.181-0.040-0.275s0.056-0.181 0.119-0.251c0.064-0.070 0.147-0.12 0.239-0.143s0.189-0.018 0.278 0.014c0.089 0.032 0.167 0.090 0.223 0.166s0.089 0.167 0.094 0.262c0.003 0.063-0.006 0.126-0.028 0.185s-0.054 0.114-0.096 0.16c-0.042 0.047-0.094 0.084-0.151 0.111s-0.119 0.042-0.182 0.045z"></path>
<path fill="#407bff" style="fill: var(--color2, #407bff)" opacity="0.3" d="M22.682 14.984c-0.067 0.003-0.134-0.013-0.191-0.048s-0.104-0.085-0.132-0.146c-0.029-0.061-0.039-0.129-0.029-0.195s0.039-0.128 0.084-0.178c0.045-0.050 0.104-0.085 0.169-0.101s0.134-0.013 0.197 0.010c0.063 0.023 0.118 0.064 0.158 0.118s0.063 0.119 0.066 0.186c0.004 0.090-0.027 0.177-0.088 0.244s-0.145 0.106-0.234 0.111z"></path>
<path fill="#407bff" style="fill: var(--color2, #407bff)" opacity="0.3" d="M24.785 21.611c-0.003 0.039-0.018 0.076-0.042 0.107s-0.057 0.053-0.095 0.065c-0.037 0.012-0.077 0.013-0.115 0.002s-0.071-0.032-0.097-0.062-0.041-0.067-0.046-0.105c-0.005-0.039 0.003-0.078 0.021-0.113s0.046-0.064 0.080-0.083c0.034-0.019 0.073-0.028 0.112-0.024 0.052 0.004 0.101 0.029 0.135 0.069s0.051 0.092 0.047 0.144z"></path>
<path fill="#fff" style="fill: var(--color3, #fff)" opacity="0.7" d="M21.197 27.026h-0.033c-0.053-0.004-0.105-0.018-0.152-0.041s-0.090-0.057-0.125-0.097c-0.034-0.040-0.060-0.087-0.076-0.137s-0.022-0.103-0.017-0.155c0.006-0.078 0.035-0.152 0.083-0.213s0.113-0.108 0.186-0.133 0.153-0.029 0.229-0.009c0.075 0.019 0.144 0.060 0.197 0.117s0.088 0.129 0.101 0.205c0.013 0.077 0.003 0.156-0.028 0.227s-0.082 0.132-0.148 0.175c-0.065 0.043-0.141 0.065-0.219 0.066l0.003-0.003zM21.197 26.276c-0.079 0-0.155 0.028-0.216 0.077s-0.104 0.118-0.12 0.195c-0.017 0.077-0.007 0.157 0.028 0.228s0.093 0.127 0.165 0.16c0.072 0.033 0.152 0.041 0.229 0.022s0.144-0.063 0.192-0.126c0.048-0.063 0.073-0.14 0.071-0.218s-0.031-0.154-0.081-0.215c-0.030-0.035-0.066-0.064-0.107-0.085s-0.085-0.034-0.131-0.037l-0.029-0.001z"></path>
<path fill="#fff" style="fill: var(--color3, #fff)" opacity="0.7" d="M25.481 18.927h-0.024c-0.077-0.006-0.148-0.043-0.198-0.102s-0.075-0.135-0.069-0.212c0.006-0.077 0.043-0.148 0.102-0.198s0.135-0.075 0.212-0.068c0.077 0.006 0.148 0.043 0.198 0.102s0.075 0.135 0.068 0.212c-0.007 0.077-0.043 0.148-0.102 0.199-0.053 0.044-0.12 0.068-0.188 0.068zM25.242 18.616c-0.003 0.047 0.007 0.094 0.030 0.135s0.058 0.074 0.1 0.096 0.090 0.030 0.137 0.024c0.047-0.006 0.091-0.025 0.127-0.055 0.024-0.020 0.044-0.045 0.058-0.073s0.023-0.059 0.026-0.090c0.003-0.031-0.001-0.063-0.011-0.093s-0.025-0.058-0.046-0.082c-0.021-0.023-0.047-0.042-0.075-0.055s-0.059-0.021-0.091-0.022c-0.031-0.003-0.063 0.001-0.093 0.011s-0.058 0.025-0.082 0.045c-0.024 0.020-0.044 0.045-0.058 0.073s-0.023 0.058-0.026 0.090l0.003-0.003z"></path>
<path fill="#fff" style="fill: var(--color3, #fff)" opacity="0.7" d="M21.005 12.791h-0.010c-0.036-0.004-0.069-0.021-0.092-0.048s-0.035-0.063-0.033-0.099c0.002-0.027 0.011-0.053 0.028-0.074s0.038-0.038 0.064-0.047c0.025-0.009 0.053-0.011 0.079-0.004s0.050 0.020 0.069 0.040c0.018 0.020 0.031 0.044 0.035 0.071s0.001 0.054-0.009 0.079c-0.011 0.025-0.028 0.046-0.051 0.061s-0.049 0.023-0.076 0.023l-0.003-0.001zM20.922 12.648c-0.001 0.016 0.002 0.033 0.010 0.047s0.020 0.026 0.035 0.034 0.031 0.011 0.048 0.009c0.016-0.002 0.032-0.009 0.045-0.019s0.022-0.025 0.026-0.041c0.005-0.016 0.004-0.033-0.001-0.049s-0.015-0.030-0.028-0.040-0.029-0.017-0.045-0.018c-0.011-0.001-0.022 0-0.033 0.003s-0.020 0.009-0.029 0.016-0.015 0.016-0.020 0.026c-0.005 0.010-0.008 0.021-0.009 0.032z"></path>
<path fill="#fff" style="fill: var(--color3, #fff)" opacity="0.7" d="M24.069 16.375h-0.029c-0.046-0.004-0.090-0.016-0.131-0.037s-0.077-0.049-0.106-0.084-0.052-0.075-0.066-0.119c-0.014-0.044-0.019-0.089-0.015-0.135 0.006-0.067 0.031-0.13 0.073-0.183s0.097-0.092 0.161-0.114 0.132-0.024 0.197-0.008c0.065 0.017 0.124 0.052 0.169 0.101s0.076 0.111 0.087 0.177c0.011 0.066 0.003 0.134-0.024 0.196s-0.071 0.114-0.127 0.151c-0.056 0.037-0.122 0.057-0.189 0.057l0.001-0.001zM24.069 15.732c-0.070-0-0.137 0.024-0.191 0.069-0.060 0.051-0.097 0.123-0.104 0.201-0.004 0.048 0.004 0.097 0.024 0.142s0.049 0.084 0.087 0.114 0.083 0.050 0.131 0.059c0.048 0.009 0.097 0.006 0.143-0.009s0.088-0.041 0.122-0.076c0.034-0.035 0.059-0.078 0.072-0.124s0.015-0.096 0.005-0.143c-0.010-0.047-0.032-0.092-0.063-0.129-0.025-0.030-0.056-0.054-0.090-0.072s-0.072-0.028-0.111-0.031h-0.025z"></path>
<path fill="#fff" style="fill: var(--color3, #fff)" opacity="0.3" d="M26.91 19.401l0.447-5.435c0.003-0.035-0.001-0.070-0.012-0.103s-0.028-0.064-0.050-0.090c-0.023-0.027-0.050-0.048-0.081-0.064s-0.065-0.025-0.1-0.028c-0.035-0.003-0.070 0.001-0.103 0.012s-0.064 0.028-0.091 0.050c-0.027 0.023-0.048 0.050-0.064 0.081s-0.026 0.065-0.028 0.099l-0.447 5.435c-0.015 0.181-0.074 0.355-0.172 0.507s-0.233 0.278-0.392 0.365l-0.272 0.152 0.245 0.193c0.143 0.112 0.255 0.258 0.328 0.424s0.103 0.348 0.088 0.528l-0.598 7.267c-0.036 0.436-0.31 0.649-0.696 0.818-0.024 0.011-0.045 0.030-0.057 0.053s-0.017 0.051-0.013 0.077c0.004 0.026 0.018 0.051 0.037 0.069s0.045 0.029 0.072 0.032c0.291 0.024 0.579-0.069 0.802-0.257s0.361-0.458 0.385-0.748l0.598-7.267c0.015-0.181-0.015-0.362-0.088-0.528s-0.185-0.312-0.328-0.424l-0.245-0.194 0.272-0.151c0.159-0.088 0.294-0.213 0.392-0.365s0.158-0.326 0.173-0.507z"></path>
<path fill="#407bff" style="fill: var(--color2, #407bff)" opacity="0.3" d="M34.1 27.847c-0.075-0.339-1.009-0.138-1.202-0.107-0.375 0.068-0.743 0.174-1.097 0.316-0.39 0.153-0.843 0.378-1.247 0.145-0.233-0.134 0.577-0.399 0.65-0.426 0.344-0.121 0.677-0.273 0.993-0.455 0.128-0.076 0.376-0.258 0.269-0.443-0.089-0.153-0.407-0.138-0.6-0.115-0.586 0.072-1.16 0.216-1.71 0.428-0.535 0.212-1.059 0.452-1.57 0.718-0.198 0.112-0.413 0.189-0.637 0.229-0.244 0.035-0.542-0.017-0.639-0.152s0.028-0.293 0.056-0.428c0.040-0.162 0.023-0.333-0.048-0.484-0.047-0.101-0.126-0.184-0.225-0.237-0.264-0.138-0.663-0.087-0.928 0.022-0.172 0.073-0.329 0.176-0.463 0.306-0.271 0.252-0.461 0.578-0.546 0.938-0.021 0.113-0.065 0.22-0.128 0.316s-0.144 0.178-0.239 0.243c-0.371 0.25-1.052 0.235-1.572 0.11-0.908-0.215-1.601-0.718-1.768-1.287-0.081-0.271-0.121-0.554-0.485-0.66-0.235-0.069-0.729-0.021-0.623 0.277 0.038 0.082 0.088 0.157 0.148 0.224 0.096 0.127 0.199 0.365-0.087 0.442-0.093 0.020-0.188 0.024-0.282 0.014-0.92-0.062-1.766-0.368-2.315-0.8-0.179-0.14-0.331-0.312-0.448-0.507-0.065-0.107-0.089-0.223-0.16-0.329-0.068-0.102-0.164-0.182-0.277-0.23-0.353-0.152-1.183-0.073-1.241 0.26-0.031 0.18 0.081 0.375 0.139 0.546 0.010 0.022 0.013 0.046 0.007 0.069-0.017 0.044-0.082 0.056-0.139 0.060-0.742 0.049-1.462-0.239-2.084-0.539-0.659-0.318-1.385-0.733-2.302-0.738-0.19-0.009-0.379 0.013-0.562 0.064-0.046 0.012-0.089 0.035-0.126 0.065-0.022 0.023-0.037 0.053-0.043 0.085s-0.001 0.065 0.012 0.094c0.030 0.061 0.074 0.114 0.129 0.154 0.277 0.226 0.665 0.317 1.019 0.433 1.050 0.34 2.066 0.779 3.033 1.312 0.098 0.055 0.271 0.181 0.134 0.277s-0.416 0.034-0.58 0.007c-0.298-0.048-0.584-0.126-0.874-0.199-0.384-0.097-0.831-0.185-1.247-0.105-0.22 0.042-0.416 0.132-0.519 0.254-0.036 0.036-0.059 0.082-0.067 0.131s-0 0.101 0.023 0.146c0.143 0.254 0.793 0.363 1.149 0.484 0.455 0.155 0.9 0.338 1.332 0.549 0.369 0.183 0.712 0.383 1.086 0.562 1.336 0.64 3.202 0.723 4.871 0.785 1.811 0.069 3.631 0.010 5.438-0.090 1.316-0.073 2.608-0.218 3.898-0.388 0.371-0.048 0.739-0.108 1.108-0.159 0.375-0.043 0.745-0.116 1.108-0.219 0.13-0.033 0.252-0.094 0.357-0.179 0.099-0.092 0.13-0.212-0.047-0.247-0.371-0.074-0.754 0.010-1.117 0.076-0.407 0.075-0.811 0.161-1.211 0.258-0.182 0.049-0.367 0.086-0.554 0.113s-0.379 0.014-0.562-0.036c-0.060-0.019-0.125-0.052-0.128-0.105s0.046-0.086 0.098-0.106c0.747-0.296 1.541-0.484 2.341-0.657 0.542-0.118 1.094-0.19 1.641-0.282 0.498-0.084 1.023-0.103 1.455-0.419 0.086-0.055 0.153-0.136 0.191-0.23 0.019-0.049 0.023-0.102 0.013-0.153z"></path>
<path fill="#407bff" style="fill: var(--color2, #407bff)" opacity="0.3" d="M12.665 25.045c-0.203-0.577-0.926-1.597-1.079-0.995-0.082 0.338 1.079 0.995 1.079 0.995z"></path>
<path fill="#407bff" style="fill: var(--color2, #407bff)" opacity="0.3" d="M30.827 26.18c0.387-0.352 0.869-0.562 0.931-0.252 0.058 0.293-0.931 0.252-0.931 0.252z"></path>
<path fill="#407bff" style="fill: var(--color2, #407bff)" opacity="0.3" d="M14.968 23.379c-0.265-0.138-0.471-0.361-0.316-0.453s0.316 0.453 0.316 0.453z"></path>
</symbol>
<symbol id="icon-Background-Main-Page" viewBox="0 0 31 32">
<path fill="#9ebbff" style="fill: var(--color6, #9ebbff)" d="M-16 13.44l3.203 0.387c3.203 0.387 9.61 1.16 16.017 3.867s12.813 7.347 19.22 9.667 12.813 2.32 19.22 2.707c6.407 0.387 12.813 1.16 16.017 1.547l3.203 0.387h-3.203c-3.204 0-9.61 0-16.017 0s-12.813 0-19.22 0-12.813 0-19.22 0-12.813 0-16.017 0h-3.203v-18.56z"></path>
<path fill="#ecf2ff" style="fill: var(--color5, #ecf2ff)" opacity="0.8" d="M76.28 0h-2.563c-2.564 0-7.69 0-12.817 1.63-5.127 1.556-10.253 4.741-15.38 4.741s-10.253-3.185-15.38-0.519c-5.127 2.667-10.253 11.185-15.38 15.481s-10.253 4.296-15.38 3.185c-5.127-1.037-10.253-3.185-12.817-4.222l-2.563-1.111v12.815h2.563c2.563 0 7.69 0 12.817 0s10.253 0 15.38 0c5.127 0 10.253 0 15.38 0s10.253 0 15.38 0c5.127 0 10.253 0 15.38 0s10.253 0 12.817 0h2.563v-32z"></path>
<path fill="#c6d7ff" style="fill: var(--color4, #c6d7ff)" d="M0.318 22.166c-0.009 0.11-0.051 0.216-0.12 0.302s-0.162 0.151-0.267 0.185c-0.105 0.034-0.219 0.036-0.325 0.005s-0.202-0.092-0.273-0.176-0.117-0.188-0.129-0.298c-0.013-0.11 0.008-0.221 0.058-0.32s0.129-0.18 0.226-0.234 0.207-0.078 0.318-0.069c0.148 0.012 0.285 0.083 0.381 0.196s0.143 0.26 0.131 0.408z"></path>
<path fill="#ecf2ff" style="fill: var(--color5, #ecf2ff)" d="M0.479 9.79c-0.006 0.071-0.033 0.139-0.077 0.194s-0.104 0.097-0.172 0.119c-0.068 0.022-0.141 0.023-0.209 0.003s-0.13-0.059-0.176-0.113c-0.046-0.054-0.075-0.121-0.083-0.192s0.005-0.142 0.037-0.206c0.033-0.063 0.083-0.116 0.145-0.15s0.133-0.050 0.204-0.044c0.095 0.008 0.183 0.053 0.245 0.126s0.092 0.167 0.084 0.262z"></path>
<path fill="#9ebbff" style="fill: var(--color6, #9ebbff)" opacity="0.7" d="M1.086 15.955h-0.050c-0.079-0.005-0.157-0.027-0.228-0.062s-0.135-0.085-0.186-0.145c-0.051-0.060-0.090-0.13-0.114-0.205s-0.033-0.154-0.026-0.233c0.010-0.116 0.053-0.227 0.124-0.319s0.168-0.161 0.278-0.199c0.11-0.038 0.229-0.043 0.342-0.014s0.215 0.089 0.294 0.175c0.079 0.086 0.131 0.192 0.151 0.307s0.005 0.233-0.042 0.34c-0.047 0.107-0.123 0.198-0.221 0.261s-0.211 0.098-0.328 0.098l0.005-0.005zM1.086 14.832c-0.118 0.001-0.232 0.041-0.324 0.116s-0.155 0.177-0.18 0.293-0.010 0.235 0.042 0.341c0.052 0.105 0.139 0.19 0.246 0.239s0.228 0.061 0.342 0.033c0.114-0.028 0.216-0.095 0.287-0.189s0.109-0.209 0.106-0.327c-0.003-0.118-0.046-0.231-0.122-0.321-0.044-0.052-0.098-0.096-0.159-0.127s-0.128-0.050-0.196-0.056l-0.044-0.002z"></path>
<path fill="#ecf2ff" style="fill: var(--color5, #ecf2ff)" d="M15.118 9.246c-0.009 0.11-0.051 0.216-0.12 0.302s-0.162 0.151-0.267 0.185c-0.105 0.034-0.219 0.036-0.325 0.005s-0.202-0.092-0.273-0.176-0.117-0.188-0.129-0.298c-0.013-0.11 0.008-0.221 0.058-0.32s0.129-0.18 0.226-0.234 0.207-0.078 0.318-0.069c0.148 0.012 0.285 0.083 0.381 0.196s0.143 0.26 0.131 0.408z"></path>
<path fill="#c6d7ff" style="fill: var(--color4, #c6d7ff)" opacity="0.7" d="M23.53 5.591h-0.083c-0.132-0.009-0.261-0.044-0.38-0.104s-0.224-0.142-0.311-0.242c-0.085-0.1-0.15-0.216-0.19-0.341s-0.055-0.257-0.043-0.388c0.016-0.193 0.088-0.378 0.207-0.531s0.281-0.268 0.464-0.331c0.184-0.063 0.382-0.071 0.57-0.024s0.359 0.149 0.49 0.292c0.132 0.143 0.219 0.321 0.251 0.512s0.008 0.388-0.070 0.566c-0.078 0.178-0.206 0.329-0.368 0.436s-0.352 0.163-0.546 0.164l0.009-0.009zM23.53 3.719c-0.196 0.001-0.387 0.069-0.539 0.193s-0.259 0.296-0.3 0.488c-0.042 0.192-0.017 0.392 0.071 0.568s0.232 0.317 0.411 0.399c0.178 0.082 0.379 0.102 0.57 0.054s0.359-0.158 0.479-0.314c0.119-0.156 0.182-0.348 0.177-0.545s-0.076-0.385-0.203-0.536c-0.074-0.087-0.164-0.159-0.266-0.211s-0.213-0.084-0.327-0.093l-0.073-0.003z"></path>
<path fill="#c6d7ff" style="fill: var(--color4, #c6d7ff)" d="M24.518 14.006c-0.009 0.11-0.051 0.216-0.12 0.302s-0.162 0.151-0.267 0.185c-0.105 0.034-0.219 0.036-0.325 0.005s-0.202-0.092-0.273-0.176-0.117-0.188-0.129-0.298c-0.013-0.11 0.008-0.221 0.058-0.32s0.129-0.18 0.226-0.234 0.207-0.078 0.318-0.069c0.148 0.012 0.285 0.083 0.381 0.196s0.143 0.26 0.131 0.408z"></path>
<path fill="#9ebbff" style="fill: var(--color6, #9ebbff)" opacity="0.7" d="M30.489 10.992h-0.073c-0.116-0.008-0.23-0.039-0.334-0.091s-0.197-0.124-0.273-0.213c-0.075-0.088-0.132-0.19-0.167-0.3s-0.048-0.226-0.038-0.341c0.014-0.17 0.078-0.333 0.183-0.468s0.247-0.236 0.408-0.292c0.162-0.055 0.336-0.063 0.501-0.021s0.315 0.131 0.431 0.257c0.116 0.126 0.193 0.282 0.221 0.451s0.007 0.342-0.062 0.498-0.181 0.29-0.324 0.383c-0.143 0.094-0.31 0.144-0.481 0.144l0.008-0.008zM30.489 9.345c-0.173 0.001-0.34 0.061-0.475 0.169s-0.227 0.26-0.264 0.429-0.015 0.345 0.062 0.5c0.077 0.155 0.204 0.279 0.361 0.351s0.334 0.089 0.502 0.048 0.316-0.139 0.421-0.276c0.105-0.137 0.16-0.306 0.156-0.479s-0.067-0.339-0.178-0.471c-0.065-0.077-0.144-0.14-0.234-0.186s-0.187-0.074-0.287-0.081l-0.064-0.003z"></path>
<path fill="#f5f5f5" style="fill: var(--color1, #f5f5f5)" d="M25.92 30c4.437 0 8.035-0.21 8.035-0.469s-3.597-0.469-8.035-0.469c-4.438 0-8.035 0.21-8.035 0.469s3.597 0.469 8.035 0.469z"></path>
<path fill="#407bff" style="fill: var(--color2, #407bff)" opacity="0.1" d="M21.25 26.256c0.005-0.037 0.024-0.071 0.053-0.095s0.067-0.035 0.104-0.032c0.355-0.005 0.687 0.245 0.995 0.514 0.068 0.059 0.143 0.121 0.219 0.058 0.024-0.020 0.041-0.046 0.050-0.075 0.013-0.048 0.013-0.099 0-0.148-0.011-0.040-0.030-0.077-0.056-0.11-0.134-0.176-0.297-0.261-0.429-0.443-0.074-0.104-0.135-0.217-0.183-0.336-0.041-0.104-0.124-0.273-0.091-0.414 0.037-0.169 0.163-0.155 0.24-0.131 0.242 0.073 0.469 0.245 0.674 0.46 0.219 0.229 0.418 0.504 0.615 0.778 0.075 0.104 0.153 0.211 0.249 0.249s0.216-0.023 0.256-0.173-0.007-0.322-0.017-0.472c-0.013-0.178-0.005-0.357 0.026-0.533 0.013-0.093 0.045-0.182 0.092-0.264 0.107-0.157 0.265-0.102 0.369 0.017 0.079 0.099 0.14 0.211 0.181 0.332 0.116 0.332 0.186 0.679 0.207 1.030 0.016 0.218 0.049 0.444 0.138 0.613 0.145 0.273 0.414 0.251 0.624 0.108 0.364-0.249 0.645-0.811 0.72-1.439 0.024-0.205 0.031-0.426 0.105-0.598 0.065-0.148 0.232-0.249 0.314-0.089 0.033 0.080 0.042 0.168 0.027 0.253s-0.035 0.167-0.062 0.249c-0.041 0.141-0.083 0.405 0.029 0.487 0.017 0.010 0.035 0.016 0.055 0.019s0.039 0 0.058-0.006c0.366-0.076 0.707-0.421 0.931-0.902 0.081-0.181 0.143-0.37 0.185-0.564 0.027-0.119 0.038-0.246 0.068-0.363 0.019-0.093 0.058-0.18 0.114-0.256 0.143-0.171 0.472-0.090 0.49 0.276 0.011 0.212-0.045 0.419-0.066 0.626-0.013 0.129 0.067 0.128 0.127 0.124 0.286-0.029 0.539-0.317 0.763-0.617 0.266-0.357 0.562-0.82 0.925-0.834 0.083-0.003 0.221 0.008 0.271 0.136 0.023 0.078 0.023 0.162 0 0.24-0.074 0.306-0.29 0.464-0.456 0.615-0.467 0.438-0.878 0.933-1.224 1.473-0.053 0.083-0.107 0.22-0.057 0.301 0.010 0.015 0.024 0.028 0.040 0.035s0.035 0.010 0.053 0.006c0.171-0.013 0.332-0.149 0.488-0.262s0.334-0.211 0.497-0.126c0.050 0.030 0.094 0.070 0.129 0.118s0.060 0.101 0.074 0.158c0.029 0.1 0.034 0.206 0.014 0.308-0.060 0.281-0.32 0.408-0.463 0.547-0.197 0.19-0.377 0.396-0.539 0.617-0.149 0.204-0.29 0.428-0.439 0.629-0.539 0.718-1.285 0.825-1.948 0.908-0.721 0.090-1.445 0.041-2.162-0.053-0.522-0.070-1.036-0.218-1.545-0.394-0.175-0.063-0.349-0.133-0.52-0.215-0.184-0.088-0.456-0.142-0.527-0.488-0.015-0.075 0.002-0.135 0.052-0.163 0.153-0.087 0.371 0.029 0.515 0.106 0.198 0.106 0.387 0.257 0.591 0.339 0.033 0.016 0.068 0.025 0.105 0.027s0.073-0.004 0.107-0.016c0.034-0.014 0.061-0.039 0.078-0.072 0.022-0.042 0.027-0.091 0.015-0.136-0.008-0.025-0.023-0.047-0.041-0.065-0.367-0.376-0.805-0.675-1.29-0.879-0.155-0.067-0.314-0.121-0.464-0.216-0.121-0.075-0.225-0.173-0.307-0.29-0.070-0.111-0.182-0.308-0.146-0.486z"></path>
<path fill="#407bff" style="fill: var(--color2, #407bff)" opacity="0.1" d="M29.176 23.21c-0.028 0.029-0.064 0.048-0.103 0.054s-0.080-0.001-0.115-0.019-0.063-0.048-0.080-0.085c-0.017-0.036-0.021-0.077-0.013-0.116 0.143-0.694 0.454-1.199 0.823-0.937 0.276 0.195-0.157 0.733-0.512 1.103z"></path>
<path fill="#407bff" style="fill: var(--color2, #407bff)" opacity="0.3" d="M28.173 23.534c0.113-0.062 0.209-0.152 0.279-0.26s0.112-0.233 0.123-0.361l0.28-3.412c0.015-0.175-0.008-0.352-0.066-0.518s-0.15-0.319-0.27-0.447l-0.863-0.924c-0.048-0.051-0.084-0.112-0.107-0.177s-0.032-0.136-0.026-0.205l0.041-0.5-2.234-0.184-0.041 0.5c-0.006 0.070-0.026 0.137-0.059 0.198s-0.079 0.115-0.134 0.158l-1.003 0.772c-0.139 0.107-0.255 0.243-0.339 0.397s-0.135 0.325-0.149 0.501l-0.281 3.412c-0.011 0.129 0.011 0.258 0.062 0.376s0.131 0.222 0.232 0.302c-0.113 0.062-0.209 0.152-0.279 0.26s-0.112 0.233-0.122 0.361l-0.358 4.351c-0.017 0.207 0.049 0.412 0.183 0.57s0.326 0.257 0.533 0.274l3.688 0.303c0.102 0.008 0.206-0.003 0.303-0.035s0.189-0.082 0.267-0.148c0.078-0.066 0.143-0.148 0.19-0.239s0.075-0.191 0.084-0.294l0.358-4.351c0.011-0.129-0.010-0.258-0.061-0.376s-0.131-0.222-0.232-0.303z"></path>
<path fill="#407bff" style="fill: var(--color2, #407bff)" opacity="0.3" d="M25.331 16.545l-0.032 0.385 2.234 0.184 0.032-0.385-2.234-0.184z"></path>
<path fill="#fff" style="fill: var(--color3, #fff)" opacity="0.3" d="M28.499 18.624l-0.863-0.925c0 0-0.557 0.024-0.124 0.706 0.368 0.577 1.010 0.487 0.988 0.219z"></path>
<path fill="#407bff" style="fill: var(--color2, #407bff)" opacity="0.2" d="M22.86 28.131c-0.017 0.207 0.049 0.412 0.183 0.57s0.326 0.257 0.533 0.274l3.688 0.303c0.102 0.008 0.206-0.003 0.303-0.035s0.189-0.082 0.267-0.148 0.143-0.148 0.19-0.239c0.047-0.091 0.075-0.191 0.084-0.294l-5.248-0.431z"></path>
<path fill="#407bff" style="fill: var(--color2, #407bff)" opacity="0.3" d="M28.338 18.704c0.096 0.103 0.17 0.226 0.217 0.359s0.064 0.275 0.053 0.416l-0.28 3.413c-0.007 0.088-0.036 0.172-0.084 0.246s-0.113 0.135-0.19 0.177l-0.326 0.181 0.292 0.232c0.069 0.054 0.124 0.125 0.159 0.206s0.050 0.169 0.043 0.257l-0.358 4.351c-0.012 0.141-0.079 0.272-0.186 0.363s-0.247 0.137-0.389 0.126l-3.688-0.303c-0.070-0.006-0.138-0.025-0.201-0.057s-0.118-0.076-0.164-0.129-0.080-0.115-0.102-0.182c-0.022-0.067-0.030-0.137-0.024-0.207l0.358-4.351c0.007-0.088 0.036-0.172 0.084-0.246s0.113-0.135 0.19-0.178l0.326-0.181-0.29-0.232c-0.069-0.054-0.124-0.125-0.159-0.206s-0.050-0.169-0.043-0.257l0.281-3.412c0.012-0.141 0.053-0.278 0.12-0.402s0.16-0.233 0.272-0.319c0.332-0.214 1.202 0.319 2.221 0.403s1.656-0.175 1.869-0.068z"></path>
<path fill="#407bff" style="fill: var(--color2, #407bff)" opacity="0.2" d="M26.466 18.772c-1.019-0.083-1.89-0.617-2.221-0.403 0.58 0.319 1.243 0.517 2.205 0.596s1.888-0.261 1.888-0.261c-0.213-0.107-0.853 0.152-1.871 0.068z"></path>
<path fill="#407bff" style="fill: var(--color2, #407bff)" opacity="0.2" d="M23.325 22.482c-0.011 0.129 0.011 0.258 0.062 0.376s0.131 0.222 0.232 0.302l4.554 0.373c0.113-0.062 0.209-0.152 0.279-0.26s0.112-0.233 0.123-0.361l-5.25-0.429z"></path>
<path fill="#407bff" style="fill: var(--color2, #407bff)" d="M27.612 16.117l-2.227-0.184c-0.093-0.008-0.175 0.062-0.183 0.155l-0.044 0.542c-0.008 0.093 0.062 0.175 0.155 0.183l2.227 0.184c0.093 0.008 0.175-0.062 0.183-0.155l0.044-0.542c0.008-0.093-0.062-0.175-0.155-0.183z"></path>
<path fill="#fff" style="fill: var(--color3, #fff)" opacity="0.2" d="M25.425 16.73c-0.003-0-0.005-0.001-0.008-0.002s-0.005-0.003-0.006-0.005c-0.002-0.002-0.003-0.004-0.004-0.007s-0.001-0.005-0.001-0.008l0.052-0.656c0-0.006 0.003-0.011 0.007-0.014s0.010-0.005 0.015-0.005 0.011 0.003 0.014 0.007c0.004 0.004 0.005 0.010 0.005 0.015l-0.054 0.655c-0 0.005-0.003 0.010-0.007 0.014s-0.009 0.006-0.014 0.006z"></path>
<path fill="#fff" style="fill: var(--color3, #fff)" opacity="0.2" d="M25.829 16.763c-0.003-0-0.005-0.001-0.008-0.002s-0.005-0.003-0.006-0.005c-0.002-0.002-0.003-0.004-0.004-0.007s-0.001-0.005-0.001-0.008l0.054-0.655c0.001-0.005 0.003-0.011 0.007-0.014s0.010-0.005 0.015-0.005c0.003 0 0.005 0.001 0.008 0.002s0.005 0.003 0.006 0.005c0.002 0.002 0.003 0.005 0.004 0.007s0.001 0.005 0.001 0.008l-0.055 0.655c-0 0.005-0.003 0.010-0.007 0.013s-0.009 0.005-0.014 0.006z"></path>
<path fill="#fff" style="fill: var(--color3, #fff)" opacity="0.2" d="M26.233 16.798c-0.003-0-0.005-0.001-0.008-0.002s-0.005-0.003-0.006-0.005c-0.002-0.002-0.003-0.004-0.004-0.007s-0.001-0.005-0.001-0.008l0.054-0.655c0.001-0.005 0.003-0.010 0.007-0.014s0.010-0.005 0.015-0.005c0.003 0 0.005 0.001 0.008 0.002s0.005 0.003 0.006 0.005c0.002 0.002 0.003 0.004 0.004 0.007s0.001 0.005 0.001 0.008l-0.054 0.655c-0 0.003-0.001 0.005-0.002 0.008s-0.003 0.005-0.005 0.006c-0.002 0.002-0.004 0.003-0.007 0.004s-0.005 0.001-0.008 0.001z"></path>
<path fill="#fff" style="fill: var(--color3, #fff)" opacity="0.2" d="M26.637 16.829c-0.003-0-0.005-0.001-0.008-0.002s-0.005-0.003-0.006-0.005c-0.002-0.002-0.003-0.004-0.004-0.007s-0.001-0.005-0.001-0.008l0.054-0.655c0.001-0.005 0.003-0.010 0.007-0.014s0.010-0.005 0.015-0.005c0.003 0 0.005 0.001 0.008 0.002s0.005 0.003 0.006 0.005c0.002 0.002 0.003 0.004 0.004 0.007s0.001 0.005 0.001 0.008l-0.054 0.655c-0 0.003-0.001 0.005-0.002 0.008s-0.003 0.005-0.005 0.006c-0.002 0.002-0.004 0.003-0.007 0.004s-0.005 0.001-0.008 0.001z"></path>
<path fill="#fff" style="fill: var(--color3, #fff)" opacity="0.2" d="M27.039 16.862c-0.003-0-0.005-0.001-0.008-0.002s-0.005-0.003-0.006-0.005c-0.002-0.002-0.003-0.004-0.004-0.007s-0.001-0.005-0.001-0.008l0.054-0.655c0.001-0.005 0.003-0.010 0.008-0.014s0.009-0.005 0.015-0.005c0.003 0 0.005 0.001 0.008 0.002s0.005 0.003 0.006 0.005 0.003 0.004 0.004 0.007 0.001 0.005 0.001 0.008l-0.054 0.655c-0 0.003-0.001 0.005-0.002 0.008s-0.003 0.005-0.005 0.006c-0.002 0.002-0.005 0.003-0.007 0.004s-0.005 0.001-0.008 0.001z"></path>
<path fill="#fff" style="fill: var(--color3, #fff)" opacity="0.2" d="M27.445 16.895c-0.003-0-0.005-0.001-0.008-0.002s-0.005-0.003-0.006-0.005c-0.002-0.002-0.003-0.004-0.004-0.007s-0.001-0.005-0.001-0.008l0.052-0.656c0.001-0.005 0.003-0.010 0.007-0.014s0.010-0.005 0.015-0.005c0.005 0.001 0.010 0.003 0.014 0.007s0.005 0.010 0.005 0.015l-0.053 0.656c-0.001 0.005-0.003 0.010-0.007 0.013s-0.009 0.005-0.014 0.006z"></path>
<path fill="#407bff" style="fill: var(--color2, #407bff)" opacity="0.2" d="M24.014 21.342c-0.063-0.349-0.571-0.324-0.6 0.029l-0.091 1.111c-0.011 0.129 0.011 0.258 0.062 0.376s0.131 0.222 0.232 0.302c-0.113 0.062-0.209 0.152-0.279 0.26s-0.112 0.233-0.122 0.361l-0.358 4.351c-0.017 0.207 0.049 0.412 0.183 0.57s0.326 0.257 0.533 0.274l0.953 0.078c0.105 0.009 0.211-0.007 0.309-0.046s0.186-0.099 0.257-0.177c0.071-0.078 0.123-0.171 0.152-0.273s0.034-0.208 0.016-0.312l-1.247-6.906z"></path>
<path fill="#407bff" style="fill: var(--color2, #407bff)" opacity="0.3" d="M27.681 27.039c-0.007 0.080-0.037 0.156-0.087 0.219s-0.117 0.109-0.194 0.134c-0.076 0.025-0.158 0.026-0.235 0.004s-0.146-0.066-0.198-0.128c-0.052-0.061-0.084-0.136-0.094-0.216s0.006-0.16 0.042-0.231c0.037-0.071 0.094-0.13 0.164-0.169s0.15-0.056 0.23-0.050c0.107 0.009 0.206 0.060 0.276 0.142s0.104 0.188 0.095 0.295z"></path>
<path fill="#407bff" style="fill: var(--color2, #407bff)" opacity="0.3" d="M26.393 25.47c-0.005 0.057-0.026 0.11-0.061 0.155s-0.083 0.077-0.137 0.095-0.112 0.018-0.166 0.003c-0.055-0.016-0.103-0.047-0.14-0.090s-0.060-0.096-0.066-0.153 0.004-0.113 0.030-0.164c0.026-0.050 0.066-0.092 0.116-0.12s0.106-0.040 0.163-0.035c0.076 0.006 0.146 0.042 0.195 0.1s0.073 0.133 0.067 0.209z"></path>
<path fill="#407bff" style="fill: var(--color2, #407bff)" opacity="0.3" d="M25.194 21.977c-0.057 0.003-0.113-0.012-0.161-0.041s-0.087-0.072-0.111-0.124c-0.024-0.051-0.033-0.109-0.024-0.165s0.033-0.108 0.071-0.15c0.038-0.042 0.088-0.072 0.143-0.085s0.113-0.011 0.166 0.008 0.1 0.054 0.134 0.099c0.034 0.046 0.053 0.1 0.056 0.157 0.002 0.038-0.004 0.075-0.016 0.111s-0.032 0.068-0.058 0.096c-0.025 0.028-0.056 0.051-0.090 0.067s-0.071 0.025-0.109 0.027z"></path>
<path fill="#407bff" style="fill: var(--color2, #407bff)" opacity="0.3" d="M25.976 20.263c-0.040 0.002-0.080-0.008-0.114-0.029s-0.062-0.051-0.079-0.087c-0.017-0.036-0.023-0.077-0.017-0.117s0.023-0.077 0.051-0.107c0.027-0.030 0.062-0.051 0.101-0.061s0.080-0.008 0.118 0.006c0.038 0.014 0.071 0.038 0.095 0.070s0.038 0.071 0.039 0.111c0.002 0.054-0.016 0.106-0.053 0.146s-0.087 0.064-0.14 0.066z"></path>
<path fill="#407bff" style="fill: var(--color2, #407bff)" opacity="0.3" d="M27.234 24.231c-0.002 0.023-0.011 0.046-0.025 0.064s-0.034 0.032-0.057 0.039c-0.022 0.007-0.046 0.008-0.069 0.001s-0.043-0.019-0.058-0.037c-0.015-0.018-0.025-0.040-0.027-0.063s0.002-0.047 0.012-0.068c0.011-0.021 0.027-0.038 0.048-0.049s0.044-0.016 0.067-0.015c0.031 0.003 0.060 0.018 0.081 0.042s0.030 0.055 0.028 0.086z"></path>
<path fill="#fff" style="fill: var(--color3, #fff)" opacity="0.7" d="M25.087 27.473h-0.020c-0.032-0.002-0.063-0.011-0.091-0.025s-0.054-0.034-0.075-0.058c-0.020-0.024-0.036-0.052-0.046-0.082s-0.013-0.062-0.010-0.093c0.004-0.046 0.021-0.091 0.050-0.127s0.067-0.064 0.111-0.080c0.044-0.015 0.092-0.017 0.137-0.006s0.086 0.036 0.118 0.070c0.032 0.034 0.053 0.077 0.060 0.123s0.002 0.093-0.017 0.136c-0.019 0.043-0.049 0.079-0.088 0.105s-0.085 0.039-0.131 0.039l0.002-0.002zM25.087 27.024c-0.047 0-0.093 0.017-0.129 0.046s-0.062 0.071-0.072 0.117-0.004 0.094 0.017 0.136c0.021 0.042 0.056 0.076 0.099 0.096s0.091 0.024 0.137 0.013c0.046-0.011 0.086-0.038 0.115-0.075s0.044-0.084 0.042-0.131-0.018-0.092-0.049-0.128c-0.018-0.021-0.039-0.038-0.064-0.051s-0.051-0.020-0.078-0.022l-0.017-0.001z"></path>
<path fill="#fff" style="fill: var(--color3, #fff)" opacity="0.7" d="M27.651 22.624h-0.014c-0.046-0.004-0.089-0.026-0.119-0.061s-0.045-0.081-0.041-0.127c0.004-0.046 0.026-0.089 0.061-0.119s0.081-0.045 0.127-0.041c0.046 0.004 0.089 0.026 0.119 0.061s0.045 0.081 0.041 0.127c-0.004 0.046-0.026 0.089-0.061 0.119-0.032 0.026-0.072 0.041-0.113 0.041zM27.508 22.438c-0.002 0.028 0.004 0.056 0.018 0.081s0.035 0.045 0.060 0.057c0.025 0.013 0.054 0.018 0.082 0.015s0.055-0.015 0.076-0.033c0.014-0.012 0.026-0.027 0.035-0.044s0.014-0.035 0.015-0.054c0.002-0.019-0.001-0.038-0.006-0.056s-0.015-0.035-0.027-0.049c-0.013-0.014-0.028-0.025-0.045-0.033s-0.036-0.012-0.054-0.013c-0.019-0.002-0.038 0.001-0.056 0.006s-0.035 0.015-0.049 0.027c-0.014 0.012-0.026 0.027-0.035 0.044s-0.014 0.035-0.015 0.054l0.002-0.002z"></path>
<path fill="#fff" style="fill: var(--color3, #fff)" opacity="0.7" d="M24.973 18.95h-0.006c-0.021-0.002-0.041-0.012-0.055-0.029s-0.021-0.038-0.020-0.059c0.001-0.016 0.007-0.032 0.017-0.044s0.023-0.023 0.038-0.028c0.015-0.005 0.032-0.006 0.047-0.003s0.030 0.012 0.041 0.024c0.011 0.012 0.018 0.027 0.021 0.042s0.001 0.032-0.006 0.047-0.017 0.027-0.030 0.036c-0.013 0.009-0.029 0.014-0.045 0.014l-0.002-0zM24.923 18.865c-0.001 0.010 0.001 0.020 0.006 0.028s0.012 0.016 0.021 0.020c0.009 0.005 0.019 0.006 0.029 0.005s0.019-0.005 0.027-0.012c0.008-0.006 0.013-0.015 0.016-0.024s0.003-0.020-0-0.029-0.009-0.018-0.016-0.024c-0.008-0.006-0.017-0.010-0.027-0.011-0.007-0.001-0.013 0-0.020 0.002s-0.012 0.005-0.017 0.009c-0.005 0.004-0.009 0.010-0.012 0.015s-0.005 0.012-0.005 0.019z"></path>
<path fill="#fff" style="fill: var(--color3, #fff)" opacity="0.7" d="M26.806 21.096h-0.017c-0.027-0.002-0.054-0.010-0.078-0.022s-0.046-0.030-0.064-0.051c-0.018-0.021-0.031-0.045-0.039-0.071s-0.011-0.054-0.009-0.081c0.004-0.040 0.019-0.078 0.043-0.11s0.058-0.055 0.096-0.068c0.038-0.013 0.079-0.015 0.118-0.005s0.074 0.031 0.101 0.061c0.027 0.030 0.045 0.066 0.052 0.106s0.002 0.080-0.014 0.117c-0.016 0.037-0.043 0.068-0.076 0.090s-0.073 0.034-0.113 0.034l0-0.001zM26.806 20.711c-0.042-0-0.082 0.015-0.114 0.041-0.036 0.030-0.058 0.073-0.062 0.12-0.002 0.029 0.002 0.058 0.014 0.085s0.030 0.050 0.052 0.068c0.023 0.018 0.050 0.030 0.078 0.035s0.058 0.003 0.086-0.006 0.053-0.024 0.073-0.045c0.020-0.021 0.035-0.046 0.043-0.074s0.009-0.057 0.003-0.086c-0.006-0.028-0.019-0.055-0.038-0.077-0.015-0.018-0.033-0.032-0.054-0.043s-0.043-0.017-0.066-0.019h-0.015z"></path>
<path fill="#fff" style="fill: var(--color3, #fff)" opacity="0.3" d="M28.505 22.908l0.268-3.254c0.002-0.021-0.001-0.042-0.007-0.062s-0.017-0.038-0.030-0.054c-0.013-0.016-0.030-0.029-0.049-0.038s-0.039-0.015-0.060-0.017c-0.021-0.002-0.042 0.001-0.062 0.007s-0.038 0.017-0.054 0.030c-0.016 0.013-0.029 0.030-0.039 0.049s-0.015 0.039-0.017 0.060l-0.268 3.254c-0.009 0.108-0.044 0.212-0.103 0.304s-0.14 0.166-0.235 0.218l-0.163 0.091 0.146 0.116c0.085 0.067 0.153 0.154 0.196 0.254s0.061 0.208 0.053 0.316l-0.358 4.351c-0.022 0.261-0.186 0.388-0.416 0.49-0.015 0.007-0.027 0.018-0.034 0.032s-0.010 0.030-0.008 0.046c0.003 0.016 0.010 0.030 0.022 0.041s0.027 0.018 0.043 0.019c0.174 0.014 0.346-0.041 0.48-0.154s0.216-0.274 0.23-0.448l0.358-4.351c0.009-0.108-0.009-0.217-0.053-0.316s-0.111-0.187-0.196-0.254l-0.146-0.116 0.163-0.090c0.095-0.052 0.176-0.127 0.235-0.219s0.094-0.195 0.103-0.304z"></path>
<path fill="#407bff" style="fill: var(--color2, #407bff)" opacity="0.3" d="M32.807 27.965c-0.045-0.203-0.603-0.083-0.719-0.064-0.225 0.041-0.445 0.104-0.656 0.189-0.233 0.092-0.504 0.226-0.746 0.087-0.14-0.080 0.345-0.239 0.389-0.255 0.206-0.072 0.405-0.164 0.594-0.273 0.077-0.046 0.225-0.155 0.161-0.265-0.053-0.092-0.243-0.083-0.359-0.069-0.35 0.043-0.694 0.129-1.023 0.257-0.32 0.127-0.634 0.271-0.939 0.43-0.118 0.067-0.247 0.113-0.381 0.137-0.146 0.021-0.324-0.010-0.382-0.091s0.017-0.175 0.034-0.256c0.024-0.097 0.014-0.2-0.029-0.29-0.028-0.061-0.076-0.11-0.135-0.142-0.158-0.083-0.397-0.052-0.555 0.013-0.103 0.044-0.197 0.106-0.277 0.183-0.162 0.151-0.276 0.346-0.327 0.561-0.013 0.067-0.039 0.132-0.077 0.189s-0.086 0.107-0.143 0.145c-0.222 0.15-0.629 0.141-0.94 0.066-0.543-0.129-0.958-0.43-1.058-0.77-0.048-0.162-0.072-0.332-0.29-0.395-0.141-0.041-0.436-0.012-0.373 0.166 0.023 0.049 0.053 0.094 0.089 0.134 0.058 0.076 0.119 0.219-0.052 0.265-0.055 0.012-0.112 0.015-0.169 0.008-0.55-0.037-1.057-0.22-1.385-0.479-0.107-0.084-0.198-0.187-0.268-0.304-0.039-0.064-0.053-0.133-0.096-0.197-0.041-0.061-0.098-0.109-0.166-0.138-0.211-0.091-0.708-0.044-0.743 0.155-0.019 0.108 0.048 0.225 0.083 0.327 0.006 0.013 0.008 0.028 0.004 0.041-0.010 0.026-0.049 0.034-0.083 0.036-0.444 0.029-0.874-0.143-1.247-0.323-0.395-0.191-0.829-0.439-1.377-0.442-0.113-0.005-0.227 0.008-0.336 0.039-0.028 0.007-0.053 0.021-0.075 0.039-0.013 0.014-0.022 0.032-0.026 0.051s-0.001 0.039 0.007 0.056c0.018 0.037 0.044 0.068 0.077 0.092 0.166 0.135 0.398 0.19 0.61 0.259 0.628 0.204 1.236 0.467 1.814 0.785 0.058 0.033 0.162 0.109 0.080 0.166s-0.249 0.020-0.347 0.004c-0.178-0.029-0.349-0.075-0.523-0.119-0.23-0.058-0.497-0.111-0.746-0.063-0.131 0.025-0.249 0.079-0.31 0.152-0.021 0.021-0.035 0.049-0.040 0.079s-0 0.060 0.014 0.087c0.085 0.152 0.474 0.218 0.687 0.29 0.272 0.093 0.538 0.203 0.797 0.329 0.221 0.109 0.426 0.229 0.65 0.336 0.799 0.383 1.916 0.433 2.914 0.47 1.084 0.041 2.172 0.006 3.253-0.054 0.787-0.044 1.56-0.131 2.332-0.232 0.222-0.029 0.442-0.065 0.663-0.095 0.224-0.026 0.446-0.070 0.663-0.131 0.078-0.020 0.151-0.056 0.213-0.107 0.059-0.055 0.078-0.127-0.028-0.148-0.222-0.044-0.451 0.006-0.668 0.046-0.244 0.045-0.485 0.096-0.724 0.155-0.109 0.029-0.22 0.052-0.332 0.068s-0.227 0.008-0.336-0.022c-0.036-0.011-0.075-0.031-0.077-0.063s0.028-0.051 0.058-0.063c0.447-0.177 0.922-0.29 1.4-0.394 0.324-0.070 0.655-0.114 0.982-0.169 0.298-0.050 0.612-0.062 0.87-0.251 0.051-0.033 0.091-0.081 0.114-0.138 0.011-0.029 0.014-0.061 0.008-0.092z"></path>
<path fill="#407bff" style="fill: var(--color2, #407bff)" opacity="0.3" d="M19.984 26.287c-0.121-0.345-0.554-0.956-0.645-0.595-0.049 0.203 0.645 0.595 0.645 0.595z"></path>
<path fill="#407bff" style="fill: var(--color2, #407bff)" opacity="0.3" d="M21.362 25.289c-0.158-0.083-0.282-0.216-0.189-0.271s0.189 0.271 0.189 0.271z"></path>
</symbol>
</defs>
</svg>
