<svg width="768" height="800" fill="none" xmlns="http://www.w3.org/2000/svg">
  <g clip-path="url(#a)">
    <path fill-rule="evenodd" clip-rule="evenodd" d="m-400 336 80 9.7c80.2 9.6 240.3 29 400.5 96.6C240.7 510 400.8 626 561 684s320.3 58 480.5 67.7c160.2 9.6 320.3 29 400.4 38.6l80.1 9.7H-400V336Z" fill="#9EBBFF"/>
    <path opacity=".8" fill-rule="evenodd" clip-rule="evenodd" d="M1907 0h-64c-64.2 0-192.3 0-320.5 40.7-128.2 39-256.3 118.6-384.5 118.6s-256.3-79.7-384.5-13-256.3 279.6-384.5 387C240.8 640.7 112.7 640.7-15.5 613c-128.2-26-256.3-79.7-320.4-105.6l-64.1-27.8V800h2307V0Z" fill="#ECF2FF"/>
    <g clip-path="url(#b)">
      <path d="M8 554.1a14 14 0 1 1-28-2.2A14 14 0 0 1 8 554Z" fill="#C6D7FF"/>
      <path d="M12 244.7a9 9 0 1 1-18-1.4 9 9 0 0 1 18 1.4Z" fill="#ECF2FF"/>
      <path opacity=".7" d="M27.2 398.9h-1.3a15 15 0 0 1-13.2-10.3 14.9 14.9 0 0 1 2.5-13.8A15 15 0 1 1 27 399l.2-.1Zm0-28.1a13 13 0 1 0 1 0h-1Z" fill="#9EBBFF"/>
      <path d="M378 231.1a14 14 0 1 1-28-2.3 14 14 0 0 1 28 2.3Z" fill="#ECF2FF"/>
      <path opacity=".7" d="M588.3 139.8h-2.1a25 25 0 0 1-22-17.2 24.8 24.8 0 0 1 4-23A25 25 0 1 1 588 140l.3-.2Zm0-46.8a21.6 21.6 0 1 0 1.8 0h-1.8Z" fill="#C6D7FF"/>
      <path d="M613 350.1a14 14 0 1 1-28-2.3 14 14 0 0 1 28 2.3Z" fill="#C6D7FF"/>
      <path opacity=".7" d="M762.2 274.8h-1.8a22 22 0 0 1-19.4-15 21.8 21.8 0 0 1 3.6-20.3A22 22 0 1 1 762 275l.2-.2Zm0-41.2a19 19 0 1 0 1.6.1h-1.6Z" fill="#9EBBFF"/>
    </g>
    <g clip-path="url(#c)">
      <path d="M648 750c111 0 200.9-5.3 200.9-11.7 0-6.5-90-11.8-200.9-11.8-111 0-200.9 5.3-200.9 11.8 0 6.5 90 11.7 200.9 11.7Z" fill="#F5F5F5"/>
      <path opacity=".1" d="M531.2 656.4a3.7 3.7 0 0 1 4-3.2c8.8-.1 17.1 6.2 24.8 12.9 1.8 1.5 3.6 3 5.5 1.4.6-.5 1-1.1 1.3-1.8a7 7 0 0 0 0-3.7 8 8 0 0 0-1.4-2.8c-3.4-4.4-7.4-6.5-10.8-11a40.2 40.2 0 0 1-4.5-8.4c-1-2.6-3.1-6.9-2.3-10.4 1-4.2 4-3.9 6-3.3 6 1.8 11.7 6.2 16.9 11.5 5.4 5.8 10.4 12.6 15.3 19.5 1.9 2.6 3.9 5.3 6.3 6.2 2.3 1 5.4-.6 6.4-4.3 1-3.8-.2-8-.5-11.8-.3-4.5 0-9 .7-13.3.3-2.4 1-4.6 2.3-6.6 2.7-4 6.6-2.6 9.2.4 2 2.5 3.5 5.3 4.5 8.3a91 91 0 0 1 5.2 25.7 40 40 0 0 0 3.5 15.3c3.6 6.9 10.3 6.3 15.6 2.8 9-6.3 16-20.3 18-36 .6-5.1.7-10.7 2.6-15 1.6-3.7 5.8-6.2 7.8-2.2.9 2 1 4.2.7 6.4l-1.5 6.2c-1 3.5-2.1 10 .7 12.1a3.4 3.4 0 0 0 2.8.4c9.1-2 17.7-10.6 23.3-22.6 2-4.5 3.5-9.2 4.6-14 .6-3 1-6.2 1.7-9.2.5-2.3 1.4-4.5 2.8-6.4 3.6-4.3 11.8-2.2 12.3 6.9.2 5.3-1.2 10.5-1.7 15.7-.3 3.2 1.7 3.2 3.2 3 7.1-.7 13.5-7.9 19-15.4 6.7-8.9 14.1-20.5 23.2-20.8 2 0 5.5.2 6.8 3.4.5 2 .5 4 0 6-1.9 7.6-7.3 11.6-11.4 15.4-11.7 11-22 23.3-30.6 36.8-1.3 2-2.7 5.5-1.4 7.5a2.3 2.3 0 0 0 2.3 1c4.3-.3 8.3-3.7 12.2-6.5 3.9-2.8 8.3-5.3 12.4-3.2a11.1 11.1 0 0 1 5.1 7c.7 2.4.8 5 .3 7.6-1.5 7-8 10.2-11.5 13.7-5 4.7-9.5 10-13.5 15.4-3.7 5.1-7.3 10.7-11 15.7-13.5 18-32.1 20.7-48.7 22.7a211.3 211.3 0 0 1-92.7-11.2 142 142 0 0 1-13-5.3c-4.6-2.2-11.4-3.6-13.1-12.2-.4-1.9 0-3.4 1.3-4 3.8-2.3 9.2.6 12.8 2.6 5 2.6 9.7 6.4 14.8 8.4a6.7 6.7 0 0 0 5.3.3 4 4 0 0 0 2-1.8 5 5 0 0 0 .3-3.4 4 4 0 0 0-1-1.6 98.6 98.6 0 0 0-32.2-22c-4-1.7-7.9-3-11.6-5.4a26 26 0 0 1-7.7-7.2c-1.7-2.8-4.5-7.8-3.7-12.2Zm198.2-76.1a4.6 4.6 0 0 1-7.8-4.2c3.6-17.3 11.4-30 20.6-23.4 6.9 4.9-4 18.3-12.8 27.6Z" fill="#407BFF"/>
      <path opacity=".3" d="M704.3 588.4a19.5 19.5 0 0 0 10-15.6l7-85.3a31.5 31.5 0 0 0-8.3-24.1l-21.6-23.1a12.6 12.6 0 0 1-3.3-9.6l1-12.5-55.8-4.6-1 12.5a12.5 12.5 0 0 1-5 8.9l-25 19.3a31.6 31.6 0 0 0-12.2 22.4l-7 85.3a19.5 19.5 0 0 0 7.4 17 19.5 19.5 0 0 0-10 15.5l-9 108.8a19.6 19.6 0 0 0 17.9 21.1l92.2 7.6a19.6 19.6 0 0 0 21.1-18l9-108.7a19.5 19.5 0 0 0-7.4-17Z" fill="#407BFF"/>
      <path opacity=".3" d="m633.3 413.6-.8 9.7 55.8 4.5.8-9.6-55.8-4.6Z" fill="#407BFF"/>
      <path opacity=".3" d="m712.5 465.6-21.6-23.1s-14 .6-3.1 17.6c9.2 14.5 25.2 12.2 24.7 5.5Z" fill="#fff"/>
      <path opacity=".2" d="M571.5 703.3a19.6 19.6 0 0 0 18 21l92.1 7.6a19.6 19.6 0 0 0 21.1-17.8l-131.2-10.8Z" fill="#407BFF"/>
      <path opacity=".3" d="M708.4 467.6a25.4 25.4 0 0 1 6.8 19.4l-7 85.3a13.4 13.4 0 0 1-6.9 10.6l-8.1 4.5 7.3 5.8a13.3 13.3 0 0 1 5 11.6l-9 108.7a13.4 13.4 0 0 1-14.3 12.2l-92.2-7.5a13.4 13.4 0 0 1-12.3-14.4l9-108.8a13.3 13.3 0 0 1 6.8-10.6l8.1-4.5-7.2-5.8a13.3 13.3 0 0 1-5-11.6l7-85.3a25.4 25.4 0 0 1 9.8-18c8.3-5.3 30 8 55.5 10 25.5 2.2 41.4-4.3 46.7-1.6Z" fill="#407BFF"/>
      <path opacity=".2" d="M661.7 469.3c-25.5-2-47.3-15.4-55.6-10a131.5 131.5 0 0 0 102.3 8.3c-5.3-2.7-21.3 3.8-46.7 1.7ZM583.1 562a19.6 19.6 0 0 0 7.4 17l113.8 9.3a19.5 19.5 0 0 0 10-15.5L583.2 562Z" fill="#407BFF"/>
      <path d="m690.3 403-55.7-4.7a4.2 4.2 0 0 0-4.6 4l-1 13.5a4.2 4.2 0 0 0 3.8 4.5l55.7 4.6c2.3.2 4.4-1.5 4.6-3.9l1-13.5a4.2 4.2 0 0 0-3.8-4.6Z" fill="#407BFF"/>
      <path opacity=".2" d="M635.6 418.2a.5.5 0 0 1-.3-.1.5.5 0 0 1-.1-.4l1.3-16.4a.5.5 0 0 1 .5-.5.5.5 0 0 1 .5.6l-1.4 16.4a.5.5 0 0 1-.5.4Zm10.1.8a.5.5 0 0 1-.3-.1.5.5 0 0 1-.1-.4l1.3-16.4a.5.5 0 0 1 .8-.4.5.5 0 0 1 .2.5l-1.4 16.4a.5.5 0 0 1-.5.5Zm10.1 1-.2-.1a.5.5 0 0 1-.3-.5l1.4-16.4a.5.5 0 0 1 .6-.5.5.5 0 0 1 .3.2.5.5 0 0 1 .1.4l-1.3 16.4a.5.5 0 0 1-.4.4h-.2Zm10.2.7a.5.5 0 0 1-.4-.2.5.5 0 0 1-.2-.3l1.4-16.4a.5.5 0 0 1 .6-.5.5.5 0 0 1 .4.4v.2l-1.3 16.4a.5.5 0 0 1-.6.4Zm10 .9a.5.5 0 0 1-.4-.2v-.2l-.1-.2 1.3-16.4.2-.3.4-.2a.5.5 0 0 1 .5.4v.2l-1.4 16.4v.2a.5.5 0 0 1-.3.2h-.2Zm10.1.8a.5.5 0 0 1-.4-.4v-.2l1.2-16.4a.5.5 0 0 1 .6-.4.5.5 0 0 1 .5.5l-1.4 16.4a.5.5 0 0 1-.5.5Z" fill="#fff"/>
      <path opacity=".2" d="M600.3 533.6c-1.5-8.8-14.2-8.1-15 .7l-2.2 27.8a19.5 19.5 0 0 0 7.3 16.9 19.5 19.5 0 0 0-10 15.5l-9 108.8a19.6 19.6 0 0 0 18 21.1l23.8 2a17.2 17.2 0 0 0 18.3-20.2l-31.2-172.6Z" fill="#407BFF"/>
      <path opacity=".3" d="M692 676a10.1 10.1 0 1 1-20.2-1.7A10.1 10.1 0 0 1 692 676Zm-32.2-39.2a7.2 7.2 0 1 1-14.3-1.2 7.2 7.2 0 0 1 14.3 1.2Zm-30-87.4a7.2 7.2 0 0 1-6.8-4c-.6-1.4-.8-2.8-.6-4.2a7.2 7.2 0 1 1 7.4 8.2Zm19.6-42.8a5 5 0 1 1-.5-10.2 5 5 0 0 1 .5 10.2Zm31.5 99.2a3 3 0 1 1-6-.5 3 3 0 0 1 6 .5Z" fill="#407BFF"/>
      <path opacity=".7" d="M627.2 686.8h-.5a6 6 0 0 1-5.3-4.1 6 6 0 0 1 1-5.5 6 6 0 1 1 4.7 9.7Zm0-11.2a5.2 5.2 0 1 0 .4 0h-.4Zm64.1-110h-.4a4.4 4.4 0 1 1 .4 0Zm-3.6-4.7a3.6 3.6 0 1 0 6.3-2 3.5 3.5 0 0 0-2.5-1.2 3.6 3.6 0 0 0-3.9 3.3Zm-63.4-87.2h-.1a2 2 0 1 1 .2 0Zm-1.2-2a1.2 1.2 0 0 0 1.4 1.3 1.3 1.3 0 1 0-.6-2.5 1.2 1.2 0 0 0-.8 1.1Zm47 55.7h-.4a5.2 5.2 0 1 1 .4 0Zm0-9.6a4.4 4.4 0 0 0-4.4 4 4.4 4.4 0 1 0 6.5-3.6c-.5-.2-1.1-.4-1.7-.4h-.4Z" fill="#fff"/>
      <path opacity=".3" d="m712.6 572.7 6.7-81.4a4 4 0 0 0-7.9-.6l-6.7 81.3a16.4 16.4 0 0 1-8.4 13l-4 2.4 3.6 2.8a16.5 16.5 0 0 1 6.2 14.3l-9 108.8c-.5 6.5-4.6 9.7-10.4 12.2a1.8 1.8 0 0 0 .6 3.5 16.5 16.5 0 0 0 17.8-15l8.9-108.8a16.4 16.4 0 0 0-6.2-14.3L700 588l4-2.3a16.4 16.4 0 0 0 8.5-13Z" fill="#fff"/>
      <path opacity=".3" d="M820.2 699.1c-1.1-5-15.1-2-18-1.6-5.6 1-11.1 2.6-16.4 4.7-5.8 2.3-12.6 5.7-18.7 2.2-3.5-2 8.7-6 9.8-6.4 5.1-1.8 10-4 14.8-6.8 2-1.1 5.6-3.8 4-6.6-1.3-2.3-6-2-9-1.7-8.7 1-17.3 3.2-25.5 6.4-8 3.2-15.8 6.7-23.5 10.7-3 1.7-6.1 2.9-9.5 3.5-3.6.5-8.1-.3-9.5-2.3-1.5-2 .4-4.4.8-6.4.6-2.5.3-5-.7-7.3a7.7 7.7 0 0 0-3.4-3.5c-4-2.1-9.9-1.3-13.9.3a28 28 0 0 0-15 18.6 13 13 0 0 1-5.6 8.4c-5.5 3.7-15.7 3.5-23.5 1.6-13.5-3.2-23.9-10.7-26.4-19.2-1.2-4-1.8-8.3-7.3-10-3.5-1-10.9-.2-9.3 4.2.6 1.3 1.3 2.4 2.2 3.4 1.5 1.9 3 5.5-1.3 6.6-1.4.3-2.8.4-4.2.2a64.5 64.5 0 0 1-34.6-12c-2.7-2-5-4.6-6.7-7.5-1-1.7-1.3-3.4-2.4-5a9.5 9.5 0 0 0-4.1-3.4c-5.3-2.3-17.7-1.1-18.6 3.9-.5 2.7 1.2 5.6 2 8.1.2.4.3.7.2 1-.3.7-1.3 1-2.1 1a63.7 63.7 0 0 1-31.2-8.1c-9.8-4.8-20.7-11-34.4-11-2.8-.2-5.7.1-8.4 1a5 5 0 0 0-1.9.9 2.4 2.4 0 0 0-.4 2.7c.4.9 1 1.7 1.9 2.3 4.1 3.3 10 4.7 15.2 6.4 15.7 5.1 31 11.7 45.4 19.7 1.4.8 4 2.7 2 4.1-2 1.5-6.2.5-8.7.1-4.4-.7-8.7-1.9-13-3a44 44 0 0 0-18.7-1.5 14 14 0 0 0-7.8 3.8 3.6 3.6 0 0 0-.6 4.1c2.1 3.8 11.8 5.5 17.1 7.3 6.8 2.3 13.5 5 20 8.2 5.5 2.7 10.6 5.7 16.2 8.4 20 9.6 47.9 10.8 72.9 11.8a869 869 0 0 0 139.6-7.2l16.6-2.4a104 104 0 0 0 16.5-3.3 14 14 0 0 0 5.4-2.6c1.5-1.4 2-3.2-.7-3.7-5.6-1.1-11.3.1-16.7 1.1-6.1 1.1-12.2 2.4-18.1 3.9-2.8.7-5.5 1.3-8.3 1.7-2.8.4-5.7.2-8.4-.6-1-.3-1.9-.7-2-1.5 0-.8.7-1.3 1.5-1.6a216 216 0 0 1 35-9.9c8.1-1.7 16.4-2.8 24.6-4.2 7.4-1.2 15.3-1.5 21.7-6.2 1.3-.9 2.3-2 2.9-3.5.3-.7.3-1.5.2-2.3Zm-320.6-41.9c-3-8.7-13.9-24-16.1-15-1.3 5.1 16 15 16 15Zm34.4-25c-4-2-7-5.4-4.7-6.8 2.3-1.3 4.7 6.8 4.7 6.8Z" fill="#407BFF"/>
    </g>
  </g>
  <defs>
    <clipPath id="a">
      <path fill="#fff" d="M0 0h768v800H0z"/>
    </clipPath>
    <clipPath id="b">
      <path fill="#fff" d="M0 0h768v680H0z"/>
    </clipPath>
    <clipPath id="c">
      <path fill="#fff" transform="translate(389 364)" d="M0 0h518v386H0z"/>
    </clipPath>
  </defs>
</svg>
